solid OpenSCAD_Model
  facet normal -1 0 0
    outer loop
      vertex 0 0 0
      vertex 0 90 120
      vertex 0 90 0
    endloop
  endfacet
  facet normal -1 -0 0
    outer loop
      vertex 0 90 120
      vertex 0 0 0
      vertex 0 0 120
    endloop
  endfacet
  facet normal 0 0 1
    outer loop
      vertex 90 90 120
      vertex 87.5 87.5 120
      vertex 90 0 120
    endloop
  endfacet
  facet normal 0 0 1
    outer loop
      vertex 90 90 120
      vertex 2.5 87.5 120
      vertex 87.5 87.5 120
    endloop
  endfacet
  facet normal 0 0 1
    outer loop
      vertex 2.5 87.5 120
      vertex 0 90 120
      vertex 2.5 2.5 120
    endloop
  endfacet
  facet normal -0 0 1
    outer loop
      vertex 0 90 120
      vertex 2.5 87.5 120
      vertex 90 90 120
    endloop
  endfacet
  facet normal -0 0 1
    outer loop
      vertex 87.5 2.5 120
      vertex 90 0 120
      vertex 87.5 87.5 120
    endloop
  endfacet
  facet normal -0 0 1
    outer loop
      vertex 2.5 2.5 120
      vertex 90 0 120
      vertex 87.5 2.5 120
    endloop
  endfacet
  facet normal 0 0 1
    outer loop
      vertex 2.5 2.5 120
      vertex 0 0 120
      vertex 90 0 120
    endloop
  endfacet
  facet normal 0 0 1
    outer loop
      vertex 0 0 120
      vertex 2.5 2.5 120
      vertex 0 90 120
    endloop
  endfacet
  facet normal 1 -0 0
    outer loop
      vertex 90 0 120
      vertex 90 90 0
      vertex 90 90 120
    endloop
  endfacet
  facet normal 1 0 0
    outer loop
      vertex 90 90 0
      vertex 90 0 120
      vertex 90 0 0
    endloop
  endfacet
  facet normal 0 1 -0
    outer loop
      vertex 90 90 0
      vertex 0 90 120
      vertex 90 90 120
    endloop
  endfacet
  facet normal 0 1 0
    outer loop
      vertex 0 90 120
      vertex 90 90 0
      vertex 0 90 0
    endloop
  endfacet
  facet normal 0 0 -1
    outer loop
      vertex 0 0 0
      vertex 90 90 0
      vertex 90 0 0
    endloop
  endfacet
  facet normal -0 0 -1
    outer loop
      vertex 90 90 0
      vertex 0 0 0
      vertex 0 90 0
    endloop
  endfacet
  facet normal 0 -1 0
    outer loop
      vertex 0 0 0
      vertex 90 0 120
      vertex 0 0 120
    endloop
  endfacet
  facet normal 0 -1 -0
    outer loop
      vertex 90 0 120
      vertex 0 0 0
      vertex 90 0 0
    endloop
  endfacet
  facet normal 1 -0 0
    outer loop
      vertex 2.5 2.5 120
      vertex 2.5 87.5 2.5
      vertex 2.5 87.5 120
    endloop
  endfacet
  facet normal 1 0 0
    outer loop
      vertex 2.5 87.5 2.5
      vertex 2.5 2.5 120
      vertex 2.5 2.5 2.5
    endloop
  endfacet
  facet normal -1 0 0
    outer loop
      vertex 87.5 2.5 2.5
      vertex 87.5 87.5 120
      vertex 87.5 87.5 2.5
    endloop
  endfacet
  facet normal -1 -0 0
    outer loop
      vertex 87.5 87.5 120
      vertex 87.5 2.5 2.5
      vertex 87.5 2.5 120
    endloop
  endfacet
  facet normal 0 -1 0
    outer loop
      vertex 2.5 87.5 2.5
      vertex 87.5 87.5 120
      vertex 2.5 87.5 120
    endloop
  endfacet
  facet normal 0 -1 -0
    outer loop
      vertex 87.5 87.5 120
      vertex 2.5 87.5 2.5
      vertex 87.5 87.5 2.5
    endloop
  endfacet
  facet normal -0 0 1
    outer loop
      vertex 2.5 87.5 2.5
      vertex 87.5 2.5 2.5
      vertex 87.5 87.5 2.5
    endloop
  endfacet
  facet normal 0 0 1
    outer loop
      vertex 87.5 2.5 2.5
      vertex 2.5 87.5 2.5
      vertex 2.5 2.5 2.5
    endloop
  endfacet
  facet normal 0 1 -0
    outer loop
      vertex 87.5 2.5 2.5
      vertex 2.5 2.5 120
      vertex 87.5 2.5 120
    endloop
  endfacet
  facet normal 0 1 0
    outer loop
      vertex 2.5 2.5 120
      vertex 87.5 2.5 2.5
      vertex 2.5 2.5 2.5
    endloop
  endfacet
endsolid OpenSCAD_Model
