%TF.GenerationSoftware,KiCad,Pcbnew,10.0.4*%
%TF.CreationDate,2026-07-01T01:34:10-04:00*%
%TF.ProjectId,geogreen-v1,67656f67-7265-4656-9e2d-76312e6b6963,rev?*%
%TF.SameCoordinates,Original*%
%TF.FileFunction,Copper,L1,Top*%
%TF.FilePolarity,Positive*%
%FSLAX46Y46*%
G04 Gerber Fmt 4.6, Leading zero omitted, Abs format (unit mm)*
G04 Created by KiCad (PCBNEW 10.0.4) date 2026-07-01 01:34:10*
%MOMM*%
%LPD*%
G01*
G04 APERTURE LIST*
G04 Aperture macros list*
%AMRoundRect*
0 Rectangle with rounded corners*
0 $1 Rounding radius*
0 $2 $3 $4 $5 $6 $7 $8 $9 X,Y pos of 4 corners*
0 Add a 4 corners polygon primitive as box body*
4,1,4,$2,$3,$4,$5,$6,$7,$8,$9,$2,$3,0*
0 Add four circle primitives for the rounded corners*
1,1,$1+$1,$2,$3*
1,1,$1+$1,$4,$5*
1,1,$1+$1,$6,$7*
1,1,$1+$1,$8,$9*
0 Add four rect primitives between the rounded corners*
20,1,$1+$1,$2,$3,$4,$5,0*
20,1,$1+$1,$4,$5,$6,$7,0*
20,1,$1+$1,$6,$7,$8,$9,0*
20,1,$1+$1,$8,$9,$2,$3,0*%
%AMOutline5P*
0 Free polygon, 5 corners , with rotation*
0 The origin of the aperture is its center*
0 number of corners: always 5*
0 $1 to $10 corner X, Y*
0 $11 Rotation angle, in degrees counterclockwise*
0 create outline with 5 corners*
4,1,5,$1,$2,$3,$4,$5,$6,$7,$8,$9,$10,$1,$2,$11*%
%AMOutline6P*
0 Free polygon, 6 corners , with rotation*
0 The origin of the aperture is its center*
0 number of corners: always 6*
0 $1 to $12 corner X, Y*
0 $13 Rotation angle, in degrees counterclockwise*
0 create outline with 6 corners*
4,1,6,$1,$2,$3,$4,$5,$6,$7,$8,$9,$10,$11,$12,$1,$2,$13*%
%AMOutline7P*
0 Free polygon, 7 corners , with rotation*
0 The origin of the aperture is its center*
0 number of corners: always 7*
0 $1 to $14 corner X, Y*
0 $15 Rotation angle, in degrees counterclockwise*
0 create outline with 7 corners*
4,1,7,$1,$2,$3,$4,$5,$6,$7,$8,$9,$10,$11,$12,$13,$14,$1,$2,$15*%
%AMOutline8P*
0 Free polygon, 8 corners , with rotation*
0 The origin of the aperture is its center*
0 number of corners: always 8*
0 $1 to $16 corner X, Y*
0 $17 Rotation angle, in degrees counterclockwise*
0 create outline with 8 corners*
4,1,8,$1,$2,$3,$4,$5,$6,$7,$8,$9,$10,$11,$12,$13,$14,$15,$16,$1,$2,$17*%
G04 Aperture macros list end*
%TA.AperFunction,ComponentPad*%
%ADD10RoundRect,0.250000X0.725000X-0.600000X0.725000X0.600000X-0.725000X0.600000X-0.725000X-0.600000X0*%
%TD*%
%TA.AperFunction,ComponentPad*%
%ADD11O,1.950000X1.700000*%
%TD*%
%TA.AperFunction,SMDPad,CuDef*%
%ADD12R,0.800000X0.400000*%
%TD*%
%TA.AperFunction,SMDPad,CuDef*%
%ADD13R,0.400000X0.800000*%
%TD*%
%TA.AperFunction,HeatsinkPad*%
%ADD14Outline5P,-0.725000X0.130500X-0.130500X0.725000X0.725000X0.725000X0.725000X-0.725000X-0.725000X-0.725000X0.000000*%
%TD*%
%TA.AperFunction,HeatsinkPad*%
%ADD15R,1.450000X1.450000*%
%TD*%
%TA.AperFunction,SMDPad,CuDef*%
%ADD16R,0.700000X0.700000*%
%TD*%
%TA.AperFunction,SMDPad,CuDef*%
%ADD17RoundRect,0.200000X-0.200000X-0.275000X0.200000X-0.275000X0.200000X0.275000X-0.200000X0.275000X0*%
%TD*%
%TA.AperFunction,ComponentPad*%
%ADD18C,1.500000*%
%TD*%
%TA.AperFunction,SMDPad,CuDef*%
%ADD19RoundRect,0.243750X-0.243750X-0.456250X0.243750X-0.456250X0.243750X0.456250X-0.243750X0.456250X0*%
%TD*%
%TA.AperFunction,ComponentPad*%
%ADD20R,2.000000X2.000000*%
%TD*%
%TA.AperFunction,ComponentPad*%
%ADD21C,2.000000*%
%TD*%
%TA.AperFunction,SMDPad,CuDef*%
%ADD22RoundRect,0.150000X0.150000X0.425000X-0.150000X0.425000X-0.150000X-0.425000X0.150000X-0.425000X0*%
%TD*%
%TA.AperFunction,SMDPad,CuDef*%
%ADD23RoundRect,0.075000X0.075000X0.500000X-0.075000X0.500000X-0.075000X-0.500000X0.075000X-0.500000X0*%
%TD*%
%TA.AperFunction,ComponentPad*%
%ADD24O,1.000000X2.100000*%
%TD*%
%TA.AperFunction,ComponentPad*%
%ADD25O,1.000000X1.800000*%
%TD*%
%TA.AperFunction,SMDPad,CuDef*%
%ADD26RoundRect,0.250000X-0.250000X-0.475000X0.250000X-0.475000X0.250000X0.475000X-0.250000X0.475000X0*%
%TD*%
%TA.AperFunction,ComponentPad*%
%ADD27RoundRect,0.250000X-0.350000X-0.625000X0.350000X-0.625000X0.350000X0.625000X-0.350000X0.625000X0*%
%TD*%
%TA.AperFunction,ComponentPad*%
%ADD28O,1.200000X1.750000*%
%TD*%
%TA.AperFunction,SMDPad,CuDef*%
%ADD29RoundRect,0.150000X-0.512500X-0.150000X0.512500X-0.150000X0.512500X0.150000X-0.512500X0.150000X0*%
%TD*%
%TA.AperFunction,SMDPad,CuDef*%
%ADD30RoundRect,0.112500X-0.187500X-0.112500X0.187500X-0.112500X0.187500X0.112500X-0.187500X0.112500X0*%
%TD*%
%TA.AperFunction,SMDPad,CuDef*%
%ADD31RoundRect,0.250000X-0.375000X-0.625000X0.375000X-0.625000X0.375000X0.625000X-0.375000X0.625000X0*%
%TD*%
%TA.AperFunction,ViaPad*%
%ADD32C,0.600000*%
%TD*%
%TA.AperFunction,Conductor*%
%ADD33C,0.200000*%
%TD*%
%TA.AperFunction,Conductor*%
%ADD34C,0.250000*%
%TD*%
G04 APERTURE END LIST*
D10*
%TO.P,J4,1*%
%TO.N,3V3*%
X10000000Y-25000000D03*
D11*
%TO.P,J4,2*%
%TO.N,LED_R*%
X10000000Y-22500000D03*
%TO.P,J4,3*%
%TO.N,LED_G*%
X10000000Y-20000000D03*
%TO.P,J4,4*%
%TO.N,LED_B*%
X10000000Y-17500000D03*
%TD*%
D12*
%TO.P,U1,1*%
%TO.N,GND*%
X54100000Y-32000000D03*
%TO.P,U1,2*%
X54100000Y-32800000D03*
%TO.P,U1,3*%
%TO.N,3V3*%
X54100000Y-33600000D03*
%TO.P,U1,4*%
%TO.N,N/C*%
X54100000Y-34400000D03*
%TO.P,U1,5*%
X54100000Y-35200000D03*
%TO.P,U1,6*%
X54100000Y-36000000D03*
%TO.P,U1,7*%
X54100000Y-36800000D03*
%TO.P,U1,8*%
%TO.N,EN*%
X54100000Y-37600000D03*
%TO.P,U1,9*%
%TO.N,SENSOR_UART_RX*%
X54100000Y-38400000D03*
%TO.P,U1,10*%
%TO.N,SENSOR_RX_PULLUP*%
X54100000Y-39200000D03*
%TO.P,U1,11*%
%TO.N,GND*%
X54100000Y-40000000D03*
D13*
%TO.P,U1,12*%
%TO.N,BOOT_IO0*%
X55200000Y-40900000D03*
%TO.P,U1,13*%
%TO.N,N/C*%
X56000000Y-40900000D03*
%TO.P,U1,14*%
%TO.N,GND*%
X56800000Y-40900000D03*
%TO.P,U1,15*%
%TO.N,N/C*%
X57600000Y-40900000D03*
%TO.P,U1,16*%
X58400000Y-40900000D03*
%TO.P,U1,17*%
X59200000Y-40900000D03*
%TO.P,U1,18*%
X60000000Y-40900000D03*
%TO.P,U1,19*%
X60800000Y-40900000D03*
%TO.P,U1,20*%
X61600000Y-40900000D03*
%TO.P,U1,21*%
X62400000Y-40900000D03*
%TO.P,U1,22*%
X63200000Y-40900000D03*
%TO.P,U1,23*%
X64000000Y-40900000D03*
%TO.P,U1,24*%
%TO.N,LED_R*%
X64800000Y-40900000D03*
D12*
%TO.P,U1,25*%
%TO.N,LED_G*%
X65900000Y-40000000D03*
%TO.P,U1,26*%
%TO.N,LED_B*%
X65900000Y-39200000D03*
%TO.P,U1,27*%
%TO.N,N/C*%
X65900000Y-38400000D03*
%TO.P,U1,28*%
X65900000Y-37600000D03*
%TO.P,U1,29*%
%TO.N,BUZZER_OUT*%
X65900000Y-36800000D03*
%TO.P,U1,30*%
%TO.N,N/C*%
X65900000Y-36000000D03*
%TO.P,U1,31*%
X65900000Y-35200000D03*
%TO.P,U1,32*%
X65900000Y-34400000D03*
%TO.P,U1,33*%
X65900000Y-33600000D03*
%TO.P,U1,34*%
X65900000Y-32800000D03*
%TO.P,U1,35*%
X65900000Y-32000000D03*
D13*
%TO.P,U1,36*%
%TO.N,GND*%
X64800000Y-31100000D03*
%TO.P,U1,37*%
X64000000Y-31100000D03*
%TO.P,U1,38*%
X63200000Y-31100000D03*
%TO.P,U1,39*%
X62400000Y-31100000D03*
%TO.P,U1,40*%
X61600000Y-31100000D03*
%TO.P,U1,41*%
X60800000Y-31100000D03*
%TO.P,U1,42*%
X60000000Y-31100000D03*
%TO.P,U1,43*%
X59200000Y-31100000D03*
%TO.P,U1,44*%
X58400000Y-31100000D03*
%TO.P,U1,45*%
X57600000Y-31100000D03*
%TO.P,U1,46*%
X56800000Y-31100000D03*
%TO.P,U1,47*%
X56000000Y-31100000D03*
%TO.P,U1,48*%
X55200000Y-31100000D03*
D14*
%TO.P,U1,49*%
X58025000Y-34025000D03*
D15*
X58025000Y-36000000D03*
X58025000Y-37975000D03*
X60000000Y-34025000D03*
X60000000Y-36000000D03*
X60000000Y-37975000D03*
X61975000Y-34025000D03*
X61975000Y-36000000D03*
X61975000Y-37975000D03*
D16*
%TO.P,U1,50*%
X65950000Y-31050000D03*
%TO.P,U1,51*%
X65950000Y-40950000D03*
%TO.P,U1,52*%
X54050000Y-40950000D03*
%TO.P,U1,53*%
X54050000Y-31050000D03*
%TD*%
D17*
%TO.P,R4,1*%
%TO.N,LED_R*%
X17175000Y-22000000D03*
%TO.P,R4,2*%
%TO.N,LED_R_ANODE*%
X18825000Y-22000000D03*
%TD*%
D18*
%TO.P,TP2,1*%
%TO.N,GND*%
X80000000Y-42000000D03*
%TD*%
D17*
%TO.P,R5,1*%
%TO.N,LED_G*%
X24175000Y-22000000D03*
%TO.P,R5,2*%
%TO.N,LED_G_ANODE*%
X25825000Y-22000000D03*
%TD*%
D19*
%TO.P,D3,1*%
%TO.N,GND*%
X24062500Y-16000000D03*
%TO.P,D3,2*%
%TO.N,LED_G_ANODE*%
X25937500Y-16000000D03*
%TD*%
D20*
%TO.P,BZ1,1*%
%TO.N,BUZZER_OUT*%
X84000000Y-36000000D03*
D21*
%TO.P,BZ1,2*%
%TO.N,GND*%
X91600000Y-36000000D03*
%TD*%
D18*
%TO.P,TP1,1*%
%TO.N,3V3*%
X75000000Y-42000000D03*
%TD*%
%TO.P,TP4,1*%
%TO.N,EN*%
X75000000Y-50000000D03*
%TD*%
D17*
%TO.P,R1,1*%
%TO.N,USB_CC1*%
X33175000Y-45000000D03*
%TO.P,R1,2*%
%TO.N,GND*%
X34825000Y-45000000D03*
%TD*%
%TO.P,R2,1*%
%TO.N,USB_CC2*%
X33175000Y-48000000D03*
%TO.P,R2,2*%
%TO.N,GND*%
X34825000Y-48000000D03*
%TD*%
D18*
%TO.P,TP3,1*%
%TO.N,SENSOR_UART_RX*%
X90000000Y-44000000D03*
%TD*%
D22*
%TO.P,J1,A1*%
%TO.N,GND*%
X29200000Y-57680000D03*
%TO.P,J1,A4*%
%TO.N,VBUS_USB*%
X28400000Y-57680000D03*
D23*
%TO.P,J1,A5*%
%TO.N,USB_CC1*%
X27250000Y-57680000D03*
%TO.P,J1,A6*%
%TO.N,N/C*%
X26250000Y-57680000D03*
%TO.P,J1,A7*%
X25750000Y-57680000D03*
%TO.P,J1,A8*%
X24750000Y-57680000D03*
D22*
%TO.P,J1,A9*%
%TO.N,VBUS_USB*%
X23600000Y-57680000D03*
%TO.P,J1,A12*%
%TO.N,GND*%
X22800000Y-57680000D03*
%TO.P,J1,B1*%
X22800000Y-57680000D03*
%TO.P,J1,B4*%
%TO.N,VBUS_USB*%
X23600000Y-57680000D03*
D23*
%TO.P,J1,B5*%
%TO.N,USB_CC2*%
X24250000Y-57680000D03*
%TO.P,J1,B6*%
%TO.N,N/C*%
X25250000Y-57680000D03*
%TO.P,J1,B7*%
X26750000Y-57680000D03*
%TO.P,J1,B8*%
X27750000Y-57680000D03*
D22*
%TO.P,J1,B9*%
%TO.N,VBUS_USB*%
X28400000Y-57680000D03*
%TO.P,J1,B12*%
%TO.N,GND*%
X29200000Y-57680000D03*
D24*
%TO.P,J1,SH*%
%TO.N,N/C*%
X30320000Y-57105000D03*
D25*
X30320000Y-52925000D03*
D24*
X21680000Y-57105000D03*
D25*
X21680000Y-52925000D03*
%TD*%
D19*
%TO.P,D4,1*%
%TO.N,GND*%
X31062500Y-16000000D03*
%TO.P,D4,2*%
%TO.N,LED_B_ANODE*%
X32937500Y-16000000D03*
%TD*%
D18*
%TO.P,TP5,1*%
%TO.N,BOOT_IO0*%
X70000000Y-47000000D03*
%TD*%
D26*
%TO.P,C1,1*%
%TO.N,5V_PROTECTED*%
X51050000Y-50000000D03*
%TO.P,C1,2*%
%TO.N,GND*%
X52950000Y-50000000D03*
%TD*%
D27*
%TO.P,J2,1*%
%TO.N,3V3*%
X13000000Y-42000000D03*
D28*
%TO.P,J2,2*%
%TO.N,GND*%
X15000000Y-42000000D03*
%TO.P,J2,3*%
%TO.N,SENSOR_UART_RX*%
X17000000Y-42000000D03*
%TO.P,J2,4*%
%TO.N,SENSOR_RX_PULLUP*%
X19000000Y-42000000D03*
%TD*%
D26*
%TO.P,C2,1*%
%TO.N,3V3*%
X67050000Y-52000000D03*
%TO.P,C2,2*%
%TO.N,GND*%
X68950000Y-52000000D03*
%TD*%
D19*
%TO.P,D2,1*%
%TO.N,GND*%
X17062500Y-16000000D03*
%TO.P,D2,2*%
%TO.N,LED_R_ANODE*%
X18937500Y-16000000D03*
%TD*%
D29*
%TO.P,U2,1*%
%TO.N,5V_PROTECTED*%
X58862500Y-51050000D03*
%TO.P,U2,2*%
%TO.N,GND*%
X58862500Y-52000000D03*
%TO.P,U2,3*%
%TO.N,N/C*%
X58862500Y-52950000D03*
%TO.P,U2,4*%
X61137500Y-52950000D03*
%TO.P,U2,5*%
%TO.N,3V3*%
X61137500Y-51050000D03*
%TD*%
D17*
%TO.P,R6,1*%
%TO.N,LED_B*%
X31175000Y-22000000D03*
%TO.P,R6,2*%
%TO.N,LED_B_ANODE*%
X32825000Y-22000000D03*
%TD*%
D30*
%TO.P,D1,1*%
%TO.N,VBUS_USB*%
X44950000Y-50000000D03*
%TO.P,D1,2*%
%TO.N,GND*%
X47050000Y-50000000D03*
%TD*%
D17*
%TO.P,R3,1*%
%TO.N,3V3*%
X23175000Y-45000000D03*
%TO.P,R3,2*%
%TO.N,SENSOR_UART_RX*%
X24825000Y-45000000D03*
%TD*%
D31*
%TO.P,F1,1*%
%TO.N,VBUS_USB*%
X38600000Y-50000000D03*
%TO.P,F1,2*%
%TO.N,5V_PROTECTED*%
X41400000Y-50000000D03*
%TD*%
D32*
%TO.N,3V3*%
X55985100Y-33600000D03*
%TO.N,LED_R*%
X55212400Y-39557700D03*
%TO.N,LED_G*%
X52593600Y-31999900D03*
X55427100Y-32100000D03*
%TO.N,LED_B*%
X64984100Y-38954500D03*
X30265100Y-22168000D03*
%TO.N,GND*%
X20672600Y-42765700D03*
X19975500Y-58566000D03*
X18004500Y-16837700D03*
%TO.N,EN*%
X55900000Y-37368400D03*
%TO.N,SENSOR_UART_RX*%
X62932400Y-39196300D03*
%TD*%
%TO.N,3V3*%
D33*
X54100000Y-33600000D02*
X55985100Y-33600000D01*
X23175000Y-45000000D02*
X16000000Y-45000000D01*
X66770700Y-51720700D02*
X67050000Y-52000000D01*
X75000000Y-43491400D02*
X66770700Y-51720700D01*
X66100000Y-51050000D02*
X66770700Y-51720700D01*
X21400000Y-33600000D02*
X54100000Y-33600000D01*
X16000000Y-45000000D02*
X13000000Y-42000000D01*
X75000000Y-42000000D02*
X75000000Y-43491400D01*
X61137500Y-51050000D02*
X66100000Y-51050000D01*
X13000000Y-42000000D02*
X21400000Y-33600000D01*
%TO.N,LED_R*%
X64800000Y-40900000D02*
X64800000Y-40198300D01*
X55252700Y-39598000D02*
X55212400Y-39557700D01*
X60638400Y-40198300D02*
X60038100Y-39598000D01*
X60038100Y-39598000D02*
X55252700Y-39598000D01*
X17175000Y-22000000D02*
X11776700Y-22000000D01*
X10000000Y-22500000D02*
X11276700Y-22500000D01*
X11776700Y-22000000D02*
X11276700Y-22500000D01*
X64800000Y-40198300D02*
X60638400Y-40198300D01*
%TO.N,LED_G*%
X64160500Y-38982200D02*
X64160500Y-34267000D01*
X18000000Y-22410200D02*
X18000000Y-21607700D01*
X34174900Y-31999900D02*
X24175000Y-22000000D01*
X16392300Y-20000000D02*
X10000000Y-20000000D01*
X52593600Y-31999900D02*
X34174900Y-31999900D01*
X64160500Y-34267000D02*
X61993500Y-32100000D01*
X23357600Y-22817400D02*
X18407200Y-22817400D01*
X65178300Y-40000000D02*
X64160500Y-38982200D01*
X18407200Y-22817400D02*
X18000000Y-22410200D01*
X61993500Y-32100000D02*
X55427100Y-32100000D01*
X24175000Y-22000000D02*
X23357600Y-22817400D01*
X18000000Y-21607700D02*
X16392300Y-20000000D01*
X65900000Y-40000000D02*
X65178300Y-40000000D01*
%TO.N,LED_B*%
X31007000Y-22168000D02*
X31175000Y-22000000D01*
X30265100Y-22168000D02*
X31007000Y-22168000D01*
X65900000Y-39200000D02*
X65198300Y-39200000D01*
X65198300Y-39168700D02*
X64984100Y-38954500D01*
X65198300Y-39200000D02*
X65198300Y-39168700D01*
%TO.N,GND*%
X58025000Y-34025000D02*
X56998300Y-34025000D01*
X61600000Y-31100000D02*
X62400000Y-31100000D01*
X59200000Y-31100000D02*
X60000000Y-31100000D01*
X57600000Y-31100000D02*
X58400000Y-31100000D01*
X17062500Y-16000000D02*
X18120700Y-14941800D01*
X59125600Y-50000000D02*
X59847200Y-50721600D01*
X61975000Y-37975000D02*
X60000000Y-37975000D01*
X60800000Y-31100000D02*
X61600000Y-31100000D01*
X54100000Y-32800000D02*
X54801700Y-32800000D01*
X86650000Y-31050000D02*
X65950000Y-31050000D01*
X30622300Y-58493700D02*
X30013700Y-58493700D01*
X17062500Y-16000000D02*
X17166800Y-16000000D01*
X18120700Y-14941800D02*
X23004300Y-14941800D01*
X65950000Y-40950000D02*
X66601700Y-40950000D01*
X64000000Y-31100000D02*
X64800000Y-31100000D01*
X17166800Y-16000000D02*
X18004500Y-16837700D01*
X60000000Y-31100000D02*
X60800000Y-31100000D01*
X54100000Y-31100000D02*
X55200000Y-31100000D01*
X56800000Y-40900000D02*
X56800000Y-41601700D01*
X61975000Y-36000000D02*
X60000000Y-36000000D01*
X78893800Y-40893800D02*
X66657900Y-40893800D01*
X60000000Y-37975000D02*
X59012500Y-37975000D01*
X23004300Y-14941800D02*
X24062500Y-16000000D01*
X30013700Y-58493700D02*
X29200000Y-57680000D01*
X34825000Y-48000000D02*
X34825000Y-54291000D01*
X63200000Y-31100000D02*
X64000000Y-31100000D01*
X48082700Y-48967300D02*
X51917300Y-48967300D01*
X58025000Y-36000000D02*
X58025000Y-34025000D01*
X56800000Y-41601700D02*
X65298300Y-41601700D01*
X21914000Y-58566000D02*
X22800000Y-57680000D01*
X60000000Y-36000000D02*
X59012500Y-36000000D01*
X56800000Y-40900000D02*
X56800000Y-40198300D01*
X55000000Y-40198300D02*
X56800000Y-40198300D01*
X54100000Y-40000000D02*
X54801700Y-40000000D01*
X65298300Y-41601700D02*
X65950000Y-40950000D01*
X59012500Y-36000000D02*
X58025000Y-36000000D01*
X56041000Y-32800000D02*
X54801700Y-32800000D01*
X63036400Y-52000000D02*
X58862500Y-52000000D01*
X54050000Y-31050000D02*
X54100000Y-31100000D01*
X34825000Y-48000000D02*
X34825000Y-45000000D01*
X62400000Y-31100000D02*
X63200000Y-31100000D01*
X66657900Y-40893800D02*
X66601700Y-40950000D01*
X56998300Y-34025000D02*
X56998300Y-33757300D01*
X59847200Y-51409400D02*
X59256600Y-52000000D01*
X19975500Y-58566000D02*
X21914000Y-58566000D01*
X91600000Y-36000000D02*
X86650000Y-31050000D01*
X56998300Y-33757300D02*
X56041000Y-32800000D01*
X47050000Y-50000000D02*
X48082700Y-48967300D01*
X46348300Y-48000000D02*
X46348300Y-49298300D01*
X54801700Y-32800000D02*
X54801700Y-32000000D01*
X54100000Y-31100000D02*
X54100000Y-32000000D01*
X58400000Y-31100000D02*
X59200000Y-31100000D01*
X55200000Y-31100000D02*
X56000000Y-31100000D01*
X67880000Y-53070000D02*
X64106400Y-53070000D01*
X54050000Y-40950000D02*
X53398300Y-40950000D01*
X54801700Y-40000000D02*
X55000000Y-40198300D01*
X46348300Y-49298300D02*
X47050000Y-50000000D01*
X54100000Y-40248300D02*
X54100000Y-40000000D01*
X46348300Y-48000000D02*
X53398300Y-40950000D01*
X20672600Y-42765700D02*
X32590700Y-42765700D01*
X30059900Y-14997400D02*
X25065100Y-14997400D01*
X56000000Y-31100000D02*
X56800000Y-31100000D01*
X32590700Y-42765700D02*
X34825000Y-45000000D01*
X65950000Y-31050000D02*
X64850000Y-31050000D01*
X56800000Y-31100000D02*
X57600000Y-31100000D01*
X80000000Y-42000000D02*
X78893800Y-40893800D01*
X64850000Y-31050000D02*
X64800000Y-31100000D01*
X34825000Y-54291000D02*
X30622300Y-58493700D01*
X59847200Y-50721600D02*
X59847200Y-51409400D01*
X54050000Y-40950000D02*
X54050000Y-40298300D01*
X64106400Y-53070000D02*
X63036400Y-52000000D01*
X68950000Y-52000000D02*
X67880000Y-53070000D01*
X25065100Y-14997400D02*
X24062500Y-16000000D01*
X31062500Y-16000000D02*
X30059900Y-14997400D01*
X54050000Y-40298300D02*
X54100000Y-40248300D01*
X51917300Y-48967300D02*
X52950000Y-50000000D01*
X60000000Y-34025000D02*
X58025000Y-34025000D01*
X52950000Y-50000000D02*
X59125600Y-50000000D01*
X59012500Y-37975000D02*
X59012500Y-36000000D01*
X59012500Y-37975000D02*
X58025000Y-37975000D01*
X54100000Y-32000000D02*
X54801700Y-32000000D01*
X61975000Y-34025000D02*
X60000000Y-34025000D01*
X59256600Y-52000000D02*
X58862500Y-52000000D01*
X34825000Y-48000000D02*
X46348300Y-48000000D01*
%TO.N,EN*%
X54100000Y-37600000D02*
X54801700Y-37600000D01*
X55033300Y-37368400D02*
X54801700Y-37600000D01*
X55900000Y-37368400D02*
X55033300Y-37368400D01*
%TO.N,SENSOR_UART_RX*%
X17901700Y-42563600D02*
X18705500Y-43367400D01*
X17000000Y-42000000D02*
X17901700Y-42000000D01*
X17901700Y-41504900D02*
X21006600Y-38400000D01*
X21006600Y-38400000D02*
X54100000Y-38400000D01*
X55946000Y-38400000D02*
X54100000Y-38400000D01*
X17901700Y-42000000D02*
X17901700Y-42563600D01*
X56742300Y-39196300D02*
X55946000Y-38400000D01*
X17901700Y-42000000D02*
X17901700Y-41504900D01*
X23192400Y-43367400D02*
X24825000Y-45000000D01*
X62932400Y-39196300D02*
X56742300Y-39196300D01*
X18705500Y-43367400D02*
X23192400Y-43367400D01*
%TO.N,SENSOR_RX_PULLUP*%
X22701700Y-39200000D02*
X54100000Y-39200000D01*
X19000000Y-42000000D02*
X19901700Y-42000000D01*
X19901700Y-42000000D02*
X22701700Y-39200000D01*
%TO.N,BOOT_IO0*%
X55200000Y-40900000D02*
X55200000Y-41601700D01*
X55200000Y-41601700D02*
X60598300Y-47000000D01*
D34*
X55200000Y-40900000D02*
X55200000Y-44500000D01*
X55200000Y-44500000D02*
X57700000Y-47000000D01*
D33*
X60598300Y-47000000D02*
X70000000Y-47000000D01*
D34*
X57700000Y-47000000D02*
X70000000Y-47000000D01*
%TO.N,BUZZER_OUT*%
D33*
X82698300Y-36000000D02*
X81898300Y-36800000D01*
X84000000Y-36000000D02*
X82698300Y-36000000D01*
X81898300Y-36800000D02*
X65900000Y-36800000D01*
%TO.N,LED_R_ANODE*%
X18825000Y-22000000D02*
X18937500Y-21887500D01*
X18937500Y-21887500D02*
X18937500Y-16000000D01*
%TO.N,LED_G_ANODE*%
X31909500Y-21466300D02*
X31909500Y-22517100D01*
X26443200Y-16000000D02*
X31909500Y-21466300D01*
X31637900Y-22788700D02*
X26613700Y-22788700D01*
X26613700Y-22788700D02*
X25825000Y-22000000D01*
X31909500Y-22517100D02*
X31637900Y-22788700D01*
X25937500Y-16000000D02*
X26443200Y-16000000D01*
%TO.N,USB_CC1*%
X27250000Y-57680000D02*
X27250000Y-57062100D01*
X29372100Y-54940000D02*
X29918400Y-54940000D01*
X27250000Y-57062100D02*
X29372100Y-54940000D01*
X33919400Y-45744400D02*
X33175000Y-45000000D01*
X33919400Y-50939000D02*
X33919400Y-45744400D01*
X29918400Y-54940000D02*
X33919400Y-50939000D01*
%TO.N,USB_CC2*%
X24250000Y-56925000D02*
X33175000Y-48000000D01*
X24250000Y-57680000D02*
X24250000Y-56925000D01*
%TO.N,VBUS_USB*%
X39816400Y-48783600D02*
X43733600Y-48783600D01*
X38600000Y-50000000D02*
X39816400Y-48783600D01*
X38600000Y-51094300D02*
X30753600Y-58940700D01*
X23600000Y-58138100D02*
X23600000Y-57680000D01*
X27985000Y-58589000D02*
X24050900Y-58589000D01*
X38600000Y-50000000D02*
X38600000Y-51094300D01*
X43733600Y-48783600D02*
X44950000Y-50000000D01*
X28400000Y-58174000D02*
X27985000Y-58589000D01*
X24050900Y-58589000D02*
X23600000Y-58138100D01*
X29166700Y-58940700D02*
X28400000Y-58174000D01*
X30753600Y-58940700D02*
X29166700Y-58940700D01*
X28400000Y-57680000D02*
X28400000Y-58174000D01*
%TO.N,LED_B_ANODE*%
X32937500Y-16000000D02*
X32825000Y-16112500D01*
X32825000Y-16112500D02*
X32825000Y-22000000D01*
%TO.N,5V_PROTECTED*%
X58862500Y-51050000D02*
X52100000Y-51050000D01*
X52100000Y-51050000D02*
X51050000Y-50000000D01*
X50513100Y-50536900D02*
X51050000Y-50000000D01*
X41936900Y-50536900D02*
X50513100Y-50536900D01*
X41400000Y-50000000D02*
X41936900Y-50536900D01*
%TD*%
%TA.AperFunction,Conductor*%
%TO.N,GND*%
G36*
X95443039Y-4519685D02*
G01*
X95488794Y-4572489D01*
X95500000Y-4624000D01*
X95500000Y-59376000D01*
X95480315Y-59443039D01*
X95427511Y-59488794D01*
X95376000Y-59500000D01*
X31048639Y-59500000D01*
X30981600Y-59480315D01*
X30935845Y-59427511D01*
X30925901Y-59358353D01*
X30954926Y-59294797D01*
X30986636Y-59268614D01*
X30999513Y-59261180D01*
X35359116Y-54901577D01*
X89749500Y-54901577D01*
X89749500Y-55098422D01*
X89780290Y-55292826D01*
X89841117Y-55480029D01*
X89930476Y-55655405D01*
X90046172Y-55814646D01*
X90185354Y-55953828D01*
X90344595Y-56069524D01*
X90415583Y-56105694D01*
X90519970Y-56158882D01*
X90519972Y-56158882D01*
X90519975Y-56158884D01*
X90572120Y-56175827D01*
X90707173Y-56219709D01*
X90901578Y-56250500D01*
X90901583Y-56250500D01*
X91098422Y-56250500D01*
X91292826Y-56219709D01*
X91480025Y-56158884D01*
X91655405Y-56069524D01*
X91814646Y-55953828D01*
X91953828Y-55814646D01*
X92069524Y-55655405D01*
X92158884Y-55480025D01*
X92219709Y-55292826D01*
X92224833Y-55260477D01*
X92250500Y-55098422D01*
X92250500Y-54901577D01*
X92219709Y-54707173D01*
X92165228Y-54539500D01*
X92158884Y-54519975D01*
X92158882Y-54519972D01*
X92158882Y-54519970D01*
X92069523Y-54344594D01*
X91953828Y-54185354D01*
X91814646Y-54046172D01*
X91655405Y-53930476D01*
X91480029Y-53841117D01*
X91292826Y-53780290D01*
X91098422Y-53749500D01*
X91098417Y-53749500D01*
X90901583Y-53749500D01*
X90901578Y-53749500D01*
X90707173Y-53780290D01*
X90519970Y-53841117D01*
X90344594Y-53930476D01*
X90253741Y-53996485D01*
X90185354Y-54046172D01*
X90185352Y-54046174D01*
X90185351Y-54046174D01*
X90046174Y-54185351D01*
X90046174Y-54185352D01*
X90046172Y-54185354D01*
X90010831Y-54233996D01*
X89930476Y-54344594D01*
X89841117Y-54519970D01*
X89780290Y-54707173D01*
X89749500Y-54901577D01*
X35359116Y-54901577D01*
X38010692Y-52250001D01*
X57702704Y-52250001D01*
X57702899Y-52252486D01*
X57748718Y-52410198D01*
X57832314Y-52551552D01*
X57832321Y-52551561D01*
X57871549Y-52590788D01*
X57905035Y-52652111D01*
X57901648Y-52707424D01*
X57903964Y-52707930D01*
X57902353Y-52715305D01*
X57899500Y-52745730D01*
X57899500Y-53154269D01*
X57902353Y-53184699D01*
X57902353Y-53184701D01*
X57947206Y-53312880D01*
X57947207Y-53312882D01*
X58027850Y-53422150D01*
X58137118Y-53502793D01*
X58179845Y-53517744D01*
X58265299Y-53547646D01*
X58295730Y-53550500D01*
X58295734Y-53550500D01*
X59429270Y-53550500D01*
X59459699Y-53547646D01*
X59459701Y-53547646D01*
X59523790Y-53525219D01*
X59587882Y-53502793D01*
X59697150Y-53422150D01*
X59777793Y-53312882D01*
X59800219Y-53248790D01*
X59822646Y-53184701D01*
X59822646Y-53184699D01*
X59825500Y-53154269D01*
X59825500Y-52750865D01*
X59825500Y-52745734D01*
X59825500Y-52745730D01*
X60174500Y-52745730D01*
X60174500Y-53154269D01*
X60177353Y-53184699D01*
X60177353Y-53184701D01*
X60222206Y-53312880D01*
X60222207Y-53312882D01*
X60302850Y-53422150D01*
X60412118Y-53502793D01*
X60454845Y-53517744D01*
X60540299Y-53547646D01*
X60570730Y-53550500D01*
X60570734Y-53550500D01*
X61704270Y-53550500D01*
X61734699Y-53547646D01*
X61734701Y-53547646D01*
X61798790Y-53525219D01*
X61862882Y-53502793D01*
X61972150Y-53422150D01*
X62052793Y-53312882D01*
X62075219Y-53248790D01*
X62097646Y-53184701D01*
X62097646Y-53184699D01*
X62100500Y-53154269D01*
X62100500Y-52745730D01*
X62097646Y-52715300D01*
X62097646Y-52715298D01*
X62052793Y-52587119D01*
X62052792Y-52587117D01*
X61972150Y-52477850D01*
X61862882Y-52397207D01*
X61862880Y-52397206D01*
X61734700Y-52352353D01*
X61704270Y-52349500D01*
X61704266Y-52349500D01*
X60570734Y-52349500D01*
X60570730Y-52349500D01*
X60540300Y-52352353D01*
X60540298Y-52352353D01*
X60412119Y-52397206D01*
X60412117Y-52397207D01*
X60302850Y-52477850D01*
X60222207Y-52587117D01*
X60222206Y-52587119D01*
X60177353Y-52715298D01*
X60177353Y-52715300D01*
X60174500Y-52745730D01*
X59825500Y-52745730D01*
X59822646Y-52715301D01*
X59819827Y-52707247D01*
X59818165Y-52694460D01*
X59821675Y-52672181D01*
X59820524Y-52649657D01*
X59827069Y-52637954D01*
X59829041Y-52625442D01*
X59842559Y-52610259D01*
X59853450Y-52590788D01*
X59892680Y-52551558D01*
X59892686Y-52551550D01*
X59976281Y-52410198D01*
X60022100Y-52252486D01*
X60022295Y-52250001D01*
X60022295Y-52250000D01*
X57702705Y-52250000D01*
X57702704Y-52250001D01*
X38010692Y-52250001D01*
X38920480Y-51340213D01*
X38973207Y-51248888D01*
X38973208Y-51248885D01*
X38975086Y-51244352D01*
X39018924Y-51189946D01*
X39074864Y-51168683D01*
X39106564Y-51164877D01*
X39247342Y-51109361D01*
X39367922Y-51017922D01*
X39459361Y-50897342D01*
X39514877Y-50756564D01*
X39525500Y-50668102D01*
X39525500Y-49692255D01*
X39545185Y-49625216D01*
X39561819Y-49604574D01*
X39945974Y-49220419D01*
X40007297Y-49186934D01*
X40033655Y-49184100D01*
X40352467Y-49184100D01*
X40419506Y-49203785D01*
X40465261Y-49256589D01*
X40475582Y-49322880D01*
X40474500Y-49331898D01*
X40474500Y-50668102D01*
X40476784Y-50687118D01*
X40485122Y-50756561D01*
X40540639Y-50897343D01*
X40632077Y-51017922D01*
X40752656Y-51109360D01*
X40752657Y-51109360D01*
X40752658Y-51109361D01*
X40893436Y-51164877D01*
X40981898Y-51175500D01*
X40981903Y-51175500D01*
X41818097Y-51175500D01*
X41818102Y-51175500D01*
X41906564Y-51164877D01*
X42047342Y-51109361D01*
X42167922Y-51017922D01*
X42173832Y-51010129D01*
X42191769Y-50986476D01*
X42247961Y-50944952D01*
X42290573Y-50937400D01*
X50456999Y-50937400D01*
X50519893Y-50955867D01*
X50520266Y-50955205D01*
X50523141Y-50956821D01*
X50524038Y-50957085D01*
X50525802Y-50958318D01*
X50527654Y-50959359D01*
X50527656Y-50959360D01*
X50527658Y-50959361D01*
X50668436Y-51014877D01*
X50756898Y-51025500D01*
X50756903Y-51025500D01*
X51343103Y-51025500D01*
X51431464Y-51014889D01*
X51500373Y-51026440D01*
X51533930Y-51050323D01*
X51854087Y-51370480D01*
X51945412Y-51423207D01*
X52047273Y-51450500D01*
X52152727Y-51450500D01*
X57624037Y-51450500D01*
X57691076Y-51470185D01*
X57736831Y-51522989D01*
X57746775Y-51592147D01*
X57743113Y-51609095D01*
X57702900Y-51747505D01*
X57702899Y-51747511D01*
X57702704Y-51749998D01*
X57702705Y-51750000D01*
X60022295Y-51750000D01*
X60022295Y-51749998D01*
X60022100Y-51747513D01*
X59976281Y-51589801D01*
X59892685Y-51448447D01*
X59892678Y-51448438D01*
X59853450Y-51409211D01*
X59819964Y-51347888D01*
X59823358Y-51292575D01*
X59821036Y-51292068D01*
X59822647Y-51284693D01*
X59825500Y-51254269D01*
X59825500Y-50845730D01*
X59822646Y-50815300D01*
X59822646Y-50815298D01*
X59777793Y-50687119D01*
X59777792Y-50687117D01*
X59764906Y-50669657D01*
X59697150Y-50577850D01*
X59587882Y-50497207D01*
X59587880Y-50497206D01*
X59459700Y-50452353D01*
X59429270Y-50449500D01*
X59429266Y-50449500D01*
X58295734Y-50449500D01*
X58295730Y-50449500D01*
X58265300Y-50452353D01*
X58265298Y-50452353D01*
X58137119Y-50497206D01*
X58137117Y-50497207D01*
X58027850Y-50577850D01*
X58012142Y-50599134D01*
X57956494Y-50641385D01*
X57912372Y-50649500D01*
X54074000Y-50649500D01*
X54006961Y-50629815D01*
X53961206Y-50577011D01*
X53950000Y-50525500D01*
X53950000Y-50250000D01*
X53074000Y-50250000D01*
X53006961Y-50230315D01*
X52961206Y-50177511D01*
X52950000Y-50126000D01*
X52950000Y-50000000D01*
X52824000Y-50000000D01*
X52756961Y-49980315D01*
X52711206Y-49927511D01*
X52700000Y-49876000D01*
X52700000Y-49750000D01*
X53200000Y-49750000D01*
X53949999Y-49750000D01*
X53949999Y-49475028D01*
X53949998Y-49475013D01*
X53939505Y-49372302D01*
X53884358Y-49205880D01*
X53884356Y-49205875D01*
X53792315Y-49056654D01*
X53668345Y-48932684D01*
X53519124Y-48840643D01*
X53519119Y-48840641D01*
X53352697Y-48785494D01*
X53352690Y-48785493D01*
X53249986Y-48775000D01*
X53200000Y-48775000D01*
X53200000Y-49750000D01*
X52700000Y-49750000D01*
X52700000Y-48775000D01*
X52699999Y-48774999D01*
X52650029Y-48775000D01*
X52650011Y-48775001D01*
X52547302Y-48785494D01*
X52380880Y-48840641D01*
X52380875Y-48840643D01*
X52231654Y-48932684D01*
X52107684Y-49056654D01*
X52015643Y-49205875D01*
X52015640Y-49205884D01*
X52008391Y-49227759D01*
X51968618Y-49285203D01*
X51904102Y-49312025D01*
X51835326Y-49299709D01*
X51790834Y-49258393D01*
X51789486Y-49259416D01*
X51692922Y-49132077D01*
X51572343Y-49040639D01*
X51431561Y-48985122D01*
X51385926Y-48979642D01*
X51343102Y-48974500D01*
X50756898Y-48974500D01*
X50717853Y-48979188D01*
X50668438Y-48985122D01*
X50527656Y-49040639D01*
X50407077Y-49132077D01*
X50315639Y-49252656D01*
X50260122Y-49393438D01*
X50259372Y-49399688D01*
X50249500Y-49481898D01*
X50249500Y-49481903D01*
X50249500Y-50012400D01*
X50229815Y-50079439D01*
X50177011Y-50125194D01*
X50125500Y-50136400D01*
X45674500Y-50136400D01*
X45607461Y-50116715D01*
X45561706Y-50063911D01*
X45550500Y-50012401D01*
X45550499Y-49854993D01*
X45544846Y-49819306D01*
X45544845Y-49819301D01*
X45537829Y-49775000D01*
X45537829Y-49774998D01*
X46257358Y-49774998D01*
X46257360Y-49775000D01*
X46825000Y-49775000D01*
X47275000Y-49775000D01*
X47842640Y-49775000D01*
X47842641Y-49774998D01*
X47804093Y-49642318D01*
X47804092Y-49642315D01*
X47725317Y-49509114D01*
X47725311Y-49509105D01*
X47615894Y-49399688D01*
X47615885Y-49399682D01*
X47482684Y-49320907D01*
X47482681Y-49320906D01*
X47334084Y-49277734D01*
X47334073Y-49277732D01*
X47299359Y-49275000D01*
X47275000Y-49275000D01*
X47275000Y-49775000D01*
X46825000Y-49775000D01*
X46825000Y-49274999D01*
X46800647Y-49275000D01*
X46765921Y-49277733D01*
X46617318Y-49320906D01*
X46617315Y-49320907D01*
X46484114Y-49399682D01*
X46484105Y-49399688D01*
X46374688Y-49509105D01*
X46374682Y-49509114D01*
X46295907Y-49642315D01*
X46295906Y-49642318D01*
X46257358Y-49774998D01*
X45537829Y-49774998D01*
X45535182Y-49758285D01*
X45475789Y-49641719D01*
X45475785Y-49641715D01*
X45475784Y-49641713D01*
X45383286Y-49549215D01*
X45383282Y-49549212D01*
X45383281Y-49549211D01*
X45266715Y-49489818D01*
X45266714Y-49489817D01*
X45266711Y-49489816D01*
X45266712Y-49489816D01*
X45170003Y-49474500D01*
X45042255Y-49474500D01*
X44975216Y-49454815D01*
X44954574Y-49438181D01*
X43979515Y-48463122D01*
X43979513Y-48463120D01*
X43933850Y-48436756D01*
X43888189Y-48410393D01*
X43837257Y-48396746D01*
X43786327Y-48383100D01*
X39763673Y-48383100D01*
X39661813Y-48410393D01*
X39661810Y-48410394D01*
X39570490Y-48463117D01*
X39570485Y-48463121D01*
X39229731Y-48803874D01*
X39168408Y-48837359D01*
X39111658Y-48836411D01*
X39106562Y-48835122D01*
X39057146Y-48829188D01*
X39018102Y-48824500D01*
X38181898Y-48824500D01*
X38142853Y-48829188D01*
X38093438Y-48835122D01*
X37952656Y-48890639D01*
X37832077Y-48982077D01*
X37740639Y-49102656D01*
X37685122Y-49243438D01*
X37681004Y-49277733D01*
X37674500Y-49331898D01*
X37674500Y-50668102D01*
X37676784Y-50687118D01*
X37685122Y-50756561D01*
X37740639Y-50897343D01*
X37832077Y-51017922D01*
X37876816Y-51051848D01*
X37918339Y-51108040D01*
X37922891Y-51177761D01*
X37889572Y-51238333D01*
X31332181Y-57795725D01*
X31270858Y-57829210D01*
X31201166Y-57824226D01*
X31145233Y-57782354D01*
X31120816Y-57716890D01*
X31120500Y-57708044D01*
X31120500Y-56476155D01*
X31120499Y-56476153D01*
X31089737Y-56321503D01*
X31049560Y-56224506D01*
X31029397Y-56175827D01*
X31029390Y-56175814D01*
X30941789Y-56044711D01*
X30941786Y-56044707D01*
X30830292Y-55933213D01*
X30830288Y-55933210D01*
X30699185Y-55845609D01*
X30699172Y-55845602D01*
X30553501Y-55785264D01*
X30553489Y-55785261D01*
X30398845Y-55754500D01*
X30398842Y-55754500D01*
X30241158Y-55754500D01*
X30241155Y-55754500D01*
X30086510Y-55785261D01*
X30086498Y-55785264D01*
X29940827Y-55845602D01*
X29940814Y-55845609D01*
X29809711Y-55933210D01*
X29809707Y-55933213D01*
X29698213Y-56044707D01*
X29698210Y-56044711D01*
X29610609Y-56175814D01*
X29610602Y-56175827D01*
X29550264Y-56321498D01*
X29550262Y-56321505D01*
X29544100Y-56352483D01*
X29511714Y-56414393D01*
X29450997Y-56448966D01*
X29381228Y-56445225D01*
X29324557Y-56404357D01*
X29315096Y-56390289D01*
X29270495Y-56313036D01*
X29181964Y-56224505D01*
X29073536Y-56161905D01*
X29073537Y-56161905D01*
X29046523Y-56154666D01*
X28999471Y-56142059D01*
X28939813Y-56105694D01*
X28909284Y-56042847D01*
X28917579Y-55973472D01*
X28943883Y-55934607D01*
X29501673Y-55376819D01*
X29562996Y-55343334D01*
X29589354Y-55340500D01*
X29971125Y-55340500D01*
X29971127Y-55340500D01*
X30072988Y-55313207D01*
X30164313Y-55260480D01*
X34239880Y-51184913D01*
X34292606Y-51093588D01*
X34292607Y-51093587D01*
X34319900Y-50991727D01*
X34319900Y-49081646D01*
X34339585Y-49014607D01*
X34392389Y-48968852D01*
X34461547Y-48958908D01*
X34480790Y-48963261D01*
X34497894Y-48968590D01*
X34497893Y-48968590D01*
X34568408Y-48974998D01*
X34568426Y-48974999D01*
X35075000Y-48974999D01*
X35081581Y-48974999D01*
X35152102Y-48968591D01*
X35152107Y-48968590D01*
X35314396Y-48918018D01*
X35459877Y-48830072D01*
X35580072Y-48709877D01*
X35668019Y-48564395D01*
X35718590Y-48402106D01*
X35725000Y-48331572D01*
X35725000Y-48250000D01*
X35075000Y-48250000D01*
X35075000Y-48974999D01*
X34568426Y-48974999D01*
X34574999Y-48974998D01*
X34575000Y-48974998D01*
X34575000Y-47750000D01*
X35075000Y-47750000D01*
X35724999Y-47750000D01*
X35724999Y-47668417D01*
X35718591Y-47597897D01*
X35718590Y-47597892D01*
X35668018Y-47435603D01*
X35580072Y-47290122D01*
X35459877Y-47169927D01*
X35314395Y-47081980D01*
X35314396Y-47081980D01*
X35152105Y-47031409D01*
X35152106Y-47031409D01*
X35081572Y-47025000D01*
X35075000Y-47025000D01*
X35075000Y-47750000D01*
X34575000Y-47750000D01*
X34575000Y-47025000D01*
X34574999Y-47024999D01*
X34568436Y-47025000D01*
X34568417Y-47025001D01*
X34497897Y-47031408D01*
X34497888Y-47031409D01*
X34480790Y-47036738D01*
X34410930Y-47037889D01*
X34351537Y-47001088D01*
X34321469Y-46938020D01*
X34319900Y-46918353D01*
X34319900Y-46081646D01*
X34339585Y-46014607D01*
X34392389Y-45968852D01*
X34461547Y-45958908D01*
X34480790Y-45963261D01*
X34497894Y-45968590D01*
X34497893Y-45968590D01*
X34568408Y-45974998D01*
X34568426Y-45974999D01*
X35075000Y-45974999D01*
X35081581Y-45974999D01*
X35152102Y-45968591D01*
X35152107Y-45968590D01*
X35314396Y-45918018D01*
X35459877Y-45830072D01*
X35580072Y-45709877D01*
X35668019Y-45564395D01*
X35718590Y-45402106D01*
X35725000Y-45331572D01*
X35725000Y-45250000D01*
X35075000Y-45250000D01*
X35075000Y-45974999D01*
X34568426Y-45974999D01*
X34574999Y-45974998D01*
X34575000Y-45974998D01*
X34575000Y-44750000D01*
X35075000Y-44750000D01*
X35724999Y-44750000D01*
X35724999Y-44668417D01*
X35718591Y-44597897D01*
X35718590Y-44597892D01*
X35668018Y-44435603D01*
X35580072Y-44290122D01*
X35459877Y-44169927D01*
X35314395Y-44081980D01*
X35314396Y-44081980D01*
X35152105Y-44031409D01*
X35152106Y-44031409D01*
X35081572Y-44025000D01*
X35075000Y-44025000D01*
X35075000Y-44750000D01*
X34575000Y-44750000D01*
X34575000Y-44025000D01*
X34574999Y-44024999D01*
X34568436Y-44025000D01*
X34568417Y-44025001D01*
X34497897Y-44031408D01*
X34497892Y-44031409D01*
X34335603Y-44081981D01*
X34190122Y-44169927D01*
X34069927Y-44290122D01*
X33988491Y-44424834D01*
X33936963Y-44472022D01*
X33868103Y-44483860D01*
X33803775Y-44456591D01*
X33783108Y-44434995D01*
X33732547Y-44367455D01*
X33732544Y-44367452D01*
X33617335Y-44281206D01*
X33617328Y-44281202D01*
X33482486Y-44230910D01*
X33482485Y-44230909D01*
X33482483Y-44230909D01*
X33422873Y-44224500D01*
X33422863Y-44224500D01*
X32927129Y-44224500D01*
X32927123Y-44224501D01*
X32867516Y-44230908D01*
X32732671Y-44281202D01*
X32732664Y-44281206D01*
X32617455Y-44367452D01*
X32617452Y-44367455D01*
X32531206Y-44482664D01*
X32531202Y-44482671D01*
X32480910Y-44617513D01*
X32480909Y-44617517D01*
X32474500Y-44677127D01*
X32474500Y-44677134D01*
X32474500Y-44677135D01*
X32474500Y-45322870D01*
X32474501Y-45322876D01*
X32480908Y-45382483D01*
X32531202Y-45517328D01*
X32531206Y-45517335D01*
X32617452Y-45632544D01*
X32617455Y-45632547D01*
X32732664Y-45718793D01*
X32732671Y-45718797D01*
X32777618Y-45735561D01*
X32867517Y-45769091D01*
X32927127Y-45775500D01*
X33332743Y-45775499D01*
X33362185Y-45784143D01*
X33392169Y-45790666D01*
X33397184Y-45794420D01*
X33399782Y-45795183D01*
X33420424Y-45811817D01*
X33482581Y-45873973D01*
X33516066Y-45935296D01*
X33518900Y-45961655D01*
X33518900Y-47100500D01*
X33499215Y-47167539D01*
X33446411Y-47213294D01*
X33394900Y-47224500D01*
X32927129Y-47224500D01*
X32927123Y-47224501D01*
X32867516Y-47230908D01*
X32732671Y-47281202D01*
X32732664Y-47281206D01*
X32617455Y-47367452D01*
X32617452Y-47367455D01*
X32531206Y-47482664D01*
X32531202Y-47482671D01*
X32480908Y-47617517D01*
X32474501Y-47677116D01*
X32474500Y-47677135D01*
X32474500Y-48082744D01*
X32454815Y-48149783D01*
X32438181Y-48170425D01*
X23929522Y-56679084D01*
X23929520Y-56679087D01*
X23892908Y-56742501D01*
X23884220Y-56750784D01*
X23879234Y-56761703D01*
X23859401Y-56774448D01*
X23842340Y-56790716D01*
X23829084Y-56793931D01*
X23820456Y-56799477D01*
X23785521Y-56804500D01*
X23708872Y-56804500D01*
X23641833Y-56784815D01*
X23596078Y-56732011D01*
X23587642Y-56675729D01*
X23585500Y-56675729D01*
X23585500Y-56542400D01*
X23567750Y-56476158D01*
X23553095Y-56421464D01*
X23490495Y-56313036D01*
X23401964Y-56224505D01*
X23293536Y-56161905D01*
X23293537Y-56161905D01*
X23253224Y-56151103D01*
X23172601Y-56129500D01*
X23047399Y-56129500D01*
X22966775Y-56151103D01*
X22926463Y-56161905D01*
X22818037Y-56224504D01*
X22818034Y-56224506D01*
X22729506Y-56313034D01*
X22729502Y-56313039D01*
X22684903Y-56390289D01*
X22634337Y-56438504D01*
X22565730Y-56451728D01*
X22500865Y-56425760D01*
X22460336Y-56368846D01*
X22455899Y-56352483D01*
X22449737Y-56321503D01*
X22409560Y-56224506D01*
X22389397Y-56175827D01*
X22389390Y-56175814D01*
X22301789Y-56044711D01*
X22301786Y-56044707D01*
X22190292Y-55933213D01*
X22190288Y-55933210D01*
X22059185Y-55845609D01*
X22059172Y-55845602D01*
X21913501Y-55785264D01*
X21913489Y-55785261D01*
X21758845Y-55754500D01*
X21758842Y-55754500D01*
X21601158Y-55754500D01*
X21601155Y-55754500D01*
X21446510Y-55785261D01*
X21446498Y-55785264D01*
X21300827Y-55845602D01*
X21300814Y-55845609D01*
X21169711Y-55933210D01*
X21169707Y-55933213D01*
X21058213Y-56044707D01*
X21058210Y-56044711D01*
X20970609Y-56175814D01*
X20970602Y-56175827D01*
X20910264Y-56321498D01*
X20910261Y-56321510D01*
X20879500Y-56476153D01*
X20879500Y-57733846D01*
X20910261Y-57888489D01*
X20910264Y-57888501D01*
X20970602Y-58034172D01*
X20970609Y-58034185D01*
X21058210Y-58165288D01*
X21058213Y-58165292D01*
X21169707Y-58276786D01*
X21169711Y-58276789D01*
X21300814Y-58364390D01*
X21300827Y-58364397D01*
X21409017Y-58409210D01*
X21446503Y-58424737D01*
X21601153Y-58455499D01*
X21601156Y-58455500D01*
X21601158Y-58455500D01*
X21758844Y-58455500D01*
X21758845Y-58455499D01*
X21913497Y-58424737D01*
X21950983Y-58409209D01*
X22020449Y-58401740D01*
X22082929Y-58433013D01*
X22105167Y-58460648D01*
X22132317Y-58506555D01*
X22132321Y-58506561D01*
X22248438Y-58622678D01*
X22248447Y-58622685D01*
X22389801Y-58706281D01*
X22547514Y-58752100D01*
X22547511Y-58752100D01*
X22549998Y-58752295D01*
X22550000Y-58752295D01*
X22550000Y-57804000D01*
X22552550Y-57795314D01*
X22551262Y-57786353D01*
X22562240Y-57762312D01*
X22569685Y-57736961D01*
X22576525Y-57731033D01*
X22580287Y-57722797D01*
X22602521Y-57708507D01*
X22622489Y-57691206D01*
X22633003Y-57688918D01*
X22639065Y-57685023D01*
X22674000Y-57680000D01*
X22875500Y-57680000D01*
X22942539Y-57699685D01*
X22988294Y-57752489D01*
X22999500Y-57804000D01*
X22999500Y-58159269D01*
X23002353Y-58189699D01*
X23002354Y-58189701D01*
X23043041Y-58305977D01*
X23050000Y-58346932D01*
X23050000Y-58752295D01*
X23050001Y-58752295D01*
X23052486Y-58752100D01*
X23210198Y-58706281D01*
X23351552Y-58622685D01*
X23357722Y-58617900D01*
X23359578Y-58620293D01*
X23408462Y-58593573D01*
X23478156Y-58598527D01*
X23522554Y-58627047D01*
X23804987Y-58909480D01*
X23896312Y-58962207D01*
X23998173Y-58989500D01*
X23998175Y-58989500D01*
X28037725Y-58989500D01*
X28037727Y-58989500D01*
X28139588Y-58962207D01*
X28230913Y-58909480D01*
X28312319Y-58828073D01*
X28373641Y-58794588D01*
X28443332Y-58799572D01*
X28487681Y-58828073D01*
X28846218Y-59186610D01*
X28846220Y-59186613D01*
X28920787Y-59261180D01*
X28945024Y-59275173D01*
X28954757Y-59283960D01*
X28966455Y-59303006D01*
X28981878Y-59319181D01*
X28984386Y-59332198D01*
X28991326Y-59343496D01*
X28990870Y-59365843D01*
X28995100Y-59387788D01*
X28990173Y-59400094D01*
X28989903Y-59413351D01*
X28977439Y-59431902D01*
X28969132Y-59452653D01*
X28958331Y-59460343D01*
X28950939Y-59471347D01*
X28930423Y-59480216D01*
X28912217Y-59493180D01*
X28892934Y-59496422D01*
X28886806Y-59499072D01*
X28881942Y-59498271D01*
X28871662Y-59500000D01*
X4624000Y-59500000D01*
X4556961Y-59480315D01*
X4511206Y-59427511D01*
X4500000Y-59376000D01*
X4500000Y-54901577D01*
X7749500Y-54901577D01*
X7749500Y-55098422D01*
X7780290Y-55292826D01*
X7841117Y-55480029D01*
X7930476Y-55655405D01*
X8046172Y-55814646D01*
X8185354Y-55953828D01*
X8344595Y-56069524D01*
X8415583Y-56105694D01*
X8519970Y-56158882D01*
X8519972Y-56158882D01*
X8519975Y-56158884D01*
X8572120Y-56175827D01*
X8707173Y-56219709D01*
X8901578Y-56250500D01*
X8901583Y-56250500D01*
X9098422Y-56250500D01*
X9292826Y-56219709D01*
X9480025Y-56158884D01*
X9655405Y-56069524D01*
X9814646Y-55953828D01*
X9953828Y-55814646D01*
X10069524Y-55655405D01*
X10158884Y-55480025D01*
X10219709Y-55292826D01*
X10224833Y-55260477D01*
X10250500Y-55098422D01*
X10250500Y-54901577D01*
X10219709Y-54707173D01*
X10165228Y-54539500D01*
X10158884Y-54519975D01*
X10158882Y-54519972D01*
X10158882Y-54519970D01*
X10069523Y-54344594D01*
X9953828Y-54185354D01*
X9814646Y-54046172D01*
X9655405Y-53930476D01*
X9480029Y-53841117D01*
X9292826Y-53780290D01*
X9098422Y-53749500D01*
X9098417Y-53749500D01*
X8901583Y-53749500D01*
X8901578Y-53749500D01*
X8707173Y-53780290D01*
X8519970Y-53841117D01*
X8344594Y-53930476D01*
X8253741Y-53996485D01*
X8185354Y-54046172D01*
X8185352Y-54046174D01*
X8185351Y-54046174D01*
X8046174Y-54185351D01*
X8046174Y-54185352D01*
X8046172Y-54185354D01*
X8010831Y-54233996D01*
X7930476Y-54344594D01*
X7841117Y-54519970D01*
X7780290Y-54707173D01*
X7749500Y-54901577D01*
X4500000Y-54901577D01*
X4500000Y-52446153D01*
X20879500Y-52446153D01*
X20879500Y-53403846D01*
X20910261Y-53558489D01*
X20910264Y-53558501D01*
X20970602Y-53704172D01*
X20970609Y-53704185D01*
X21058210Y-53835288D01*
X21058213Y-53835292D01*
X21169707Y-53946786D01*
X21169711Y-53946789D01*
X21300814Y-54034390D01*
X21300827Y-54034397D01*
X21446498Y-54094735D01*
X21446503Y-54094737D01*
X21601153Y-54125499D01*
X21601156Y-54125500D01*
X21601158Y-54125500D01*
X21758844Y-54125500D01*
X21758845Y-54125499D01*
X21913497Y-54094737D01*
X22059179Y-54034394D01*
X22190289Y-53946789D01*
X22301789Y-53835289D01*
X22389394Y-53704179D01*
X22449737Y-53558497D01*
X22480500Y-53403842D01*
X22480500Y-52446158D01*
X22480500Y-52446155D01*
X22480499Y-52446153D01*
X22449738Y-52291510D01*
X22449737Y-52291503D01*
X22433576Y-52252486D01*
X22389397Y-52145827D01*
X22389390Y-52145814D01*
X22301789Y-52014711D01*
X22301786Y-52014707D01*
X22190292Y-51903213D01*
X22190288Y-51903210D01*
X22059185Y-51815609D01*
X22059172Y-51815602D01*
X21913501Y-51755264D01*
X21913489Y-51755261D01*
X21758845Y-51724500D01*
X21758842Y-51724500D01*
X21601158Y-51724500D01*
X21601155Y-51724500D01*
X21446510Y-51755261D01*
X21446498Y-51755264D01*
X21300827Y-51815602D01*
X21300814Y-51815609D01*
X21169711Y-51903210D01*
X21169707Y-51903213D01*
X21058213Y-52014707D01*
X21058210Y-52014711D01*
X20970609Y-52145814D01*
X20970602Y-52145827D01*
X20910264Y-52291498D01*
X20910261Y-52291510D01*
X20879500Y-52446153D01*
X4500000Y-52446153D01*
X4500000Y-41331898D01*
X12099500Y-41331898D01*
X12099500Y-42668102D01*
X12103516Y-42701547D01*
X12110122Y-42756561D01*
X12110122Y-42756563D01*
X12110123Y-42756564D01*
X12119429Y-42780161D01*
X12165639Y-42897343D01*
X12257077Y-43017922D01*
X12377656Y-43109360D01*
X12377657Y-43109360D01*
X12377658Y-43109361D01*
X12518436Y-43164877D01*
X12606898Y-43175500D01*
X12606903Y-43175500D01*
X13393097Y-43175500D01*
X13393102Y-43175500D01*
X13481564Y-43164877D01*
X13489754Y-43161646D01*
X13559341Y-43155365D01*
X13621278Y-43187701D01*
X13622927Y-43189320D01*
X14657792Y-44224184D01*
X15679518Y-45245910D01*
X15679520Y-45245913D01*
X15754087Y-45320480D01*
X15794652Y-45343900D01*
X15845413Y-45373207D01*
X15947273Y-45400501D01*
X15947275Y-45400501D01*
X16060323Y-45400501D01*
X16060339Y-45400500D01*
X22401533Y-45400500D01*
X22468572Y-45420185D01*
X22514327Y-45472989D01*
X22517715Y-45481166D01*
X22531203Y-45517330D01*
X22531206Y-45517335D01*
X22617452Y-45632544D01*
X22617455Y-45632547D01*
X22732664Y-45718793D01*
X22732671Y-45718797D01*
X22777618Y-45735561D01*
X22867517Y-45769091D01*
X22927127Y-45775500D01*
X23422872Y-45775499D01*
X23482483Y-45769091D01*
X23617331Y-45718796D01*
X23732546Y-45632546D01*
X23818796Y-45517331D01*
X23869091Y-45382483D01*
X23875500Y-45322873D01*
X23875499Y-44916252D01*
X23881737Y-44895007D01*
X23883317Y-44872920D01*
X23891388Y-44862137D01*
X23895183Y-44849215D01*
X23911919Y-44834713D01*
X23925189Y-44816987D01*
X23937807Y-44812280D01*
X23947987Y-44803460D01*
X23969905Y-44800308D01*
X23990653Y-44792570D01*
X24003813Y-44795432D01*
X24017146Y-44793516D01*
X24037289Y-44802715D01*
X24058926Y-44807422D01*
X24076651Y-44820690D01*
X24080702Y-44822541D01*
X24087180Y-44828573D01*
X24088181Y-44829574D01*
X24121666Y-44890897D01*
X24124500Y-44917255D01*
X24124500Y-45322870D01*
X24124501Y-45322876D01*
X24130908Y-45382483D01*
X24181202Y-45517328D01*
X24181206Y-45517335D01*
X24267452Y-45632544D01*
X24267455Y-45632547D01*
X24382664Y-45718793D01*
X24382671Y-45718797D01*
X24427618Y-45735561D01*
X24517517Y-45769091D01*
X24577127Y-45775500D01*
X25072872Y-45775499D01*
X25132483Y-45769091D01*
X25267331Y-45718796D01*
X25382546Y-45632546D01*
X25468796Y-45517331D01*
X25519091Y-45382483D01*
X25525500Y-45322873D01*
X25525499Y-44677128D01*
X25519091Y-44617517D01*
X25514907Y-44606300D01*
X25468797Y-44482671D01*
X25468793Y-44482664D01*
X25382547Y-44367455D01*
X25382544Y-44367452D01*
X25267335Y-44281206D01*
X25267328Y-44281202D01*
X25132482Y-44230908D01*
X25132483Y-44230908D01*
X25072883Y-44224501D01*
X25072881Y-44224500D01*
X25072873Y-44224500D01*
X25072865Y-44224500D01*
X24667255Y-44224500D01*
X24600216Y-44204815D01*
X24579574Y-44188181D01*
X23438315Y-43046922D01*
X23438313Y-43046920D01*
X23390091Y-43019079D01*
X23346989Y-42994193D01*
X23296057Y-42980546D01*
X23245127Y-42966900D01*
X23245126Y-42966900D01*
X19852698Y-42966900D01*
X19785659Y-42947215D01*
X19739904Y-42894411D01*
X19729960Y-42825253D01*
X19749596Y-42774009D01*
X19798009Y-42701553D01*
X19798009Y-42701552D01*
X19798013Y-42701547D01*
X19865894Y-42537666D01*
X19873864Y-42497598D01*
X19874687Y-42493462D01*
X19907071Y-42431551D01*
X19964209Y-42397878D01*
X20056288Y-42373207D01*
X20147613Y-42320480D01*
X21120249Y-41347844D01*
X53200000Y-41347844D01*
X53206401Y-41407372D01*
X53206403Y-41407379D01*
X53256645Y-41542086D01*
X53256649Y-41542093D01*
X53342809Y-41657187D01*
X53342812Y-41657190D01*
X53457906Y-41743350D01*
X53457913Y-41743354D01*
X53592620Y-41793596D01*
X53592627Y-41793598D01*
X53652155Y-41799999D01*
X53652172Y-41800000D01*
X53800000Y-41800000D01*
X53800000Y-41200000D01*
X53200000Y-41200000D01*
X53200000Y-41347844D01*
X21120249Y-41347844D01*
X22831274Y-39636819D01*
X22892597Y-39603334D01*
X22918955Y-39600500D01*
X53078260Y-39600500D01*
X53145299Y-39620185D01*
X53191054Y-39672989D01*
X53201550Y-39737755D01*
X53200000Y-39752171D01*
X53200000Y-39800000D01*
X53976000Y-39800000D01*
X53984685Y-39802550D01*
X53993647Y-39801262D01*
X54017687Y-39812240D01*
X54043039Y-39819685D01*
X54048966Y-39826525D01*
X54057203Y-39830287D01*
X54071492Y-39852521D01*
X54088794Y-39872489D01*
X54091081Y-39883003D01*
X54094977Y-39889065D01*
X54100000Y-39924000D01*
X54100000Y-40076000D01*
X54080315Y-40143039D01*
X54027511Y-40188794D01*
X53976000Y-40200000D01*
X53200000Y-40200000D01*
X53200000Y-40247844D01*
X53206401Y-40307372D01*
X53206403Y-40307380D01*
X53224786Y-40356667D01*
X53229770Y-40426359D01*
X53224786Y-40443333D01*
X53206403Y-40492619D01*
X53206401Y-40492627D01*
X53200000Y-40552155D01*
X53200000Y-40700000D01*
X53926000Y-40700000D01*
X53993039Y-40719685D01*
X54038794Y-40772489D01*
X54050000Y-40824000D01*
X54050000Y-40950000D01*
X54176000Y-40950000D01*
X54243039Y-40969685D01*
X54288794Y-41022489D01*
X54300000Y-41074000D01*
X54300000Y-41800000D01*
X54447828Y-41800000D01*
X54447844Y-41799999D01*
X54507372Y-41793598D01*
X54507376Y-41793597D01*
X54607166Y-41756378D01*
X54676858Y-41751394D01*
X54738181Y-41784879D01*
X54771666Y-41846202D01*
X54774500Y-41872560D01*
X54774500Y-44443982D01*
X54774500Y-44556018D01*
X54803497Y-44664237D01*
X54859515Y-44761263D01*
X57359515Y-47261263D01*
X57438737Y-47340485D01*
X57535763Y-47396503D01*
X57643982Y-47425500D01*
X68956341Y-47425500D01*
X69023380Y-47445185D01*
X69064787Y-47492971D01*
X69066186Y-47492224D01*
X69069055Y-47497592D01*
X69184024Y-47669657D01*
X69330342Y-47815975D01*
X69330345Y-47815977D01*
X69502402Y-47930941D01*
X69678608Y-48003928D01*
X69733011Y-48047769D01*
X69755076Y-48114063D01*
X69737797Y-48181762D01*
X69718836Y-48206170D01*
X66986826Y-50938181D01*
X66962346Y-50951547D01*
X66939609Y-50967712D01*
X66929699Y-50969374D01*
X66925503Y-50971666D01*
X66904947Y-50974364D01*
X66902044Y-50974500D01*
X66756898Y-50974500D01*
X66668436Y-50985123D01*
X66667515Y-50985485D01*
X66659552Y-50985859D01*
X66629817Y-50978620D01*
X66599625Y-50973559D01*
X66594738Y-50970081D01*
X66591665Y-50969333D01*
X66587414Y-50964868D01*
X66566069Y-50949676D01*
X66345915Y-50729522D01*
X66345913Y-50729520D01*
X66300250Y-50703156D01*
X66254589Y-50676793D01*
X66165498Y-50652922D01*
X66152727Y-50649500D01*
X66152726Y-50649500D01*
X62087628Y-50649500D01*
X62020589Y-50629815D01*
X61987858Y-50599134D01*
X61972150Y-50577850D01*
X61862882Y-50497207D01*
X61862880Y-50497206D01*
X61734700Y-50452353D01*
X61704270Y-50449500D01*
X61704266Y-50449500D01*
X60570734Y-50449500D01*
X60570730Y-50449500D01*
X60540300Y-50452353D01*
X60540298Y-50452353D01*
X60412119Y-50497206D01*
X60412117Y-50497207D01*
X60302850Y-50577850D01*
X60222207Y-50687117D01*
X60222206Y-50687119D01*
X60177353Y-50815298D01*
X60177353Y-50815300D01*
X60174500Y-50845730D01*
X60174500Y-51254269D01*
X60177353Y-51284699D01*
X60177353Y-51284701D01*
X60220922Y-51409211D01*
X60222207Y-51412882D01*
X60302850Y-51522150D01*
X60412118Y-51602793D01*
X60454845Y-51617744D01*
X60540299Y-51647646D01*
X60570730Y-51650500D01*
X60570734Y-51650500D01*
X61704270Y-51650500D01*
X61734699Y-51647646D01*
X61734701Y-51647646D01*
X61798790Y-51625219D01*
X61862882Y-51602793D01*
X61972150Y-51522150D01*
X61987858Y-51500865D01*
X62043506Y-51458615D01*
X62087628Y-51450500D01*
X65882745Y-51450500D01*
X65949784Y-51470185D01*
X65970426Y-51486819D01*
X66213181Y-51729574D01*
X66246666Y-51790897D01*
X66249500Y-51817255D01*
X66249500Y-52518102D01*
X66250327Y-52524986D01*
X66260122Y-52606561D01*
X66315639Y-52747343D01*
X66407077Y-52867922D01*
X66527656Y-52959360D01*
X66527657Y-52959360D01*
X66527658Y-52959361D01*
X66668436Y-53014877D01*
X66756898Y-53025500D01*
X66756903Y-53025500D01*
X67343097Y-53025500D01*
X67343102Y-53025500D01*
X67431564Y-53014877D01*
X67572342Y-52959361D01*
X67692922Y-52867922D01*
X67748892Y-52794115D01*
X67789486Y-52740584D01*
X67791317Y-52741972D01*
X67832607Y-52701689D01*
X67901058Y-52687682D01*
X67966216Y-52712905D01*
X68007394Y-52769351D01*
X68008391Y-52772241D01*
X68015640Y-52794115D01*
X68015643Y-52794124D01*
X68107684Y-52943345D01*
X68231654Y-53067315D01*
X68380875Y-53159356D01*
X68380880Y-53159358D01*
X68547302Y-53214505D01*
X68547309Y-53214506D01*
X68650019Y-53224999D01*
X69200000Y-53224999D01*
X69249972Y-53224999D01*
X69249986Y-53224998D01*
X69352697Y-53214505D01*
X69519119Y-53159358D01*
X69519124Y-53159356D01*
X69668345Y-53067315D01*
X69792315Y-52943345D01*
X69884356Y-52794124D01*
X69884358Y-52794119D01*
X69939505Y-52627697D01*
X69939506Y-52627690D01*
X69949999Y-52524986D01*
X69950000Y-52524973D01*
X69950000Y-52250000D01*
X69200000Y-52250000D01*
X69200000Y-53224999D01*
X68650019Y-53224999D01*
X68699999Y-53224998D01*
X68700000Y-53224998D01*
X68700000Y-51750000D01*
X69200000Y-51750000D01*
X69949999Y-51750000D01*
X69949999Y-51475028D01*
X69949998Y-51475013D01*
X69939505Y-51372302D01*
X69884358Y-51205880D01*
X69884356Y-51205875D01*
X69792315Y-51056654D01*
X69668345Y-50932684D01*
X69519124Y-50840643D01*
X69519119Y-50840641D01*
X69352697Y-50785494D01*
X69352690Y-50785493D01*
X69249986Y-50775000D01*
X69200000Y-50775000D01*
X69200000Y-51750000D01*
X68700000Y-51750000D01*
X68700000Y-50775000D01*
X68699999Y-50774999D01*
X68650029Y-50775000D01*
X68650011Y-50775001D01*
X68587751Y-50781362D01*
X68519058Y-50768592D01*
X68468173Y-50720712D01*
X68451253Y-50652922D01*
X68473669Y-50586745D01*
X68487463Y-50570328D01*
X69161261Y-49896530D01*
X73949500Y-49896530D01*
X73949500Y-50103469D01*
X73989868Y-50306412D01*
X73989870Y-50306420D01*
X74068896Y-50497206D01*
X74069059Y-50497598D01*
X74117652Y-50570323D01*
X74184024Y-50669657D01*
X74330342Y-50815975D01*
X74330345Y-50815977D01*
X74502402Y-50930941D01*
X74693580Y-51010130D01*
X74895645Y-51050323D01*
X74896530Y-51050499D01*
X74896534Y-51050500D01*
X74896535Y-51050500D01*
X75103466Y-51050500D01*
X75103467Y-51050499D01*
X75306420Y-51010130D01*
X75497598Y-50930941D01*
X75669655Y-50815977D01*
X75815977Y-50669655D01*
X75930941Y-50497598D01*
X76010130Y-50306420D01*
X76050500Y-50103465D01*
X76050500Y-49896535D01*
X76010130Y-49693580D01*
X75930941Y-49502402D01*
X75815977Y-49330345D01*
X75815975Y-49330342D01*
X75669657Y-49184024D01*
X75516436Y-49081646D01*
X75497598Y-49069059D01*
X75428986Y-49040639D01*
X75306420Y-48989870D01*
X75306412Y-48989868D01*
X75103469Y-48949500D01*
X75103465Y-48949500D01*
X74896535Y-48949500D01*
X74896530Y-48949500D01*
X74693587Y-48989868D01*
X74693579Y-48989870D01*
X74502403Y-49069058D01*
X74330342Y-49184024D01*
X74184024Y-49330342D01*
X74069058Y-49502403D01*
X73989870Y-49693579D01*
X73989868Y-49693587D01*
X73949500Y-49896530D01*
X69161261Y-49896530D01*
X75161260Y-43896530D01*
X88949500Y-43896530D01*
X88949500Y-44103469D01*
X88986628Y-44290122D01*
X88989870Y-44306420D01*
X89069059Y-44497598D01*
X89108093Y-44556017D01*
X89184024Y-44669657D01*
X89330342Y-44815975D01*
X89330345Y-44815977D01*
X89502402Y-44930941D01*
X89693580Y-45010130D01*
X89896530Y-45050499D01*
X89896534Y-45050500D01*
X89896535Y-45050500D01*
X90103466Y-45050500D01*
X90103467Y-45050499D01*
X90306420Y-45010130D01*
X90497598Y-44930941D01*
X90669655Y-44815977D01*
X90815977Y-44669655D01*
X90930941Y-44497598D01*
X91010130Y-44306420D01*
X91050500Y-44103465D01*
X91050500Y-43896535D01*
X91010130Y-43693580D01*
X90930941Y-43502402D01*
X90815977Y-43330345D01*
X90815975Y-43330342D01*
X90669657Y-43184024D01*
X90564905Y-43114032D01*
X90497598Y-43069059D01*
X90461276Y-43054014D01*
X90306420Y-42989870D01*
X90306412Y-42989868D01*
X90103469Y-42949500D01*
X90103465Y-42949500D01*
X89896535Y-42949500D01*
X89896530Y-42949500D01*
X89693587Y-42989868D01*
X89693579Y-42989870D01*
X89502403Y-43069058D01*
X89330342Y-43184024D01*
X89184024Y-43330342D01*
X89069058Y-43502403D01*
X88989870Y-43693579D01*
X88989868Y-43693587D01*
X88949500Y-43896530D01*
X75161260Y-43896530D01*
X75242152Y-43815638D01*
X75245910Y-43811880D01*
X75245913Y-43811880D01*
X75320480Y-43737313D01*
X75373207Y-43645987D01*
X75389460Y-43585331D01*
X75400501Y-43544127D01*
X75400501Y-43438673D01*
X75400500Y-43438669D01*
X75400500Y-43054014D01*
X75403535Y-43043677D01*
X79309873Y-43043677D01*
X79309873Y-43043678D01*
X79344858Y-43069096D01*
X79520164Y-43158418D01*
X79707294Y-43219221D01*
X79901618Y-43250000D01*
X80098382Y-43250000D01*
X80292705Y-43219221D01*
X80479835Y-43158418D01*
X80655143Y-43069095D01*
X80690125Y-43043678D01*
X80690126Y-43043678D01*
X80000001Y-42353553D01*
X80000000Y-42353553D01*
X79309873Y-43043677D01*
X75403535Y-43043677D01*
X75420185Y-42986975D01*
X75472989Y-42941220D01*
X75477048Y-42939453D01*
X75497598Y-42930941D01*
X75554449Y-42892955D01*
X75655772Y-42825253D01*
X75669655Y-42815977D01*
X75815977Y-42669655D01*
X75930941Y-42497598D01*
X76010130Y-42306420D01*
X76050500Y-42103465D01*
X76050500Y-41901617D01*
X78750000Y-41901617D01*
X78750000Y-42098382D01*
X78780778Y-42292705D01*
X78841581Y-42479835D01*
X78930905Y-42655145D01*
X78956319Y-42690125D01*
X78956320Y-42690125D01*
X79646446Y-42000000D01*
X79646446Y-41999999D01*
X79600369Y-41953922D01*
X79650000Y-41953922D01*
X79650000Y-42046078D01*
X79673852Y-42135095D01*
X79719930Y-42214905D01*
X79785095Y-42280070D01*
X79864905Y-42326148D01*
X79953922Y-42350000D01*
X80046078Y-42350000D01*
X80135095Y-42326148D01*
X80214905Y-42280070D01*
X80280070Y-42214905D01*
X80326148Y-42135095D01*
X80350000Y-42046078D01*
X80350000Y-41999999D01*
X80353553Y-41999999D01*
X80353553Y-42000000D01*
X81043678Y-42690126D01*
X81043678Y-42690125D01*
X81069095Y-42655143D01*
X81158418Y-42479835D01*
X81219221Y-42292705D01*
X81250000Y-42098382D01*
X81250000Y-41901617D01*
X81219221Y-41707294D01*
X81158418Y-41520164D01*
X81069096Y-41344858D01*
X81043678Y-41309873D01*
X81043677Y-41309873D01*
X80353553Y-41999999D01*
X80350000Y-41999999D01*
X80350000Y-41953922D01*
X80326148Y-41864905D01*
X80280070Y-41785095D01*
X80214905Y-41719930D01*
X80135095Y-41673852D01*
X80046078Y-41650000D01*
X79953922Y-41650000D01*
X79864905Y-41673852D01*
X79785095Y-41719930D01*
X79719930Y-41785095D01*
X79673852Y-41864905D01*
X79650000Y-41953922D01*
X79600369Y-41953922D01*
X78956320Y-41309872D01*
X78956320Y-41309873D01*
X78930902Y-41344859D01*
X78930899Y-41344863D01*
X78841582Y-41520161D01*
X78780778Y-41707294D01*
X78750000Y-41901617D01*
X76050500Y-41901617D01*
X76050500Y-41896535D01*
X76010130Y-41693580D01*
X75930941Y-41502402D01*
X75815977Y-41330345D01*
X75815975Y-41330342D01*
X75669658Y-41184025D01*
X75669650Y-41184019D01*
X75553979Y-41106730D01*
X75553905Y-41106682D01*
X75547880Y-41102656D01*
X75497598Y-41069059D01*
X75478038Y-41060957D01*
X75306420Y-40989870D01*
X75306412Y-40989868D01*
X75137755Y-40956320D01*
X79309872Y-40956320D01*
X80000000Y-41646446D01*
X80000001Y-41646446D01*
X80690125Y-40956320D01*
X80690125Y-40956319D01*
X80655145Y-40930905D01*
X80479835Y-40841581D01*
X80292705Y-40780778D01*
X80098382Y-40750000D01*
X79901618Y-40750000D01*
X79707294Y-40780778D01*
X79520161Y-40841582D01*
X79344863Y-40930899D01*
X79344859Y-40930902D01*
X79309873Y-40956320D01*
X79309872Y-40956320D01*
X75137755Y-40956320D01*
X75103469Y-40949500D01*
X75103465Y-40949500D01*
X74896535Y-40949500D01*
X74896530Y-40949500D01*
X74693587Y-40989868D01*
X74693579Y-40989870D01*
X74502403Y-41069058D01*
X74330342Y-41184024D01*
X74184024Y-41330342D01*
X74069058Y-41502403D01*
X73989870Y-41693579D01*
X73989868Y-41693587D01*
X73949500Y-41896530D01*
X73949500Y-42103469D01*
X73989868Y-42306412D01*
X73989870Y-42306420D01*
X74007921Y-42350000D01*
X74069059Y-42497598D01*
X74095832Y-42537667D01*
X74184024Y-42669657D01*
X74330342Y-42815975D01*
X74330345Y-42815977D01*
X74502402Y-42930941D01*
X74522952Y-42939453D01*
X74538517Y-42951995D01*
X74556703Y-42960301D01*
X74565166Y-42973470D01*
X74577356Y-42983293D01*
X74583669Y-43002262D01*
X74594477Y-43019079D01*
X74598439Y-43046638D01*
X74599421Y-43049587D01*
X74599500Y-43054014D01*
X74599500Y-43274145D01*
X74579815Y-43341184D01*
X74563181Y-43361826D01*
X71206170Y-46718836D01*
X71144847Y-46752321D01*
X71075155Y-46747337D01*
X71019222Y-46705465D01*
X71003928Y-46678608D01*
X70930941Y-46502403D01*
X70930941Y-46502402D01*
X70815977Y-46330345D01*
X70815975Y-46330342D01*
X70669657Y-46184024D01*
X70516436Y-46081646D01*
X70497598Y-46069059D01*
X70306420Y-45989870D01*
X70306412Y-45989868D01*
X70103469Y-45949500D01*
X70103465Y-45949500D01*
X69896535Y-45949500D01*
X69896530Y-45949500D01*
X69693587Y-45989868D01*
X69693579Y-45989870D01*
X69502403Y-46069058D01*
X69330342Y-46184024D01*
X69184024Y-46330342D01*
X69069055Y-46502407D01*
X69066186Y-46507776D01*
X69063943Y-46506577D01*
X69027087Y-46552338D01*
X68960799Y-46574420D01*
X68956341Y-46574500D01*
X60790555Y-46574500D01*
X60723516Y-46554815D01*
X60702874Y-46538181D01*
X55976873Y-41812180D01*
X55943388Y-41750857D01*
X55948372Y-41681165D01*
X55990244Y-41625232D01*
X56055708Y-41600815D01*
X56064554Y-41600499D01*
X56138304Y-41600499D01*
X56205343Y-41620184D01*
X56237572Y-41650189D01*
X56242813Y-41657190D01*
X56357911Y-41743352D01*
X56357913Y-41743354D01*
X56492620Y-41793596D01*
X56492627Y-41793598D01*
X56552155Y-41799999D01*
X56552172Y-41800000D01*
X56600000Y-41800000D01*
X56600000Y-41024000D01*
X56602550Y-41015314D01*
X56601262Y-41006353D01*
X56612240Y-40982312D01*
X56619685Y-40956961D01*
X56626525Y-40951033D01*
X56630287Y-40942797D01*
X56652521Y-40928507D01*
X56672489Y-40911206D01*
X56683003Y-40908918D01*
X56689065Y-40905023D01*
X56724000Y-40900000D01*
X56876000Y-40900000D01*
X56943039Y-40919685D01*
X56988794Y-40972489D01*
X57000000Y-41024000D01*
X57000000Y-41800000D01*
X57047828Y-41800000D01*
X57047844Y-41799999D01*
X57107372Y-41793598D01*
X57107379Y-41793596D01*
X57242086Y-41743354D01*
X57242088Y-41743352D01*
X57357188Y-41657189D01*
X57362429Y-41650189D01*
X57418363Y-41608317D01*
X57461692Y-41600499D01*
X57844864Y-41600499D01*
X57844879Y-41600497D01*
X57844882Y-41600497D01*
X57869986Y-41597586D01*
X57869987Y-41597585D01*
X57869991Y-41597585D01*
X57949917Y-41562294D01*
X58019190Y-41553223D01*
X58050081Y-41562293D01*
X58130009Y-41597585D01*
X58155135Y-41600500D01*
X58644864Y-41600499D01*
X58644879Y-41600497D01*
X58644882Y-41600497D01*
X58669986Y-41597586D01*
X58669987Y-41597585D01*
X58669991Y-41597585D01*
X58749917Y-41562294D01*
X58819190Y-41553223D01*
X58850081Y-41562293D01*
X58930009Y-41597585D01*
X58955135Y-41600500D01*
X59444864Y-41600499D01*
X59444879Y-41600497D01*
X59444882Y-41600497D01*
X59469986Y-41597586D01*
X59469987Y-41597585D01*
X59469991Y-41597585D01*
X59549917Y-41562294D01*
X59619190Y-41553223D01*
X59650081Y-41562293D01*
X59730009Y-41597585D01*
X59755135Y-41600500D01*
X60244864Y-41600499D01*
X60244879Y-41600497D01*
X60244882Y-41600497D01*
X60269986Y-41597586D01*
X60269987Y-41597585D01*
X60269991Y-41597585D01*
X60349917Y-41562294D01*
X60419190Y-41553223D01*
X60450081Y-41562293D01*
X60530009Y-41597585D01*
X60555135Y-41600500D01*
X61044864Y-41600499D01*
X61044879Y-41600497D01*
X61044882Y-41600497D01*
X61069986Y-41597586D01*
X61069987Y-41597585D01*
X61069991Y-41597585D01*
X61149917Y-41562294D01*
X61219190Y-41553223D01*
X61250081Y-41562293D01*
X61330009Y-41597585D01*
X61355135Y-41600500D01*
X61844864Y-41600499D01*
X61844879Y-41600497D01*
X61844882Y-41600497D01*
X61869986Y-41597586D01*
X61869987Y-41597585D01*
X61869991Y-41597585D01*
X61949917Y-41562294D01*
X62019190Y-41553223D01*
X62050081Y-41562293D01*
X62130009Y-41597585D01*
X62155135Y-41600500D01*
X62644864Y-41600499D01*
X62644879Y-41600497D01*
X62644882Y-41600497D01*
X62669986Y-41597586D01*
X62669987Y-41597585D01*
X62669991Y-41597585D01*
X62749917Y-41562294D01*
X62819190Y-41553223D01*
X62850081Y-41562293D01*
X62930009Y-41597585D01*
X62955135Y-41600500D01*
X63444864Y-41600499D01*
X63444879Y-41600497D01*
X63444882Y-41600497D01*
X63469986Y-41597586D01*
X63469987Y-41597585D01*
X63469991Y-41597585D01*
X63549917Y-41562294D01*
X63619190Y-41553223D01*
X63650081Y-41562293D01*
X63730009Y-41597585D01*
X63755135Y-41600500D01*
X64244864Y-41600499D01*
X64244879Y-41600497D01*
X64244882Y-41600497D01*
X64269986Y-41597586D01*
X64269987Y-41597585D01*
X64269991Y-41597585D01*
X64349917Y-41562294D01*
X64419190Y-41553223D01*
X64450081Y-41562293D01*
X64530009Y-41597585D01*
X64555135Y-41600500D01*
X65044864Y-41600499D01*
X65044879Y-41600497D01*
X65044882Y-41600497D01*
X65069987Y-41597586D01*
X65069987Y-41597585D01*
X65069991Y-41597585D01*
X65076102Y-41594886D01*
X65145378Y-41585812D01*
X65208564Y-41615633D01*
X65225457Y-41634007D01*
X65242812Y-41657190D01*
X65357906Y-41743350D01*
X65357913Y-41743354D01*
X65492620Y-41793596D01*
X65492627Y-41793598D01*
X65552155Y-41799999D01*
X65552172Y-41800000D01*
X65700000Y-41800000D01*
X66200000Y-41800000D01*
X66347828Y-41800000D01*
X66347844Y-41799999D01*
X66407372Y-41793598D01*
X66407379Y-41793596D01*
X66542086Y-41743354D01*
X66542093Y-41743350D01*
X66657187Y-41657190D01*
X66657190Y-41657187D01*
X66743350Y-41542093D01*
X66743354Y-41542086D01*
X66793596Y-41407379D01*
X66793598Y-41407372D01*
X66799999Y-41347844D01*
X66800000Y-41347827D01*
X66800000Y-41200000D01*
X66200000Y-41200000D01*
X66200000Y-41800000D01*
X65700000Y-41800000D01*
X65700000Y-41074000D01*
X65719685Y-41006961D01*
X65772489Y-40961206D01*
X65824000Y-40950000D01*
X65950000Y-40950000D01*
X65950000Y-40824000D01*
X65969685Y-40756961D01*
X66022489Y-40711206D01*
X66074000Y-40700000D01*
X66800000Y-40700000D01*
X66800000Y-40552172D01*
X66799999Y-40552155D01*
X66793598Y-40492627D01*
X66793596Y-40492620D01*
X66743354Y-40357913D01*
X66743352Y-40357911D01*
X66657190Y-40242813D01*
X66657185Y-40242807D01*
X66650185Y-40237567D01*
X66608316Y-40181632D01*
X66600499Y-40138307D01*
X66600499Y-39755136D01*
X66600155Y-39752171D01*
X66597586Y-39730012D01*
X66597585Y-39730011D01*
X66597585Y-39730009D01*
X66562294Y-39650083D01*
X66553223Y-39580809D01*
X66562291Y-39549922D01*
X66597585Y-39469991D01*
X66600500Y-39444865D01*
X66600499Y-38955136D01*
X66598993Y-38942147D01*
X66597586Y-38930012D01*
X66597585Y-38930011D01*
X66597585Y-38930009D01*
X66562294Y-38850083D01*
X66553223Y-38780809D01*
X66562291Y-38749922D01*
X66597585Y-38669991D01*
X66600500Y-38644865D01*
X66600499Y-38155136D01*
X66600378Y-38154089D01*
X66597586Y-38130012D01*
X66597585Y-38130011D01*
X66597585Y-38130009D01*
X66562294Y-38050083D01*
X66553223Y-37980809D01*
X66562291Y-37949922D01*
X66597585Y-37869991D01*
X66600500Y-37844865D01*
X66600499Y-37355136D01*
X66598603Y-37338786D01*
X66610433Y-37269925D01*
X66657613Y-37218391D01*
X66721777Y-37200500D01*
X81951025Y-37200500D01*
X81951027Y-37200500D01*
X82052888Y-37173207D01*
X82144213Y-37120480D01*
X82487822Y-36776870D01*
X82549142Y-36743387D01*
X82618833Y-36748371D01*
X82674767Y-36790242D01*
X82699184Y-36855707D01*
X82699500Y-36864552D01*
X82699500Y-37044856D01*
X82699502Y-37044882D01*
X82702413Y-37069987D01*
X82702415Y-37069991D01*
X82747793Y-37172764D01*
X82747794Y-37172765D01*
X82827235Y-37252206D01*
X82930009Y-37297585D01*
X82955135Y-37300500D01*
X85044864Y-37300499D01*
X85044879Y-37300497D01*
X85044882Y-37300497D01*
X85069987Y-37297586D01*
X85069988Y-37297585D01*
X85069991Y-37297585D01*
X85172765Y-37252206D01*
X85252206Y-37172765D01*
X85297585Y-37069991D01*
X85300500Y-37044865D01*
X85300499Y-35881947D01*
X90100000Y-35881947D01*
X90100000Y-36118052D01*
X90136934Y-36351247D01*
X90209897Y-36575802D01*
X90317087Y-36786174D01*
X90377338Y-36869104D01*
X90377340Y-36869105D01*
X91117037Y-36129408D01*
X91134075Y-36192993D01*
X91199901Y-36307007D01*
X91292993Y-36400099D01*
X91407007Y-36465925D01*
X91470590Y-36482962D01*
X90730893Y-37222658D01*
X90813828Y-37282914D01*
X91024197Y-37390102D01*
X91248752Y-37463065D01*
X91248751Y-37463065D01*
X91481948Y-37500000D01*
X91718052Y-37500000D01*
X91951247Y-37463065D01*
X92175802Y-37390102D01*
X92386163Y-37282918D01*
X92386169Y-37282914D01*
X92469104Y-37222658D01*
X92469105Y-37222658D01*
X91729408Y-36482962D01*
X91792993Y-36465925D01*
X91907007Y-36400099D01*
X92000099Y-36307007D01*
X92065925Y-36192993D01*
X92082962Y-36129409D01*
X92822658Y-36869105D01*
X92822658Y-36869104D01*
X92882914Y-36786169D01*
X92882918Y-36786163D01*
X92990102Y-36575802D01*
X93063065Y-36351247D01*
X93100000Y-36118052D01*
X93100000Y-35881947D01*
X93063065Y-35648752D01*
X92990102Y-35424197D01*
X92882914Y-35213828D01*
X92822658Y-35130894D01*
X92822658Y-35130893D01*
X92082962Y-35870590D01*
X92065925Y-35807007D01*
X92000099Y-35692993D01*
X91907007Y-35599901D01*
X91792993Y-35534075D01*
X91729409Y-35517037D01*
X92469105Y-34777340D01*
X92469104Y-34777338D01*
X92386174Y-34717087D01*
X92175802Y-34609897D01*
X91951247Y-34536934D01*
X91951248Y-34536934D01*
X91718052Y-34500000D01*
X91481948Y-34500000D01*
X91248752Y-34536934D01*
X91024197Y-34609897D01*
X90813830Y-34717084D01*
X90730894Y-34777340D01*
X91470591Y-35517037D01*
X91407007Y-35534075D01*
X91292993Y-35599901D01*
X91199901Y-35692993D01*
X91134075Y-35807007D01*
X91117037Y-35870591D01*
X90377340Y-35130894D01*
X90317084Y-35213830D01*
X90209897Y-35424197D01*
X90136934Y-35648752D01*
X90100000Y-35881947D01*
X85300499Y-35881947D01*
X85300499Y-34955136D01*
X85300497Y-34955117D01*
X85297586Y-34930012D01*
X85297585Y-34930011D01*
X85297585Y-34930009D01*
X85252206Y-34827235D01*
X85172765Y-34747794D01*
X85172763Y-34747793D01*
X85069992Y-34702415D01*
X85044865Y-34699500D01*
X82955143Y-34699500D01*
X82955117Y-34699502D01*
X82930012Y-34702413D01*
X82930008Y-34702415D01*
X82827235Y-34747793D01*
X82747794Y-34827234D01*
X82702415Y-34930006D01*
X82702415Y-34930008D01*
X82699500Y-34955131D01*
X82699500Y-35489901D01*
X82679815Y-35556940D01*
X82627011Y-35602695D01*
X82607594Y-35609676D01*
X82543710Y-35626793D01*
X82452387Y-35679520D01*
X82452384Y-35679522D01*
X81768726Y-36363181D01*
X81707403Y-36396666D01*
X81681045Y-36399500D01*
X66721778Y-36399500D01*
X66654739Y-36379815D01*
X66608984Y-36327011D01*
X66598604Y-36261210D01*
X66600499Y-36244871D01*
X66600500Y-36244865D01*
X66600499Y-35755136D01*
X66600497Y-35755117D01*
X66597586Y-35730012D01*
X66597585Y-35730011D01*
X66597585Y-35730009D01*
X66562294Y-35650083D01*
X66553223Y-35580809D01*
X66562291Y-35549922D01*
X66597585Y-35469991D01*
X66600500Y-35444865D01*
X66600499Y-34955136D01*
X66600497Y-34955117D01*
X66597586Y-34930012D01*
X66597585Y-34930011D01*
X66597585Y-34930009D01*
X66562294Y-34850083D01*
X66553223Y-34780809D01*
X66562291Y-34749922D01*
X66597585Y-34669991D01*
X66600500Y-34644865D01*
X66600499Y-34155136D01*
X66600497Y-34155117D01*
X66597586Y-34130012D01*
X66597585Y-34130011D01*
X66597585Y-34130009D01*
X66562294Y-34050083D01*
X66553223Y-33980809D01*
X66562291Y-33949922D01*
X66597585Y-33869991D01*
X66600500Y-33844865D01*
X66600499Y-33355136D01*
X66600497Y-33355117D01*
X66597586Y-33330012D01*
X66597585Y-33330011D01*
X66597585Y-33330009D01*
X66562294Y-33250083D01*
X66553223Y-33180809D01*
X66562291Y-33149922D01*
X66597585Y-33069991D01*
X66600500Y-33044865D01*
X66600499Y-32555136D01*
X66600497Y-32555117D01*
X66597586Y-32530012D01*
X66597585Y-32530011D01*
X66597585Y-32530009D01*
X66562294Y-32450083D01*
X66553223Y-32380809D01*
X66562291Y-32349922D01*
X66597585Y-32269991D01*
X66600500Y-32244865D01*
X66600499Y-31861695D01*
X66620183Y-31794657D01*
X66650189Y-31762428D01*
X66657190Y-31757186D01*
X66743352Y-31642088D01*
X66743354Y-31642086D01*
X66793596Y-31507379D01*
X66793598Y-31507372D01*
X66799999Y-31447844D01*
X66800000Y-31447827D01*
X66800000Y-31300000D01*
X65000000Y-31300000D01*
X65000000Y-32000000D01*
X65047828Y-32000000D01*
X65047829Y-31999999D01*
X65062238Y-31998450D01*
X65130998Y-32010852D01*
X65182138Y-32058460D01*
X65199500Y-32121738D01*
X65199500Y-32244855D01*
X65199502Y-32244882D01*
X65202413Y-32269987D01*
X65202414Y-32269988D01*
X65202414Y-32269990D01*
X65202415Y-32269991D01*
X65237704Y-32349913D01*
X65246776Y-32419191D01*
X65237705Y-32450083D01*
X65214193Y-32503334D01*
X65202415Y-32530009D01*
X65199500Y-32555131D01*
X65199500Y-33044856D01*
X65199502Y-33044882D01*
X65202413Y-33069987D01*
X65202414Y-33069988D01*
X65202414Y-33069990D01*
X65202415Y-33069991D01*
X65237704Y-33149913D01*
X65246776Y-33219191D01*
X65237705Y-33250085D01*
X65202415Y-33330009D01*
X65199500Y-33355131D01*
X65199500Y-33844856D01*
X65199502Y-33844882D01*
X65202413Y-33869987D01*
X65202414Y-33869988D01*
X65202414Y-33869990D01*
X65202415Y-33869991D01*
X65237704Y-33949913D01*
X65246776Y-34019191D01*
X65237705Y-34050083D01*
X65214116Y-34103509D01*
X65202415Y-34130009D01*
X65199500Y-34155131D01*
X65199500Y-34644856D01*
X65199502Y-34644882D01*
X65202413Y-34669987D01*
X65202414Y-34669988D01*
X65202414Y-34669990D01*
X65202415Y-34669991D01*
X65237704Y-34749913D01*
X65246776Y-34819191D01*
X65237705Y-34850085D01*
X65202415Y-34930009D01*
X65199500Y-34955131D01*
X65199500Y-35444856D01*
X65199502Y-35444882D01*
X65202413Y-35469987D01*
X65202414Y-35469988D01*
X65202414Y-35469990D01*
X65202415Y-35469991D01*
X65237704Y-35549913D01*
X65246776Y-35619191D01*
X65237705Y-35650085D01*
X65202415Y-35730009D01*
X65199500Y-35755131D01*
X65199500Y-36244856D01*
X65199502Y-36244882D01*
X65202413Y-36269987D01*
X65202414Y-36269988D01*
X65202414Y-36269990D01*
X65202415Y-36269991D01*
X65237704Y-36349913D01*
X65246776Y-36419191D01*
X65237705Y-36450085D01*
X65202415Y-36530009D01*
X65199500Y-36555131D01*
X65199500Y-37044856D01*
X65199502Y-37044882D01*
X65202413Y-37069987D01*
X65202414Y-37069988D01*
X65202414Y-37069990D01*
X65202415Y-37069991D01*
X65237704Y-37149913D01*
X65246776Y-37219191D01*
X65237705Y-37250083D01*
X65202415Y-37330009D01*
X65199500Y-37355131D01*
X65199500Y-37844856D01*
X65199502Y-37844882D01*
X65202413Y-37869987D01*
X65202414Y-37869988D01*
X65202414Y-37869990D01*
X65202415Y-37869991D01*
X65237704Y-37949913D01*
X65246776Y-38019191D01*
X65245586Y-38025661D01*
X65242916Y-38038282D01*
X65202415Y-38130009D01*
X65199500Y-38155135D01*
X65199500Y-38243528D01*
X65196816Y-38256217D01*
X65186150Y-38276018D01*
X65179815Y-38297594D01*
X65169903Y-38306182D01*
X65163683Y-38317731D01*
X65144006Y-38328622D01*
X65127011Y-38343349D01*
X65113833Y-38345323D01*
X65102553Y-38351568D01*
X65081433Y-38350179D01*
X65071284Y-38351700D01*
X65071284Y-38354000D01*
X64905043Y-38354000D01*
X64752316Y-38394923D01*
X64752315Y-38394923D01*
X64746999Y-38397993D01*
X64679099Y-38414464D01*
X64613072Y-38391612D01*
X64569882Y-38336690D01*
X64561000Y-38290605D01*
X64561000Y-34214275D01*
X64560998Y-34214266D01*
X64557310Y-34200500D01*
X64533707Y-34112412D01*
X64507343Y-34066750D01*
X64480980Y-34021087D01*
X64406413Y-33946520D01*
X64406410Y-33946518D01*
X63529879Y-33069987D01*
X62658895Y-32199002D01*
X62625410Y-32137679D01*
X62630394Y-32067987D01*
X62672266Y-32012054D01*
X62703243Y-31995139D01*
X62756667Y-31975213D01*
X62826358Y-31970229D01*
X62843335Y-31975214D01*
X62892621Y-31993597D01*
X62952155Y-31999999D01*
X62952172Y-32000000D01*
X63000000Y-32000000D01*
X63400000Y-32000000D01*
X63447828Y-32000000D01*
X63447844Y-31999999D01*
X63507377Y-31993597D01*
X63507378Y-31993597D01*
X63556665Y-31975214D01*
X63626356Y-31970228D01*
X63643335Y-31975214D01*
X63692621Y-31993597D01*
X63752155Y-31999999D01*
X63752172Y-32000000D01*
X63800000Y-32000000D01*
X64200000Y-32000000D01*
X64247828Y-32000000D01*
X64247844Y-31999999D01*
X64307377Y-31993597D01*
X64307378Y-31993597D01*
X64356665Y-31975214D01*
X64426356Y-31970228D01*
X64443335Y-31975214D01*
X64492621Y-31993597D01*
X64552155Y-31999999D01*
X64552172Y-32000000D01*
X64600000Y-32000000D01*
X64600000Y-31300000D01*
X64200000Y-31300000D01*
X64200000Y-32000000D01*
X63800000Y-32000000D01*
X63800000Y-31300000D01*
X63400000Y-31300000D01*
X63400000Y-32000000D01*
X63000000Y-32000000D01*
X63000000Y-31300000D01*
X54300000Y-31300000D01*
X54300000Y-32600000D01*
X55051362Y-32600000D01*
X55051362Y-32601764D01*
X55097432Y-32605051D01*
X55116118Y-32613852D01*
X55195316Y-32659577D01*
X55348043Y-32700500D01*
X55348045Y-32700500D01*
X55506155Y-32700500D01*
X55506157Y-32700500D01*
X55658884Y-32659577D01*
X55795816Y-32580520D01*
X55839517Y-32536819D01*
X55900840Y-32503334D01*
X55927198Y-32500500D01*
X61776245Y-32500500D01*
X61843284Y-32520185D01*
X61863926Y-32536819D01*
X63723681Y-34396573D01*
X63757166Y-34457896D01*
X63760000Y-34484254D01*
X63760000Y-39022919D01*
X63750589Y-39054967D01*
X63775877Y-39094316D01*
X63776667Y-39097132D01*
X63787293Y-39136788D01*
X63840020Y-39228113D01*
X64081898Y-39469991D01*
X64198027Y-39586119D01*
X64231512Y-39647442D01*
X64226528Y-39717133D01*
X64184657Y-39773067D01*
X64119192Y-39797484D01*
X64110346Y-39797800D01*
X63479498Y-39797800D01*
X63412459Y-39778115D01*
X63366704Y-39725311D01*
X63356760Y-39656153D01*
X63385785Y-39592597D01*
X63391817Y-39586119D01*
X63397127Y-39580809D01*
X63412920Y-39565016D01*
X63491977Y-39428084D01*
X63532900Y-39275357D01*
X63532900Y-39129251D01*
X63542310Y-39097202D01*
X63517023Y-39057854D01*
X63516237Y-39055055D01*
X63491977Y-38964516D01*
X63471745Y-38929473D01*
X63412924Y-38827590D01*
X63412918Y-38827582D01*
X63301117Y-38715781D01*
X63301109Y-38715775D01*
X63164190Y-38636726D01*
X63164186Y-38636724D01*
X63164184Y-38636723D01*
X63011457Y-38595800D01*
X62853343Y-38595800D01*
X62700616Y-38636723D01*
X62700609Y-38636726D01*
X62563690Y-38715775D01*
X62563682Y-38715781D01*
X62519983Y-38759481D01*
X62458660Y-38792966D01*
X62432302Y-38795800D01*
X56959555Y-38795800D01*
X56892516Y-38776115D01*
X56871874Y-38759481D01*
X56188098Y-38075705D01*
X56154613Y-38014382D01*
X56159597Y-37944690D01*
X56201469Y-37888757D01*
X56213775Y-37880639D01*
X56268716Y-37848920D01*
X56380520Y-37737116D01*
X56459577Y-37600184D01*
X56500500Y-37447457D01*
X56500500Y-37289343D01*
X56459577Y-37136616D01*
X56421112Y-37069992D01*
X56380524Y-36999690D01*
X56380518Y-36999682D01*
X56268717Y-36887881D01*
X56268709Y-36887875D01*
X56131790Y-36808826D01*
X56131786Y-36808824D01*
X56131784Y-36808823D01*
X55979057Y-36767900D01*
X55820943Y-36767900D01*
X55668216Y-36808823D01*
X55668209Y-36808826D01*
X55531290Y-36887875D01*
X55531282Y-36887881D01*
X55487583Y-36931581D01*
X55426260Y-36965066D01*
X55399902Y-36967900D01*
X54980573Y-36967900D01*
X54956589Y-36974326D01*
X54886739Y-36972661D01*
X54828878Y-36933497D01*
X54801375Y-36869267D01*
X54800499Y-36854550D01*
X54800499Y-36555143D01*
X54800499Y-36555136D01*
X54800497Y-36555117D01*
X54797586Y-36530012D01*
X54797585Y-36530011D01*
X54797585Y-36530009D01*
X54762294Y-36450083D01*
X54753223Y-36380809D01*
X54762291Y-36349922D01*
X54797585Y-36269991D01*
X54800500Y-36244865D01*
X54800499Y-35755136D01*
X54800497Y-35755117D01*
X54797586Y-35730012D01*
X54797585Y-35730011D01*
X54797585Y-35730009D01*
X54762294Y-35650083D01*
X54753223Y-35580809D01*
X54762291Y-35549922D01*
X54797585Y-35469991D01*
X54800500Y-35444865D01*
X54800499Y-34955136D01*
X54800497Y-34955117D01*
X54797586Y-34930012D01*
X54797585Y-34930011D01*
X54797585Y-34930009D01*
X54762294Y-34850083D01*
X54753223Y-34780809D01*
X54762291Y-34749922D01*
X54797585Y-34669991D01*
X54800500Y-34644865D01*
X54800499Y-34155136D01*
X54798603Y-34138786D01*
X54810433Y-34069925D01*
X54857613Y-34018391D01*
X54921777Y-34000500D01*
X55485002Y-34000500D01*
X55552041Y-34020185D01*
X55572683Y-34036819D01*
X55616384Y-34080520D01*
X55616386Y-34080521D01*
X55616390Y-34080524D01*
X55745591Y-34155117D01*
X55753316Y-34159577D01*
X55906043Y-34200500D01*
X55906045Y-34200500D01*
X56064155Y-34200500D01*
X56064157Y-34200500D01*
X56216884Y-34159577D01*
X56353816Y-34080520D01*
X56465620Y-33968716D01*
X56544677Y-33831784D01*
X56585600Y-33679057D01*
X56585600Y-33520943D01*
X56544677Y-33368216D01*
X56537125Y-33355135D01*
X56465624Y-33231290D01*
X56465618Y-33231282D01*
X56353817Y-33119481D01*
X56353809Y-33119475D01*
X56216890Y-33040426D01*
X56216886Y-33040424D01*
X56216884Y-33040423D01*
X56064157Y-32999500D01*
X55906043Y-32999500D01*
X55753316Y-33040423D01*
X55753309Y-33040426D01*
X55616390Y-33119475D01*
X55616382Y-33119481D01*
X55572683Y-33163181D01*
X55511360Y-33196666D01*
X55485002Y-33199500D01*
X55121740Y-33199500D01*
X55054701Y-33179815D01*
X55008946Y-33127011D01*
X54998450Y-33062245D01*
X54999999Y-33047828D01*
X55000000Y-33047827D01*
X55000000Y-33000000D01*
X53200000Y-33000000D01*
X53200000Y-33047828D01*
X53201550Y-33062245D01*
X53189144Y-33131004D01*
X53141534Y-33182142D01*
X53078260Y-33199500D01*
X21347273Y-33199500D01*
X21245410Y-33226793D01*
X21154087Y-33279520D01*
X21154084Y-33279522D01*
X13622926Y-40810679D01*
X13561603Y-40844164D01*
X13491911Y-40839180D01*
X13489760Y-40838354D01*
X13481566Y-40835123D01*
X13456289Y-40832087D01*
X13393102Y-40824500D01*
X12606898Y-40824500D01*
X12567853Y-40829188D01*
X12518438Y-40835122D01*
X12377656Y-40890639D01*
X12257077Y-40982077D01*
X12165639Y-41102656D01*
X12110122Y-41243438D01*
X12104188Y-41292853D01*
X12099500Y-41331898D01*
X4500000Y-41331898D01*
X4500000Y-17409448D01*
X8724500Y-17409448D01*
X8724500Y-17590551D01*
X8752829Y-17769410D01*
X8808787Y-17941636D01*
X8808788Y-17941639D01*
X8891006Y-18102997D01*
X8997441Y-18249494D01*
X8997445Y-18249499D01*
X9125500Y-18377554D01*
X9125505Y-18377558D01*
X9253287Y-18470396D01*
X9272006Y-18483996D01*
X9377484Y-18537740D01*
X9433360Y-18566211D01*
X9433363Y-18566212D01*
X9519476Y-18594191D01*
X9605591Y-18622171D01*
X9630291Y-18626083D01*
X9639406Y-18627527D01*
X9702540Y-18657457D01*
X9739471Y-18716768D01*
X9738473Y-18786631D01*
X9699863Y-18844863D01*
X9639406Y-18872473D01*
X9605589Y-18877829D01*
X9433363Y-18933787D01*
X9433360Y-18933788D01*
X9272002Y-19016006D01*
X9125505Y-19122441D01*
X9125500Y-19122445D01*
X8997445Y-19250500D01*
X8997441Y-19250505D01*
X8891006Y-19397002D01*
X8808788Y-19558360D01*
X8808787Y-19558363D01*
X8752829Y-19730589D01*
X8724500Y-19909448D01*
X8724500Y-20090551D01*
X8752829Y-20269410D01*
X8808787Y-20441636D01*
X8808788Y-20441639D01*
X8891006Y-20602997D01*
X8997441Y-20749494D01*
X8997445Y-20749499D01*
X9125500Y-20877554D01*
X9125505Y-20877558D01*
X9253287Y-20970396D01*
X9272006Y-20983996D01*
X9377484Y-21037740D01*
X9433360Y-21066211D01*
X9433363Y-21066212D01*
X9519476Y-21094191D01*
X9605591Y-21122171D01*
X9630291Y-21126083D01*
X9639406Y-21127527D01*
X9702540Y-21157457D01*
X9739471Y-21216768D01*
X9738473Y-21286631D01*
X9699863Y-21344863D01*
X9639406Y-21372473D01*
X9605589Y-21377829D01*
X9433363Y-21433787D01*
X9433360Y-21433788D01*
X9272002Y-21516006D01*
X9125505Y-21622441D01*
X9125500Y-21622445D01*
X8997445Y-21750500D01*
X8997441Y-21750505D01*
X8891006Y-21897002D01*
X8808788Y-22058360D01*
X8808787Y-22058363D01*
X8752829Y-22230589D01*
X8724500Y-22409448D01*
X8724500Y-22590551D01*
X8752829Y-22769410D01*
X8808787Y-22941636D01*
X8808788Y-22941639D01*
X8831993Y-22987180D01*
X8870785Y-23063313D01*
X8891006Y-23102997D01*
X8997441Y-23249494D01*
X8997445Y-23249499D01*
X9125500Y-23377554D01*
X9125505Y-23377558D01*
X9253287Y-23470396D01*
X9272006Y-23483996D01*
X9377484Y-23537740D01*
X9433360Y-23566211D01*
X9433363Y-23566212D01*
X9560649Y-23607569D01*
X9618324Y-23647006D01*
X9645523Y-23711364D01*
X9633609Y-23780211D01*
X9586365Y-23831687D01*
X9522331Y-23849500D01*
X9231898Y-23849500D01*
X9192853Y-23854188D01*
X9143438Y-23860122D01*
X9002656Y-23915639D01*
X8882077Y-24007077D01*
X8790639Y-24127656D01*
X8735122Y-24268438D01*
X8729188Y-24317853D01*
X8724500Y-24356898D01*
X8724500Y-25643102D01*
X8730126Y-25689954D01*
X8735122Y-25731561D01*
X8790639Y-25872343D01*
X8882077Y-25992922D01*
X9002656Y-26084360D01*
X9002657Y-26084360D01*
X9002658Y-26084361D01*
X9143436Y-26139877D01*
X9231898Y-26150500D01*
X9231903Y-26150500D01*
X10768097Y-26150500D01*
X10768102Y-26150500D01*
X10856564Y-26139877D01*
X10997342Y-26084361D01*
X11117922Y-25992922D01*
X11209361Y-25872342D01*
X11264877Y-25731564D01*
X11275500Y-25643102D01*
X11275500Y-24356898D01*
X11264877Y-24268436D01*
X11209361Y-24127658D01*
X11209360Y-24127657D01*
X11209360Y-24127656D01*
X11117922Y-24007077D01*
X10997343Y-23915639D01*
X10856561Y-23860122D01*
X10810926Y-23854642D01*
X10768102Y-23849500D01*
X10477669Y-23849500D01*
X10410630Y-23829815D01*
X10364875Y-23777011D01*
X10354931Y-23707853D01*
X10383956Y-23644297D01*
X10439351Y-23607569D01*
X10566636Y-23566212D01*
X10566639Y-23566211D01*
X10727994Y-23483996D01*
X10874501Y-23377553D01*
X11002553Y-23249501D01*
X11108996Y-23102994D01*
X11177675Y-22968205D01*
X11225650Y-22917409D01*
X11288160Y-22900500D01*
X11329425Y-22900500D01*
X11329427Y-22900500D01*
X11431288Y-22873207D01*
X11522613Y-22820480D01*
X11906273Y-22436818D01*
X11967596Y-22403334D01*
X11993954Y-22400500D01*
X16401533Y-22400500D01*
X16468572Y-22420185D01*
X16514327Y-22472989D01*
X16517715Y-22481166D01*
X16531203Y-22517330D01*
X16531206Y-22517335D01*
X16617452Y-22632544D01*
X16617455Y-22632547D01*
X16732664Y-22718793D01*
X16732671Y-22718797D01*
X16777618Y-22735561D01*
X16867517Y-22769091D01*
X16927127Y-22775500D01*
X17422872Y-22775499D01*
X17482483Y-22769091D01*
X17514657Y-22757091D01*
X17625641Y-22715697D01*
X17626166Y-22717106D01*
X17684889Y-22704326D01*
X17750356Y-22728736D01*
X17763737Y-22740330D01*
X18086718Y-23063311D01*
X18086720Y-23063313D01*
X18161287Y-23137880D01*
X18202903Y-23161907D01*
X18252612Y-23190607D01*
X18354473Y-23217900D01*
X18354475Y-23217900D01*
X23410325Y-23217900D01*
X23410327Y-23217900D01*
X23512188Y-23190607D01*
X23603513Y-23137880D01*
X23929574Y-22811817D01*
X23990897Y-22778333D01*
X24017255Y-22775499D01*
X24332744Y-22775499D01*
X24399783Y-22795184D01*
X24420425Y-22811818D01*
X33928987Y-32320380D01*
X34008074Y-32366041D01*
X34019719Y-32372765D01*
X34020312Y-32373107D01*
X34122173Y-32400400D01*
X52093502Y-32400400D01*
X52160541Y-32420085D01*
X52181183Y-32436719D01*
X52224884Y-32480420D01*
X52224886Y-32480421D01*
X52224890Y-32480424D01*
X52322571Y-32536819D01*
X52361816Y-32559477D01*
X52514543Y-32600400D01*
X52514545Y-32600400D01*
X52672655Y-32600400D01*
X52672657Y-32600400D01*
X52825384Y-32559477D01*
X52962316Y-32480420D01*
X52988733Y-32454002D01*
X53050052Y-32420519D01*
X53119744Y-32425503D01*
X53175678Y-32467373D01*
X53200096Y-32532837D01*
X53199817Y-32548827D01*
X53200178Y-32548847D01*
X53200000Y-32552172D01*
X53200000Y-32600000D01*
X53900000Y-32600000D01*
X53900000Y-32030000D01*
X53890023Y-32020023D01*
X53856961Y-32010315D01*
X53811206Y-31957511D01*
X53800000Y-31906000D01*
X53800000Y-31300000D01*
X53200000Y-31300000D01*
X53200000Y-31447827D01*
X53200178Y-31451153D01*
X53198542Y-31451240D01*
X53187233Y-31513673D01*
X53139586Y-31564776D01*
X53071875Y-31582008D01*
X53005596Y-31559896D01*
X52988707Y-31545771D01*
X52962317Y-31519381D01*
X52962309Y-31519375D01*
X52825390Y-31440326D01*
X52825386Y-31440324D01*
X52825384Y-31440323D01*
X52672657Y-31399400D01*
X52514543Y-31399400D01*
X52361816Y-31440323D01*
X52361809Y-31440326D01*
X52224890Y-31519375D01*
X52224882Y-31519381D01*
X52181183Y-31563081D01*
X52119860Y-31596566D01*
X52093502Y-31599400D01*
X34392155Y-31599400D01*
X34325116Y-31579715D01*
X34304474Y-31563081D01*
X33141393Y-30400000D01*
X38400000Y-30400000D01*
X53099653Y-30400000D01*
X53166692Y-30419685D01*
X53212447Y-30472489D01*
X53222391Y-30541647D01*
X53215835Y-30567334D01*
X53206402Y-30592623D01*
X53206401Y-30592627D01*
X53200000Y-30652155D01*
X53200000Y-30800000D01*
X54906000Y-30800000D01*
X54973039Y-30819685D01*
X55018794Y-30872489D01*
X55023327Y-30893327D01*
X55030000Y-30900000D01*
X64970000Y-30900000D01*
X64979976Y-30890023D01*
X64989685Y-30856961D01*
X65042489Y-30811206D01*
X65094000Y-30800000D01*
X66800000Y-30800000D01*
X66800000Y-30652172D01*
X66799999Y-30652155D01*
X66793598Y-30592627D01*
X66793597Y-30592623D01*
X66784165Y-30567334D01*
X66779181Y-30497642D01*
X66812665Y-30436319D01*
X66873989Y-30402834D01*
X66900347Y-30400000D01*
X81600000Y-30400000D01*
X81600000Y-10000000D01*
X38400000Y-10000000D01*
X38400000Y-30400000D01*
X33141393Y-30400000D01*
X25728573Y-22987180D01*
X25717960Y-22967743D01*
X25703460Y-22951010D01*
X25701543Y-22937678D01*
X25695088Y-22925857D01*
X25696667Y-22903770D01*
X25693516Y-22881852D01*
X25699111Y-22869600D01*
X25700072Y-22856165D01*
X25713342Y-22838438D01*
X25722541Y-22818296D01*
X25733872Y-22811013D01*
X25741944Y-22800232D01*
X25762689Y-22792494D01*
X25781319Y-22780522D01*
X25803237Y-22777370D01*
X25807408Y-22775815D01*
X25816240Y-22775499D01*
X25982744Y-22775499D01*
X26049783Y-22795184D01*
X26070425Y-22811818D01*
X26367787Y-23109180D01*
X26446874Y-23154841D01*
X26459108Y-23161905D01*
X26459112Y-23161907D01*
X26560973Y-23189200D01*
X26560975Y-23189200D01*
X31690625Y-23189200D01*
X31690627Y-23189200D01*
X31792488Y-23161907D01*
X31883813Y-23109180D01*
X32229980Y-22763013D01*
X32234525Y-22757091D01*
X32290953Y-22715888D01*
X32360699Y-22711734D01*
X32376233Y-22716396D01*
X32440405Y-22740330D01*
X32517517Y-22769091D01*
X32577127Y-22775500D01*
X33072872Y-22775499D01*
X33132483Y-22769091D01*
X33267331Y-22718796D01*
X33382546Y-22632546D01*
X33468796Y-22517331D01*
X33519091Y-22382483D01*
X33525500Y-22322873D01*
X33525499Y-21677128D01*
X33519091Y-21617517D01*
X33515700Y-21608426D01*
X33468797Y-21482671D01*
X33468793Y-21482664D01*
X33382547Y-21367455D01*
X33371243Y-21358993D01*
X33337999Y-21334106D01*
X33275188Y-21287085D01*
X33233318Y-21231151D01*
X33225500Y-21187819D01*
X33225500Y-17108234D01*
X33245185Y-17041195D01*
X33297989Y-16995440D01*
X33304010Y-16992879D01*
X33311316Y-16989997D01*
X33311321Y-16989997D01*
X33450500Y-16935111D01*
X33569711Y-16844711D01*
X33660111Y-16725500D01*
X33714997Y-16586321D01*
X33725500Y-16498860D01*
X33725500Y-15501140D01*
X33714997Y-15413679D01*
X33677487Y-15318561D01*
X33660112Y-15274502D01*
X33660111Y-15274500D01*
X33569711Y-15155288D01*
X33450499Y-15064888D01*
X33450497Y-15064887D01*
X33311322Y-15010003D01*
X33298826Y-15008502D01*
X33223860Y-14999500D01*
X32651140Y-14999500D01*
X32585544Y-15007377D01*
X32563677Y-15010003D01*
X32424502Y-15064887D01*
X32424500Y-15064888D01*
X32305288Y-15155288D01*
X32209764Y-15281258D01*
X32207518Y-15279555D01*
X32167509Y-15318561D01*
X32099053Y-15332545D01*
X32033904Y-15307299D01*
X31992746Y-15250838D01*
X31991762Y-15247985D01*
X31984903Y-15227287D01*
X31984903Y-15227285D01*
X31893629Y-15079308D01*
X31770691Y-14956370D01*
X31622714Y-14865096D01*
X31622709Y-14865094D01*
X31457673Y-14810407D01*
X31355815Y-14800000D01*
X31312500Y-14800000D01*
X31312500Y-17200000D01*
X31355803Y-17200000D01*
X31355815Y-17199999D01*
X31457673Y-17189592D01*
X31622709Y-17134905D01*
X31622714Y-17134903D01*
X31770691Y-17043629D01*
X31893629Y-16920691D01*
X31984903Y-16772714D01*
X31984904Y-16772710D01*
X31991762Y-16752015D01*
X32031533Y-16694569D01*
X32096048Y-16667744D01*
X32164824Y-16680057D01*
X32207959Y-16720110D01*
X32209764Y-16718742D01*
X32214889Y-16725500D01*
X32305289Y-16844711D01*
X32375425Y-16897896D01*
X32416948Y-16954087D01*
X32424500Y-16996700D01*
X32424500Y-21115544D01*
X32418261Y-21136789D01*
X32416682Y-21158876D01*
X32408609Y-21169659D01*
X32404815Y-21182583D01*
X32388082Y-21197081D01*
X32374812Y-21214810D01*
X32362189Y-21219518D01*
X32352011Y-21228338D01*
X32330095Y-21231489D01*
X32309348Y-21239228D01*
X32296185Y-21236364D01*
X32282853Y-21238282D01*
X32262710Y-21229083D01*
X32241075Y-21224377D01*
X32223348Y-21211107D01*
X32219297Y-21209257D01*
X32212820Y-21203227D01*
X32197412Y-21187819D01*
X32155413Y-21145820D01*
X32155410Y-21145818D01*
X29726360Y-18716768D01*
X27515408Y-16505815D01*
X30075000Y-16505815D01*
X30085407Y-16607673D01*
X30140094Y-16772709D01*
X30140096Y-16772714D01*
X30231370Y-16920691D01*
X30354308Y-17043629D01*
X30502285Y-17134903D01*
X30502290Y-17134905D01*
X30667326Y-17189592D01*
X30769184Y-17199999D01*
X30769197Y-17200000D01*
X30812500Y-17200000D01*
X30812500Y-16250000D01*
X30075000Y-16250000D01*
X30075000Y-16505815D01*
X27515408Y-16505815D01*
X27295912Y-16286319D01*
X26761819Y-15752226D01*
X26747178Y-15725414D01*
X26730600Y-15699742D01*
X26729675Y-15693359D01*
X26728334Y-15690903D01*
X26725500Y-15664819D01*
X26725500Y-15501140D01*
X26724665Y-15494184D01*
X30075000Y-15494184D01*
X30075000Y-15750000D01*
X30812500Y-15750000D01*
X30812500Y-14800000D01*
X30769184Y-14800000D01*
X30667326Y-14810407D01*
X30502290Y-14865094D01*
X30502285Y-14865096D01*
X30354308Y-14956370D01*
X30231370Y-15079308D01*
X30140096Y-15227285D01*
X30140094Y-15227290D01*
X30085407Y-15392326D01*
X30075000Y-15494184D01*
X26724665Y-15494184D01*
X26714997Y-15413679D01*
X26677487Y-15318561D01*
X26660112Y-15274502D01*
X26660111Y-15274500D01*
X26569711Y-15155288D01*
X26450499Y-15064888D01*
X26450497Y-15064887D01*
X26311322Y-15010003D01*
X26298826Y-15008502D01*
X26223860Y-14999500D01*
X25651140Y-14999500D01*
X25585544Y-15007377D01*
X25563677Y-15010003D01*
X25424502Y-15064887D01*
X25424500Y-15064888D01*
X25305288Y-15155288D01*
X25209764Y-15281258D01*
X25207518Y-15279555D01*
X25167509Y-15318561D01*
X25099053Y-15332545D01*
X25033904Y-15307299D01*
X24992746Y-15250838D01*
X24991762Y-15247985D01*
X24984903Y-15227287D01*
X24984903Y-15227285D01*
X24893629Y-15079308D01*
X24770691Y-14956370D01*
X24622714Y-14865096D01*
X24622709Y-14865094D01*
X24457673Y-14810407D01*
X24355815Y-14800000D01*
X24312500Y-14800000D01*
X24312500Y-17200000D01*
X24355803Y-17200000D01*
X24355815Y-17199999D01*
X24457673Y-17189592D01*
X24622709Y-17134905D01*
X24622714Y-17134903D01*
X24770691Y-17043629D01*
X24893629Y-16920691D01*
X24984903Y-16772714D01*
X24984904Y-16772710D01*
X24991762Y-16752015D01*
X25031533Y-16694569D01*
X25096048Y-16667744D01*
X25164824Y-16680057D01*
X25207959Y-16720110D01*
X25209764Y-16718742D01*
X25305288Y-16844711D01*
X25424500Y-16935111D01*
X25424502Y-16935112D01*
X25458487Y-16948514D01*
X25563679Y-16989997D01*
X25651140Y-17000500D01*
X25651146Y-17000500D01*
X26223854Y-17000500D01*
X26223860Y-17000500D01*
X26311321Y-16989997D01*
X26450497Y-16935112D01*
X26450498Y-16935112D01*
X26450498Y-16935111D01*
X26450500Y-16935111D01*
X26569711Y-16844711D01*
X26569711Y-16844709D01*
X26569895Y-16844571D01*
X26635206Y-16819748D01*
X26703570Y-16834176D01*
X26732501Y-16855694D01*
X30906030Y-21029222D01*
X30939515Y-21090545D01*
X30934531Y-21160237D01*
X30892659Y-21216170D01*
X30861682Y-21233085D01*
X30732671Y-21281202D01*
X30732664Y-21281206D01*
X30617455Y-21367452D01*
X30617452Y-21367455D01*
X30531205Y-21482665D01*
X30531205Y-21482666D01*
X30524834Y-21499746D01*
X30482960Y-21555678D01*
X30417494Y-21580091D01*
X30376563Y-21576183D01*
X30371278Y-21574767D01*
X30344157Y-21567500D01*
X30186043Y-21567500D01*
X30033316Y-21608423D01*
X30033309Y-21608426D01*
X29896390Y-21687475D01*
X29896382Y-21687481D01*
X29784581Y-21799282D01*
X29784575Y-21799290D01*
X29705526Y-21936209D01*
X29705523Y-21936216D01*
X29664600Y-22088943D01*
X29664600Y-22247056D01*
X29664726Y-22248014D01*
X29664600Y-22248822D01*
X29664600Y-22255184D01*
X29663608Y-22255184D01*
X29653961Y-22317050D01*
X29607581Y-22369306D01*
X29541787Y-22388200D01*
X26830955Y-22388200D01*
X26763916Y-22368515D01*
X26743274Y-22351881D01*
X26561818Y-22170425D01*
X26528333Y-22109102D01*
X26525499Y-22082744D01*
X26525499Y-21677129D01*
X26525498Y-21677123D01*
X26525497Y-21677116D01*
X26519091Y-21617517D01*
X26515700Y-21608426D01*
X26468797Y-21482671D01*
X26468793Y-21482664D01*
X26382547Y-21367455D01*
X26382544Y-21367452D01*
X26267335Y-21281206D01*
X26267328Y-21281202D01*
X26132486Y-21230910D01*
X26132485Y-21230909D01*
X26132483Y-21230909D01*
X26072873Y-21224500D01*
X26072863Y-21224500D01*
X25577129Y-21224500D01*
X25577123Y-21224501D01*
X25517516Y-21230908D01*
X25382671Y-21281202D01*
X25382664Y-21281206D01*
X25267455Y-21367452D01*
X25267452Y-21367455D01*
X25181206Y-21482664D01*
X25181202Y-21482671D01*
X25130910Y-21617513D01*
X25130909Y-21617517D01*
X25124500Y-21677127D01*
X25124500Y-21677134D01*
X25124500Y-21677135D01*
X25124500Y-22083745D01*
X25118261Y-22104990D01*
X25116682Y-22127079D01*
X25108609Y-22137862D01*
X25104815Y-22150784D01*
X25088081Y-22165283D01*
X25074810Y-22183012D01*
X25062189Y-22187719D01*
X25052011Y-22196539D01*
X25030093Y-22199690D01*
X25009346Y-22207429D01*
X24996185Y-22204566D01*
X24982853Y-22206483D01*
X24962709Y-22197283D01*
X24941073Y-22192577D01*
X24923347Y-22179308D01*
X24919297Y-22177458D01*
X24912819Y-22171426D01*
X24911818Y-22170425D01*
X24878333Y-22109102D01*
X24875499Y-22082744D01*
X24875499Y-21677129D01*
X24875498Y-21677123D01*
X24875497Y-21677116D01*
X24869091Y-21617517D01*
X24865700Y-21608426D01*
X24818797Y-21482671D01*
X24818793Y-21482664D01*
X24732547Y-21367455D01*
X24732544Y-21367452D01*
X24617335Y-21281206D01*
X24617328Y-21281202D01*
X24482486Y-21230910D01*
X24482485Y-21230909D01*
X24482483Y-21230909D01*
X24422873Y-21224500D01*
X24422863Y-21224500D01*
X23927129Y-21224500D01*
X23927123Y-21224501D01*
X23867516Y-21230908D01*
X23732671Y-21281202D01*
X23732664Y-21281206D01*
X23617455Y-21367452D01*
X23617452Y-21367455D01*
X23531206Y-21482664D01*
X23531202Y-21482671D01*
X23480908Y-21617517D01*
X23474501Y-21677116D01*
X23474501Y-21677123D01*
X23474500Y-21677135D01*
X23474500Y-22082744D01*
X23454815Y-22149783D01*
X23438181Y-22170425D01*
X23228026Y-22380581D01*
X23166703Y-22414066D01*
X23140345Y-22416900D01*
X19649500Y-22416900D01*
X19582461Y-22397215D01*
X19536706Y-22344411D01*
X19525500Y-22292900D01*
X19525499Y-21677129D01*
X19525498Y-21677123D01*
X19525497Y-21677116D01*
X19519091Y-21617517D01*
X19515700Y-21608426D01*
X19468797Y-21482671D01*
X19468793Y-21482664D01*
X19382547Y-21367455D01*
X19376276Y-21361184D01*
X19378466Y-21358993D01*
X19345804Y-21315332D01*
X19338000Y-21272037D01*
X19338000Y-17063869D01*
X19357685Y-16996830D01*
X19410489Y-16951075D01*
X19416496Y-16948520D01*
X19450500Y-16935111D01*
X19569711Y-16844711D01*
X19660111Y-16725500D01*
X19714997Y-16586321D01*
X19724665Y-16505815D01*
X23075000Y-16505815D01*
X23085407Y-16607673D01*
X23140094Y-16772709D01*
X23140096Y-16772714D01*
X23231370Y-16920691D01*
X23354308Y-17043629D01*
X23502285Y-17134903D01*
X23502290Y-17134905D01*
X23667326Y-17189592D01*
X23769184Y-17199999D01*
X23769197Y-17200000D01*
X23812500Y-17200000D01*
X23812500Y-16250000D01*
X23075000Y-16250000D01*
X23075000Y-16505815D01*
X19724665Y-16505815D01*
X19725500Y-16498860D01*
X19725500Y-15501140D01*
X19724665Y-15494184D01*
X23075000Y-15494184D01*
X23075000Y-15750000D01*
X23812500Y-15750000D01*
X23812500Y-14800000D01*
X23769184Y-14800000D01*
X23667326Y-14810407D01*
X23502290Y-14865094D01*
X23502285Y-14865096D01*
X23354308Y-14956370D01*
X23231370Y-15079308D01*
X23140096Y-15227285D01*
X23140094Y-15227290D01*
X23085407Y-15392326D01*
X23075000Y-15494184D01*
X19724665Y-15494184D01*
X19714997Y-15413679D01*
X19677487Y-15318561D01*
X19660112Y-15274502D01*
X19660111Y-15274500D01*
X19569711Y-15155288D01*
X19450499Y-15064888D01*
X19450497Y-15064887D01*
X19311322Y-15010003D01*
X19298826Y-15008502D01*
X19223860Y-14999500D01*
X18651140Y-14999500D01*
X18585544Y-15007377D01*
X18563677Y-15010003D01*
X18424502Y-15064887D01*
X18424500Y-15064888D01*
X18305288Y-15155288D01*
X18209764Y-15281258D01*
X18207518Y-15279555D01*
X18167509Y-15318561D01*
X18099053Y-15332545D01*
X18033904Y-15307299D01*
X17992746Y-15250838D01*
X17991762Y-15247985D01*
X17984903Y-15227287D01*
X17984903Y-15227285D01*
X17893629Y-15079308D01*
X17770691Y-14956370D01*
X17622714Y-14865096D01*
X17622709Y-14865094D01*
X17457673Y-14810407D01*
X17355815Y-14800000D01*
X17312500Y-14800000D01*
X17312500Y-17200000D01*
X17355803Y-17200000D01*
X17355815Y-17199999D01*
X17457673Y-17189592D01*
X17622709Y-17134905D01*
X17622714Y-17134903D01*
X17770691Y-17043629D01*
X17893629Y-16920691D01*
X17984903Y-16772714D01*
X17984904Y-16772710D01*
X17991762Y-16752015D01*
X18031533Y-16694569D01*
X18096048Y-16667744D01*
X18164824Y-16680057D01*
X18207959Y-16720110D01*
X18209764Y-16718742D01*
X18305288Y-16844711D01*
X18405484Y-16920691D01*
X18424500Y-16935111D01*
X18458490Y-16948514D01*
X18513633Y-16991420D01*
X18536827Y-17057327D01*
X18537000Y-17063869D01*
X18537000Y-21137547D01*
X18531308Y-21156930D01*
X18530516Y-21177121D01*
X18521664Y-21189774D01*
X18517315Y-21204586D01*
X18502047Y-21217815D01*
X18490465Y-21234372D01*
X18468685Y-21246723D01*
X18464511Y-21250341D01*
X18460048Y-21252275D01*
X18458201Y-21253032D01*
X18382669Y-21281204D01*
X18374387Y-21287403D01*
X18359772Y-21293397D01*
X18340095Y-21295442D01*
X18321559Y-21302354D01*
X18306055Y-21298980D01*
X18290277Y-21300620D01*
X18272619Y-21291703D01*
X18253287Y-21287496D01*
X18230491Y-21270428D01*
X18227909Y-21269125D01*
X18227246Y-21267999D01*
X18225043Y-21266350D01*
X16638215Y-19679522D01*
X16638213Y-19679520D01*
X16592550Y-19653156D01*
X16546889Y-19626793D01*
X16495957Y-19613146D01*
X16445027Y-19599500D01*
X16445026Y-19599500D01*
X11288160Y-19599500D01*
X11221121Y-19579815D01*
X11177675Y-19531795D01*
X11169009Y-19514787D01*
X11108996Y-19397006D01*
X11095396Y-19378287D01*
X11002558Y-19250505D01*
X11002554Y-19250500D01*
X10874499Y-19122445D01*
X10874494Y-19122441D01*
X10727997Y-19016006D01*
X10727996Y-19016005D01*
X10727994Y-19016004D01*
X10676300Y-18989664D01*
X10566639Y-18933788D01*
X10566636Y-18933787D01*
X10394410Y-18877829D01*
X10360594Y-18872473D01*
X10297459Y-18842544D01*
X10260528Y-18783232D01*
X10261526Y-18713370D01*
X10300136Y-18655137D01*
X10360594Y-18627527D01*
X10368388Y-18626292D01*
X10394409Y-18622171D01*
X10566639Y-18566211D01*
X10727994Y-18483996D01*
X10874501Y-18377553D01*
X11002553Y-18249501D01*
X11108996Y-18102994D01*
X11191211Y-17941639D01*
X11247171Y-17769409D01*
X11261765Y-17677259D01*
X11275500Y-17590551D01*
X11275500Y-17409448D01*
X11259019Y-17305397D01*
X11247171Y-17230591D01*
X11216081Y-17134903D01*
X11191212Y-17058363D01*
X11191211Y-17058360D01*
X11157103Y-16991420D01*
X11108996Y-16897006D01*
X11052865Y-16819748D01*
X11002558Y-16750505D01*
X11002554Y-16750500D01*
X10874499Y-16622445D01*
X10874494Y-16622441D01*
X10727997Y-16516006D01*
X10727996Y-16516005D01*
X10727994Y-16516004D01*
X10707997Y-16505815D01*
X16075000Y-16505815D01*
X16085407Y-16607673D01*
X16140094Y-16772709D01*
X16140096Y-16772714D01*
X16231370Y-16920691D01*
X16354308Y-17043629D01*
X16502285Y-17134903D01*
X16502290Y-17134905D01*
X16667326Y-17189592D01*
X16769184Y-17199999D01*
X16769197Y-17200000D01*
X16812500Y-17200000D01*
X16812500Y-16250000D01*
X16075000Y-16250000D01*
X16075000Y-16505815D01*
X10707997Y-16505815D01*
X10676300Y-16489664D01*
X10566639Y-16433788D01*
X10566636Y-16433787D01*
X10394410Y-16377829D01*
X10215551Y-16349500D01*
X10215546Y-16349500D01*
X9784454Y-16349500D01*
X9784449Y-16349500D01*
X9605589Y-16377829D01*
X9433363Y-16433787D01*
X9433360Y-16433788D01*
X9272002Y-16516006D01*
X9125505Y-16622441D01*
X9125500Y-16622445D01*
X8997445Y-16750500D01*
X8997441Y-16750505D01*
X8891006Y-16897002D01*
X8808788Y-17058360D01*
X8808787Y-17058363D01*
X8752829Y-17230589D01*
X8724500Y-17409448D01*
X4500000Y-17409448D01*
X4500000Y-15494184D01*
X16075000Y-15494184D01*
X16075000Y-15750000D01*
X16812500Y-15750000D01*
X16812500Y-14800000D01*
X16769184Y-14800000D01*
X16667326Y-14810407D01*
X16502290Y-14865094D01*
X16502285Y-14865096D01*
X16354308Y-14956370D01*
X16231370Y-15079308D01*
X16140096Y-15227285D01*
X16140094Y-15227290D01*
X16085407Y-15392326D01*
X16075000Y-15494184D01*
X4500000Y-15494184D01*
X4500000Y-8901577D01*
X7749500Y-8901577D01*
X7749500Y-9098422D01*
X7780290Y-9292826D01*
X7841117Y-9480029D01*
X7930476Y-9655405D01*
X8046172Y-9814646D01*
X8185354Y-9953828D01*
X8344595Y-10069524D01*
X8427455Y-10111743D01*
X8519970Y-10158882D01*
X8519972Y-10158882D01*
X8519975Y-10158884D01*
X8620317Y-10191487D01*
X8707173Y-10219709D01*
X8901578Y-10250500D01*
X8901583Y-10250500D01*
X9098422Y-10250500D01*
X9292826Y-10219709D01*
X9480025Y-10158884D01*
X9655405Y-10069524D01*
X9814646Y-9953828D01*
X9953828Y-9814646D01*
X10069524Y-9655405D01*
X10158884Y-9480025D01*
X10219709Y-9292826D01*
X10250500Y-9098422D01*
X10250500Y-8901577D01*
X89749500Y-8901577D01*
X89749500Y-9098422D01*
X89780290Y-9292826D01*
X89841117Y-9480029D01*
X89930476Y-9655405D01*
X90046172Y-9814646D01*
X90185354Y-9953828D01*
X90344595Y-10069524D01*
X90427455Y-10111743D01*
X90519970Y-10158882D01*
X90519972Y-10158882D01*
X90519975Y-10158884D01*
X90620317Y-10191487D01*
X90707173Y-10219709D01*
X90901578Y-10250500D01*
X90901583Y-10250500D01*
X91098422Y-10250500D01*
X91292826Y-10219709D01*
X91480025Y-10158884D01*
X91655405Y-10069524D01*
X91814646Y-9953828D01*
X91953828Y-9814646D01*
X92069524Y-9655405D01*
X92158884Y-9480025D01*
X92219709Y-9292826D01*
X92250500Y-9098422D01*
X92250500Y-8901577D01*
X92219709Y-8707173D01*
X92158882Y-8519970D01*
X92069523Y-8344594D01*
X91953828Y-8185354D01*
X91814646Y-8046172D01*
X91655405Y-7930476D01*
X91480029Y-7841117D01*
X91292826Y-7780290D01*
X91098422Y-7749500D01*
X91098417Y-7749500D01*
X90901583Y-7749500D01*
X90901578Y-7749500D01*
X90707173Y-7780290D01*
X90519970Y-7841117D01*
X90344594Y-7930476D01*
X90253741Y-7996485D01*
X90185354Y-8046172D01*
X90185352Y-8046174D01*
X90185351Y-8046174D01*
X90046174Y-8185351D01*
X90046174Y-8185352D01*
X90046172Y-8185354D01*
X89996485Y-8253741D01*
X89930476Y-8344594D01*
X89841117Y-8519970D01*
X89780290Y-8707173D01*
X89749500Y-8901577D01*
X10250500Y-8901577D01*
X10219709Y-8707173D01*
X10158882Y-8519970D01*
X10069523Y-8344594D01*
X9953828Y-8185354D01*
X9814646Y-8046172D01*
X9655405Y-7930476D01*
X9480029Y-7841117D01*
X9292826Y-7780290D01*
X9098422Y-7749500D01*
X9098417Y-7749500D01*
X8901583Y-7749500D01*
X8901578Y-7749500D01*
X8707173Y-7780290D01*
X8519970Y-7841117D01*
X8344594Y-7930476D01*
X8253741Y-7996485D01*
X8185354Y-8046172D01*
X8185352Y-8046174D01*
X8185351Y-8046174D01*
X8046174Y-8185351D01*
X8046174Y-8185352D01*
X8046172Y-8185354D01*
X7996485Y-8253741D01*
X7930476Y-8344594D01*
X7841117Y-8519970D01*
X7780290Y-8707173D01*
X7749500Y-8901577D01*
X4500000Y-8901577D01*
X4500000Y-4624000D01*
X4519685Y-4556961D01*
X4572489Y-4511206D01*
X4624000Y-4500000D01*
X95376000Y-4500000D01*
X95443039Y-4519685D01*
G37*
%TD.AperFunction*%
%TD*%
M02*
