%TF.GenerationSoftware,KiCad,Pcbnew,10.0.4*%
%TF.CreationDate,2026-07-01T01:34:10-04:00*%
%TF.ProjectId,geogreen-v1,67656f67-7265-4656-9e2d-76312e6b6963,rev?*%
%TF.SameCoordinates,Original*%
%TF.FileFunction,Legend,Top*%
%TF.FilePolarity,Positive*%
%FSLAX46Y46*%
G04 Gerber Fmt 4.6, Leading zero omitted, Abs format (unit mm)*
G04 Created by KiCad (PCBNEW 10.0.4) date 2026-07-01 01:34:10*
%MOMM*%
%LPD*%
G01*
G04 APERTURE LIST*
G04 Aperture macros list*
%AMRoundRect*
0 Rectangle with rounded corners*
0 $1 Rounding radius*
0 $2 $3 $4 $5 $6 $7 $8 $9 X,Y pos of 4 corners*
0 Add a 4 corners polygon primitive as box body*
4,1,4,$2,$3,$4,$5,$6,$7,$8,$9,$2,$3,0*
0 Add four circle primitives for the rounded corners*
1,1,$1+$1,$2,$3*
1,1,$1+$1,$4,$5*
1,1,$1+$1,$6,$7*
1,1,$1+$1,$8,$9*
0 Add four rect primitives between the rounded corners*
20,1,$1+$1,$2,$3,$4,$5,0*
20,1,$1+$1,$4,$5,$6,$7,0*
20,1,$1+$1,$6,$7,$8,$9,0*
20,1,$1+$1,$8,$9,$2,$3,0*%
%AMOutline5P*
0 Free polygon, 5 corners , with rotation*
0 The origin of the aperture is its center*
0 number of corners: always 5*
0 $1 to $10 corner X, Y*
0 $11 Rotation angle, in degrees counterclockwise*
0 create outline with 5 corners*
4,1,5,$1,$2,$3,$4,$5,$6,$7,$8,$9,$10,$1,$2,$11*%
%AMOutline6P*
0 Free polygon, 6 corners , with rotation*
0 The origin of the aperture is its center*
0 number of corners: always 6*
0 $1 to $12 corner X, Y*
0 $13 Rotation angle, in degrees counterclockwise*
0 create outline with 6 corners*
4,1,6,$1,$2,$3,$4,$5,$6,$7,$8,$9,$10,$11,$12,$1,$2,$13*%
%AMOutline7P*
0 Free polygon, 7 corners , with rotation*
0 The origin of the aperture is its center*
0 number of corners: always 7*
0 $1 to $14 corner X, Y*
0 $15 Rotation angle, in degrees counterclockwise*
0 create outline with 7 corners*
4,1,7,$1,$2,$3,$4,$5,$6,$7,$8,$9,$10,$11,$12,$13,$14,$1,$2,$15*%
%AMOutline8P*
0 Free polygon, 8 corners , with rotation*
0 The origin of the aperture is its center*
0 number of corners: always 8*
0 $1 to $16 corner X, Y*
0 $17 Rotation angle, in degrees counterclockwise*
0 create outline with 8 corners*
4,1,8,$1,$2,$3,$4,$5,$6,$7,$8,$9,$10,$11,$12,$13,$14,$15,$16,$1,$2,$17*%
G04 Aperture macros list end*
%ADD10C,0.120000*%
%ADD11C,0.127500*%
%ADD12C,0.135000*%
%ADD13C,0.142500*%
%ADD14C,0.270000*%
%ADD15C,0.150000*%
%ADD16RoundRect,0.250000X0.725000X-0.600000X0.725000X0.600000X-0.725000X0.600000X-0.725000X-0.600000X0*%
%ADD17O,1.950000X1.700000*%
%ADD18R,0.800000X0.400000*%
%ADD19R,0.400000X0.800000*%
%ADD20Outline5P,-0.725000X0.130500X-0.130500X0.725000X0.725000X0.725000X0.725000X-0.725000X-0.725000X-0.725000X0.000000*%
%ADD21R,1.450000X1.450000*%
%ADD22R,0.700000X0.700000*%
%ADD23RoundRect,0.200000X-0.200000X-0.275000X0.200000X-0.275000X0.200000X0.275000X-0.200000X0.275000X0*%
%ADD24C,1.500000*%
%ADD25RoundRect,0.243750X-0.243750X-0.456250X0.243750X-0.456250X0.243750X0.456250X-0.243750X0.456250X0*%
%ADD26R,2.000000X2.000000*%
%ADD27C,2.000000*%
%ADD28C,2.200000*%
%ADD29C,0.650000*%
%ADD30RoundRect,0.150000X0.150000X0.425000X-0.150000X0.425000X-0.150000X-0.425000X0.150000X-0.425000X0*%
%ADD31RoundRect,0.075000X0.075000X0.500000X-0.075000X0.500000X-0.075000X-0.500000X0.075000X-0.500000X0*%
%ADD32O,1.000000X2.100000*%
%ADD33O,1.000000X1.800000*%
%ADD34RoundRect,0.250000X-0.250000X-0.475000X0.250000X-0.475000X0.250000X0.475000X-0.250000X0.475000X0*%
%ADD35RoundRect,0.250000X-0.350000X-0.625000X0.350000X-0.625000X0.350000X0.625000X-0.350000X0.625000X0*%
%ADD36O,1.200000X1.750000*%
%ADD37RoundRect,0.150000X-0.512500X-0.150000X0.512500X-0.150000X0.512500X0.150000X-0.512500X0.150000X0*%
%ADD38RoundRect,0.112500X-0.187500X-0.112500X0.187500X-0.112500X0.187500X0.112500X-0.187500X0.112500X0*%
%ADD39RoundRect,0.250000X-0.375000X-0.625000X0.375000X-0.625000X0.375000X0.625000X-0.375000X0.625000X0*%
G04 APERTURE END LIST*
D10*
X9447619Y-32363855D02*
X9180952Y-31982902D01*
X8990476Y-32363855D02*
X8990476Y-31563855D01*
X8990476Y-31563855D02*
X9295238Y-31563855D01*
X9295238Y-31563855D02*
X9371428Y-31601950D01*
X9371428Y-31601950D02*
X9409523Y-31640045D01*
X9409523Y-31640045D02*
X9447619Y-31716236D01*
X9447619Y-31716236D02*
X9447619Y-31830521D01*
X9447619Y-31830521D02*
X9409523Y-31906712D01*
X9409523Y-31906712D02*
X9371428Y-31944807D01*
X9371428Y-31944807D02*
X9295238Y-31982902D01*
X9295238Y-31982902D02*
X8990476Y-31982902D01*
X10209523Y-31601950D02*
X10133333Y-31563855D01*
X10133333Y-31563855D02*
X10019047Y-31563855D01*
X10019047Y-31563855D02*
X9904761Y-31601950D01*
X9904761Y-31601950D02*
X9828571Y-31678140D01*
X9828571Y-31678140D02*
X9790476Y-31754331D01*
X9790476Y-31754331D02*
X9752380Y-31906712D01*
X9752380Y-31906712D02*
X9752380Y-32020998D01*
X9752380Y-32020998D02*
X9790476Y-32173379D01*
X9790476Y-32173379D02*
X9828571Y-32249569D01*
X9828571Y-32249569D02*
X9904761Y-32325760D01*
X9904761Y-32325760D02*
X10019047Y-32363855D01*
X10019047Y-32363855D02*
X10095238Y-32363855D01*
X10095238Y-32363855D02*
X10209523Y-32325760D01*
X10209523Y-32325760D02*
X10247619Y-32287664D01*
X10247619Y-32287664D02*
X10247619Y-32020998D01*
X10247619Y-32020998D02*
X10095238Y-32020998D01*
X10857142Y-31944807D02*
X10971428Y-31982902D01*
X10971428Y-31982902D02*
X11009523Y-32020998D01*
X11009523Y-32020998D02*
X11047619Y-32097188D01*
X11047619Y-32097188D02*
X11047619Y-32211474D01*
X11047619Y-32211474D02*
X11009523Y-32287664D01*
X11009523Y-32287664D02*
X10971428Y-32325760D01*
X10971428Y-32325760D02*
X10895238Y-32363855D01*
X10895238Y-32363855D02*
X10590476Y-32363855D01*
X10590476Y-32363855D02*
X10590476Y-31563855D01*
X10590476Y-31563855D02*
X10857142Y-31563855D01*
X10857142Y-31563855D02*
X10933333Y-31601950D01*
X10933333Y-31601950D02*
X10971428Y-31640045D01*
X10971428Y-31640045D02*
X11009523Y-31716236D01*
X11009523Y-31716236D02*
X11009523Y-31792426D01*
X11009523Y-31792426D02*
X10971428Y-31868617D01*
X10971428Y-31868617D02*
X10933333Y-31906712D01*
X10933333Y-31906712D02*
X10857142Y-31944807D01*
X10857142Y-31944807D02*
X10590476Y-31944807D01*
X9542857Y-49363855D02*
X9542857Y-48563855D01*
X9923809Y-49363855D02*
X9923809Y-48563855D01*
X9923809Y-48563855D02*
X10228571Y-48563855D01*
X10228571Y-48563855D02*
X10304761Y-48601950D01*
X10304761Y-48601950D02*
X10342856Y-48640045D01*
X10342856Y-48640045D02*
X10380952Y-48716236D01*
X10380952Y-48716236D02*
X10380952Y-48830521D01*
X10380952Y-48830521D02*
X10342856Y-48906712D01*
X10342856Y-48906712D02*
X10304761Y-48944807D01*
X10304761Y-48944807D02*
X10228571Y-48982902D01*
X10228571Y-48982902D02*
X9923809Y-48982902D01*
X11066666Y-48563855D02*
X10914285Y-48563855D01*
X10914285Y-48563855D02*
X10838094Y-48601950D01*
X10838094Y-48601950D02*
X10799999Y-48640045D01*
X10799999Y-48640045D02*
X10723809Y-48754331D01*
X10723809Y-48754331D02*
X10685713Y-48906712D01*
X10685713Y-48906712D02*
X10685713Y-49211474D01*
X10685713Y-49211474D02*
X10723809Y-49287664D01*
X10723809Y-49287664D02*
X10761904Y-49325760D01*
X10761904Y-49325760D02*
X10838094Y-49363855D01*
X10838094Y-49363855D02*
X10990475Y-49363855D01*
X10990475Y-49363855D02*
X11066666Y-49325760D01*
X11066666Y-49325760D02*
X11104761Y-49287664D01*
X11104761Y-49287664D02*
X11142856Y-49211474D01*
X11142856Y-49211474D02*
X11142856Y-49020998D01*
X11142856Y-49020998D02*
X11104761Y-48944807D01*
X11104761Y-48944807D02*
X11066666Y-48906712D01*
X11066666Y-48906712D02*
X10990475Y-48868617D01*
X10990475Y-48868617D02*
X10838094Y-48868617D01*
X10838094Y-48868617D02*
X10761904Y-48906712D01*
X10761904Y-48906712D02*
X10723809Y-48944807D01*
X10723809Y-48944807D02*
X10685713Y-49020998D01*
X11409523Y-48563855D02*
X11942857Y-48563855D01*
X11942857Y-48563855D02*
X11599999Y-49363855D01*
X13314286Y-49287664D02*
X13276190Y-49325760D01*
X13276190Y-49325760D02*
X13161905Y-49363855D01*
X13161905Y-49363855D02*
X13085714Y-49363855D01*
X13085714Y-49363855D02*
X12971428Y-49325760D01*
X12971428Y-49325760D02*
X12895238Y-49249569D01*
X12895238Y-49249569D02*
X12857143Y-49173379D01*
X12857143Y-49173379D02*
X12819047Y-49020998D01*
X12819047Y-49020998D02*
X12819047Y-48906712D01*
X12819047Y-48906712D02*
X12857143Y-48754331D01*
X12857143Y-48754331D02*
X12895238Y-48678140D01*
X12895238Y-48678140D02*
X12971428Y-48601950D01*
X12971428Y-48601950D02*
X13085714Y-48563855D01*
X13085714Y-48563855D02*
X13161905Y-48563855D01*
X13161905Y-48563855D02*
X13276190Y-48601950D01*
X13276190Y-48601950D02*
X13314286Y-48640045D01*
X13619047Y-49135283D02*
X14000000Y-49135283D01*
X13542857Y-49363855D02*
X13809524Y-48563855D01*
X13809524Y-48563855D02*
X14076190Y-49363855D01*
X14609523Y-48944807D02*
X14723809Y-48982902D01*
X14723809Y-48982902D02*
X14761904Y-49020998D01*
X14761904Y-49020998D02*
X14800000Y-49097188D01*
X14800000Y-49097188D02*
X14800000Y-49211474D01*
X14800000Y-49211474D02*
X14761904Y-49287664D01*
X14761904Y-49287664D02*
X14723809Y-49325760D01*
X14723809Y-49325760D02*
X14647619Y-49363855D01*
X14647619Y-49363855D02*
X14342857Y-49363855D01*
X14342857Y-49363855D02*
X14342857Y-48563855D01*
X14342857Y-48563855D02*
X14609523Y-48563855D01*
X14609523Y-48563855D02*
X14685714Y-48601950D01*
X14685714Y-48601950D02*
X14723809Y-48640045D01*
X14723809Y-48640045D02*
X14761904Y-48716236D01*
X14761904Y-48716236D02*
X14761904Y-48792426D01*
X14761904Y-48792426D02*
X14723809Y-48868617D01*
X14723809Y-48868617D02*
X14685714Y-48906712D01*
X14685714Y-48906712D02*
X14609523Y-48944807D01*
X14609523Y-48944807D02*
X14342857Y-48944807D01*
X15523809Y-49363855D02*
X15142857Y-49363855D01*
X15142857Y-49363855D02*
X15142857Y-48563855D01*
X15790476Y-48944807D02*
X16057142Y-48944807D01*
X16171428Y-49363855D02*
X15790476Y-49363855D01*
X15790476Y-49363855D02*
X15790476Y-48563855D01*
X15790476Y-48563855D02*
X16171428Y-48563855D01*
X17123810Y-49363855D02*
X17123810Y-48563855D01*
X17123810Y-48563855D02*
X17428572Y-48563855D01*
X17428572Y-48563855D02*
X17504762Y-48601950D01*
X17504762Y-48601950D02*
X17542857Y-48640045D01*
X17542857Y-48640045D02*
X17580953Y-48716236D01*
X17580953Y-48716236D02*
X17580953Y-48830521D01*
X17580953Y-48830521D02*
X17542857Y-48906712D01*
X17542857Y-48906712D02*
X17504762Y-48944807D01*
X17504762Y-48944807D02*
X17428572Y-48982902D01*
X17428572Y-48982902D02*
X17123810Y-48982902D01*
X17923810Y-49363855D02*
X17923810Y-48563855D01*
X17923810Y-48944807D02*
X18380953Y-48944807D01*
X18380953Y-49363855D02*
X18380953Y-48563855D01*
X18723809Y-48640045D02*
X18761905Y-48601950D01*
X18761905Y-48601950D02*
X18838095Y-48563855D01*
X18838095Y-48563855D02*
X19028571Y-48563855D01*
X19028571Y-48563855D02*
X19104762Y-48601950D01*
X19104762Y-48601950D02*
X19142857Y-48640045D01*
X19142857Y-48640045D02*
X19180952Y-48716236D01*
X19180952Y-48716236D02*
X19180952Y-48792426D01*
X19180952Y-48792426D02*
X19142857Y-48906712D01*
X19142857Y-48906712D02*
X18685714Y-49363855D01*
X18685714Y-49363855D02*
X19180952Y-49363855D01*
X19523810Y-49287664D02*
X19561905Y-49325760D01*
X19561905Y-49325760D02*
X19523810Y-49363855D01*
X19523810Y-49363855D02*
X19485714Y-49325760D01*
X19485714Y-49325760D02*
X19523810Y-49287664D01*
X19523810Y-49287664D02*
X19523810Y-49363855D01*
X20057143Y-48563855D02*
X20133333Y-48563855D01*
X20133333Y-48563855D02*
X20209524Y-48601950D01*
X20209524Y-48601950D02*
X20247619Y-48640045D01*
X20247619Y-48640045D02*
X20285714Y-48716236D01*
X20285714Y-48716236D02*
X20323809Y-48868617D01*
X20323809Y-48868617D02*
X20323809Y-49059093D01*
X20323809Y-49059093D02*
X20285714Y-49211474D01*
X20285714Y-49211474D02*
X20247619Y-49287664D01*
X20247619Y-49287664D02*
X20209524Y-49325760D01*
X20209524Y-49325760D02*
X20133333Y-49363855D01*
X20133333Y-49363855D02*
X20057143Y-49363855D01*
X20057143Y-49363855D02*
X19980952Y-49325760D01*
X19980952Y-49325760D02*
X19942857Y-49287664D01*
X19942857Y-49287664D02*
X19904762Y-49211474D01*
X19904762Y-49211474D02*
X19866666Y-49059093D01*
X19866666Y-49059093D02*
X19866666Y-48868617D01*
X19866666Y-48868617D02*
X19904762Y-48716236D01*
X19904762Y-48716236D02*
X19942857Y-48640045D01*
X19942857Y-48640045D02*
X19980952Y-48601950D01*
X19980952Y-48601950D02*
X20057143Y-48563855D01*
X21619048Y-48830521D02*
X21619048Y-49363855D01*
X21428572Y-48525760D02*
X21238095Y-49097188D01*
X21238095Y-49097188D02*
X21733334Y-49097188D01*
X22038096Y-49363855D02*
X22038096Y-48563855D01*
X22038096Y-48563855D02*
X22342858Y-48563855D01*
X22342858Y-48563855D02*
X22419048Y-48601950D01*
X22419048Y-48601950D02*
X22457143Y-48640045D01*
X22457143Y-48640045D02*
X22495239Y-48716236D01*
X22495239Y-48716236D02*
X22495239Y-48830521D01*
X22495239Y-48830521D02*
X22457143Y-48906712D01*
X22457143Y-48906712D02*
X22419048Y-48944807D01*
X22419048Y-48944807D02*
X22342858Y-48982902D01*
X22342858Y-48982902D02*
X22038096Y-48982902D01*
X21066667Y-47563855D02*
X21066667Y-48211474D01*
X21066667Y-48211474D02*
X21104762Y-48287664D01*
X21104762Y-48287664D02*
X21142857Y-48325760D01*
X21142857Y-48325760D02*
X21219048Y-48363855D01*
X21219048Y-48363855D02*
X21371429Y-48363855D01*
X21371429Y-48363855D02*
X21447619Y-48325760D01*
X21447619Y-48325760D02*
X21485714Y-48287664D01*
X21485714Y-48287664D02*
X21523810Y-48211474D01*
X21523810Y-48211474D02*
X21523810Y-47563855D01*
X21866666Y-48325760D02*
X21980952Y-48363855D01*
X21980952Y-48363855D02*
X22171428Y-48363855D01*
X22171428Y-48363855D02*
X22247619Y-48325760D01*
X22247619Y-48325760D02*
X22285714Y-48287664D01*
X22285714Y-48287664D02*
X22323809Y-48211474D01*
X22323809Y-48211474D02*
X22323809Y-48135283D01*
X22323809Y-48135283D02*
X22285714Y-48059093D01*
X22285714Y-48059093D02*
X22247619Y-48020998D01*
X22247619Y-48020998D02*
X22171428Y-47982902D01*
X22171428Y-47982902D02*
X22019047Y-47944807D01*
X22019047Y-47944807D02*
X21942857Y-47906712D01*
X21942857Y-47906712D02*
X21904762Y-47868617D01*
X21904762Y-47868617D02*
X21866666Y-47792426D01*
X21866666Y-47792426D02*
X21866666Y-47716236D01*
X21866666Y-47716236D02*
X21904762Y-47640045D01*
X21904762Y-47640045D02*
X21942857Y-47601950D01*
X21942857Y-47601950D02*
X22019047Y-47563855D01*
X22019047Y-47563855D02*
X22209524Y-47563855D01*
X22209524Y-47563855D02*
X22323809Y-47601950D01*
X22933333Y-47944807D02*
X23047619Y-47982902D01*
X23047619Y-47982902D02*
X23085714Y-48020998D01*
X23085714Y-48020998D02*
X23123810Y-48097188D01*
X23123810Y-48097188D02*
X23123810Y-48211474D01*
X23123810Y-48211474D02*
X23085714Y-48287664D01*
X23085714Y-48287664D02*
X23047619Y-48325760D01*
X23047619Y-48325760D02*
X22971429Y-48363855D01*
X22971429Y-48363855D02*
X22666667Y-48363855D01*
X22666667Y-48363855D02*
X22666667Y-47563855D01*
X22666667Y-47563855D02*
X22933333Y-47563855D01*
X22933333Y-47563855D02*
X23009524Y-47601950D01*
X23009524Y-47601950D02*
X23047619Y-47640045D01*
X23047619Y-47640045D02*
X23085714Y-47716236D01*
X23085714Y-47716236D02*
X23085714Y-47792426D01*
X23085714Y-47792426D02*
X23047619Y-47868617D01*
X23047619Y-47868617D02*
X23009524Y-47906712D01*
X23009524Y-47906712D02*
X22933333Y-47944807D01*
X22933333Y-47944807D02*
X22666667Y-47944807D01*
X23466667Y-48059093D02*
X24076191Y-48059093D01*
X24914286Y-48287664D02*
X24876190Y-48325760D01*
X24876190Y-48325760D02*
X24761905Y-48363855D01*
X24761905Y-48363855D02*
X24685714Y-48363855D01*
X24685714Y-48363855D02*
X24571428Y-48325760D01*
X24571428Y-48325760D02*
X24495238Y-48249569D01*
X24495238Y-48249569D02*
X24457143Y-48173379D01*
X24457143Y-48173379D02*
X24419047Y-48020998D01*
X24419047Y-48020998D02*
X24419047Y-47906712D01*
X24419047Y-47906712D02*
X24457143Y-47754331D01*
X24457143Y-47754331D02*
X24495238Y-47678140D01*
X24495238Y-47678140D02*
X24571428Y-47601950D01*
X24571428Y-47601950D02*
X24685714Y-47563855D01*
X24685714Y-47563855D02*
X24761905Y-47563855D01*
X24761905Y-47563855D02*
X24876190Y-47601950D01*
X24876190Y-47601950D02*
X24914286Y-47640045D01*
X26247619Y-47563855D02*
X25866667Y-47563855D01*
X25866667Y-47563855D02*
X25828571Y-47944807D01*
X25828571Y-47944807D02*
X25866667Y-47906712D01*
X25866667Y-47906712D02*
X25942857Y-47868617D01*
X25942857Y-47868617D02*
X26133333Y-47868617D01*
X26133333Y-47868617D02*
X26209524Y-47906712D01*
X26209524Y-47906712D02*
X26247619Y-47944807D01*
X26247619Y-47944807D02*
X26285714Y-48020998D01*
X26285714Y-48020998D02*
X26285714Y-48211474D01*
X26285714Y-48211474D02*
X26247619Y-48287664D01*
X26247619Y-48287664D02*
X26209524Y-48325760D01*
X26209524Y-48325760D02*
X26133333Y-48363855D01*
X26133333Y-48363855D02*
X25942857Y-48363855D01*
X25942857Y-48363855D02*
X25866667Y-48325760D01*
X25866667Y-48325760D02*
X25828571Y-48287664D01*
X26514286Y-47563855D02*
X26780953Y-48363855D01*
X26780953Y-48363855D02*
X27047619Y-47563855D01*
X52742857Y-47363855D02*
X52742857Y-46563855D01*
X52742857Y-46563855D02*
X53047619Y-46563855D01*
X53047619Y-46563855D02*
X53123809Y-46601950D01*
X53123809Y-46601950D02*
X53161904Y-46640045D01*
X53161904Y-46640045D02*
X53200000Y-46716236D01*
X53200000Y-46716236D02*
X53200000Y-46830521D01*
X53200000Y-46830521D02*
X53161904Y-46906712D01*
X53161904Y-46906712D02*
X53123809Y-46944807D01*
X53123809Y-46944807D02*
X53047619Y-46982902D01*
X53047619Y-46982902D02*
X52742857Y-46982902D01*
X53428571Y-46563855D02*
X53885714Y-46563855D01*
X53657142Y-47363855D02*
X53657142Y-46563855D01*
X54609524Y-47287664D02*
X54571428Y-47325760D01*
X54571428Y-47325760D02*
X54457143Y-47363855D01*
X54457143Y-47363855D02*
X54380952Y-47363855D01*
X54380952Y-47363855D02*
X54266666Y-47325760D01*
X54266666Y-47325760D02*
X54190476Y-47249569D01*
X54190476Y-47249569D02*
X54152381Y-47173379D01*
X54152381Y-47173379D02*
X54114285Y-47020998D01*
X54114285Y-47020998D02*
X54114285Y-46906712D01*
X54114285Y-46906712D02*
X54152381Y-46754331D01*
X54152381Y-46754331D02*
X54190476Y-46678140D01*
X54190476Y-46678140D02*
X54266666Y-46601950D01*
X54266666Y-46601950D02*
X54380952Y-46563855D01*
X54380952Y-46563855D02*
X54457143Y-46563855D01*
X54457143Y-46563855D02*
X54571428Y-46601950D01*
X54571428Y-46601950D02*
X54609524Y-46640045D01*
X55561905Y-47059093D02*
X56171429Y-47059093D01*
X55866667Y-47363855D02*
X55866667Y-46754331D01*
X57047619Y-46563855D02*
X57504762Y-46563855D01*
X57276190Y-47363855D02*
X57276190Y-46563855D01*
X57657143Y-46563855D02*
X57923810Y-47363855D01*
X57923810Y-47363855D02*
X58190476Y-46563855D01*
X58419047Y-47325760D02*
X58533333Y-47363855D01*
X58533333Y-47363855D02*
X58723809Y-47363855D01*
X58723809Y-47363855D02*
X58800000Y-47325760D01*
X58800000Y-47325760D02*
X58838095Y-47287664D01*
X58838095Y-47287664D02*
X58876190Y-47211474D01*
X58876190Y-47211474D02*
X58876190Y-47135283D01*
X58876190Y-47135283D02*
X58838095Y-47059093D01*
X58838095Y-47059093D02*
X58800000Y-47020998D01*
X58800000Y-47020998D02*
X58723809Y-46982902D01*
X58723809Y-46982902D02*
X58571428Y-46944807D01*
X58571428Y-46944807D02*
X58495238Y-46906712D01*
X58495238Y-46906712D02*
X58457143Y-46868617D01*
X58457143Y-46868617D02*
X58419047Y-46792426D01*
X58419047Y-46792426D02*
X58419047Y-46716236D01*
X58419047Y-46716236D02*
X58457143Y-46640045D01*
X58457143Y-46640045D02*
X58495238Y-46601950D01*
X58495238Y-46601950D02*
X58571428Y-46563855D01*
X58571428Y-46563855D02*
X58761905Y-46563855D01*
X58761905Y-46563855D02*
X58876190Y-46601950D01*
X59828572Y-47059093D02*
X60438096Y-47059093D01*
X60133334Y-47363855D02*
X60133334Y-46754331D01*
X61352381Y-46563855D02*
X61847619Y-46563855D01*
X61847619Y-46563855D02*
X61580953Y-46868617D01*
X61580953Y-46868617D02*
X61695238Y-46868617D01*
X61695238Y-46868617D02*
X61771429Y-46906712D01*
X61771429Y-46906712D02*
X61809524Y-46944807D01*
X61809524Y-46944807D02*
X61847619Y-47020998D01*
X61847619Y-47020998D02*
X61847619Y-47211474D01*
X61847619Y-47211474D02*
X61809524Y-47287664D01*
X61809524Y-47287664D02*
X61771429Y-47325760D01*
X61771429Y-47325760D02*
X61695238Y-47363855D01*
X61695238Y-47363855D02*
X61466667Y-47363855D01*
X61466667Y-47363855D02*
X61390476Y-47325760D01*
X61390476Y-47325760D02*
X61352381Y-47287664D01*
X62076191Y-46563855D02*
X62342858Y-47363855D01*
X62342858Y-47363855D02*
X62609524Y-46563855D01*
X62800000Y-46563855D02*
X63295238Y-46563855D01*
X63295238Y-46563855D02*
X63028572Y-46868617D01*
X63028572Y-46868617D02*
X63142857Y-46868617D01*
X63142857Y-46868617D02*
X63219048Y-46906712D01*
X63219048Y-46906712D02*
X63257143Y-46944807D01*
X63257143Y-46944807D02*
X63295238Y-47020998D01*
X63295238Y-47020998D02*
X63295238Y-47211474D01*
X63295238Y-47211474D02*
X63257143Y-47287664D01*
X63257143Y-47287664D02*
X63219048Y-47325760D01*
X63219048Y-47325760D02*
X63142857Y-47363855D01*
X63142857Y-47363855D02*
X62914286Y-47363855D01*
X62914286Y-47363855D02*
X62838095Y-47325760D01*
X62838095Y-47325760D02*
X62800000Y-47287664D01*
X58552381Y-6325760D02*
X58666667Y-6363855D01*
X58666667Y-6363855D02*
X58857143Y-6363855D01*
X58857143Y-6363855D02*
X58933334Y-6325760D01*
X58933334Y-6325760D02*
X58971429Y-6287664D01*
X58971429Y-6287664D02*
X59009524Y-6211474D01*
X59009524Y-6211474D02*
X59009524Y-6135283D01*
X59009524Y-6135283D02*
X58971429Y-6059093D01*
X58971429Y-6059093D02*
X58933334Y-6020998D01*
X58933334Y-6020998D02*
X58857143Y-5982902D01*
X58857143Y-5982902D02*
X58704762Y-5944807D01*
X58704762Y-5944807D02*
X58628572Y-5906712D01*
X58628572Y-5906712D02*
X58590477Y-5868617D01*
X58590477Y-5868617D02*
X58552381Y-5792426D01*
X58552381Y-5792426D02*
X58552381Y-5716236D01*
X58552381Y-5716236D02*
X58590477Y-5640045D01*
X58590477Y-5640045D02*
X58628572Y-5601950D01*
X58628572Y-5601950D02*
X58704762Y-5563855D01*
X58704762Y-5563855D02*
X58895239Y-5563855D01*
X58895239Y-5563855D02*
X59009524Y-5601950D01*
X59352382Y-6363855D02*
X59352382Y-5563855D01*
X59352382Y-5563855D02*
X59619048Y-6135283D01*
X59619048Y-6135283D02*
X59885715Y-5563855D01*
X59885715Y-5563855D02*
X59885715Y-6363855D01*
X60228572Y-6135283D02*
X60609525Y-6135283D01*
X60152382Y-6363855D02*
X60419049Y-5563855D01*
X60419049Y-5563855D02*
X60685715Y-6363855D01*
X61409525Y-6363855D02*
X61142858Y-5982902D01*
X60952382Y-6363855D02*
X60952382Y-5563855D01*
X60952382Y-5563855D02*
X61257144Y-5563855D01*
X61257144Y-5563855D02*
X61333334Y-5601950D01*
X61333334Y-5601950D02*
X61371429Y-5640045D01*
X61371429Y-5640045D02*
X61409525Y-5716236D01*
X61409525Y-5716236D02*
X61409525Y-5830521D01*
X61409525Y-5830521D02*
X61371429Y-5906712D01*
X61371429Y-5906712D02*
X61333334Y-5944807D01*
X61333334Y-5944807D02*
X61257144Y-5982902D01*
X61257144Y-5982902D02*
X60952382Y-5982902D01*
X61638096Y-5563855D02*
X62095239Y-5563855D01*
X61866667Y-6363855D02*
X61866667Y-5563855D01*
X63238096Y-5944807D02*
X63352382Y-5982902D01*
X63352382Y-5982902D02*
X63390477Y-6020998D01*
X63390477Y-6020998D02*
X63428573Y-6097188D01*
X63428573Y-6097188D02*
X63428573Y-6211474D01*
X63428573Y-6211474D02*
X63390477Y-6287664D01*
X63390477Y-6287664D02*
X63352382Y-6325760D01*
X63352382Y-6325760D02*
X63276192Y-6363855D01*
X63276192Y-6363855D02*
X62971430Y-6363855D01*
X62971430Y-6363855D02*
X62971430Y-5563855D01*
X62971430Y-5563855D02*
X63238096Y-5563855D01*
X63238096Y-5563855D02*
X63314287Y-5601950D01*
X63314287Y-5601950D02*
X63352382Y-5640045D01*
X63352382Y-5640045D02*
X63390477Y-5716236D01*
X63390477Y-5716236D02*
X63390477Y-5792426D01*
X63390477Y-5792426D02*
X63352382Y-5868617D01*
X63352382Y-5868617D02*
X63314287Y-5906712D01*
X63314287Y-5906712D02*
X63238096Y-5944807D01*
X63238096Y-5944807D02*
X62971430Y-5944807D01*
X63771430Y-6363855D02*
X63771430Y-5563855D01*
X64152382Y-6363855D02*
X64152382Y-5563855D01*
X64152382Y-5563855D02*
X64609525Y-6363855D01*
X64609525Y-6363855D02*
X64609525Y-5563855D01*
X65866667Y-5944807D02*
X65600001Y-5944807D01*
X65600001Y-6363855D02*
X65600001Y-5563855D01*
X65600001Y-5563855D02*
X65980953Y-5563855D01*
X66285715Y-6363855D02*
X66285715Y-5563855D01*
X67047619Y-6363855D02*
X66666667Y-6363855D01*
X66666667Y-6363855D02*
X66666667Y-5563855D01*
X67695238Y-6363855D02*
X67314286Y-6363855D01*
X67314286Y-6363855D02*
X67314286Y-5563855D01*
X68571429Y-6363855D02*
X68571429Y-5563855D01*
X68571429Y-5563855D02*
X68838095Y-6135283D01*
X68838095Y-6135283D02*
X69104762Y-5563855D01*
X69104762Y-5563855D02*
X69104762Y-6363855D01*
X69638096Y-5563855D02*
X69790477Y-5563855D01*
X69790477Y-5563855D02*
X69866667Y-5601950D01*
X69866667Y-5601950D02*
X69942858Y-5678140D01*
X69942858Y-5678140D02*
X69980953Y-5830521D01*
X69980953Y-5830521D02*
X69980953Y-6097188D01*
X69980953Y-6097188D02*
X69942858Y-6249569D01*
X69942858Y-6249569D02*
X69866667Y-6325760D01*
X69866667Y-6325760D02*
X69790477Y-6363855D01*
X69790477Y-6363855D02*
X69638096Y-6363855D01*
X69638096Y-6363855D02*
X69561905Y-6325760D01*
X69561905Y-6325760D02*
X69485715Y-6249569D01*
X69485715Y-6249569D02*
X69447619Y-6097188D01*
X69447619Y-6097188D02*
X69447619Y-5830521D01*
X69447619Y-5830521D02*
X69485715Y-5678140D01*
X69485715Y-5678140D02*
X69561905Y-5601950D01*
X69561905Y-5601950D02*
X69638096Y-5563855D01*
X70323810Y-6363855D02*
X70323810Y-5563855D01*
X70323810Y-5563855D02*
X70780953Y-6363855D01*
X70780953Y-6363855D02*
X70780953Y-5563855D01*
X71161905Y-6363855D02*
X71161905Y-5563855D01*
X71428571Y-5563855D02*
X71885714Y-5563855D01*
X71657142Y-6363855D02*
X71657142Y-5563855D01*
X72304762Y-5563855D02*
X72457143Y-5563855D01*
X72457143Y-5563855D02*
X72533333Y-5601950D01*
X72533333Y-5601950D02*
X72609524Y-5678140D01*
X72609524Y-5678140D02*
X72647619Y-5830521D01*
X72647619Y-5830521D02*
X72647619Y-6097188D01*
X72647619Y-6097188D02*
X72609524Y-6249569D01*
X72609524Y-6249569D02*
X72533333Y-6325760D01*
X72533333Y-6325760D02*
X72457143Y-6363855D01*
X72457143Y-6363855D02*
X72304762Y-6363855D01*
X72304762Y-6363855D02*
X72228571Y-6325760D01*
X72228571Y-6325760D02*
X72152381Y-6249569D01*
X72152381Y-6249569D02*
X72114285Y-6097188D01*
X72114285Y-6097188D02*
X72114285Y-5830521D01*
X72114285Y-5830521D02*
X72152381Y-5678140D01*
X72152381Y-5678140D02*
X72228571Y-5601950D01*
X72228571Y-5601950D02*
X72304762Y-5563855D01*
X73447619Y-6363855D02*
X73180952Y-5982902D01*
X72990476Y-6363855D02*
X72990476Y-5563855D01*
X72990476Y-5563855D02*
X73295238Y-5563855D01*
X73295238Y-5563855D02*
X73371428Y-5601950D01*
X73371428Y-5601950D02*
X73409523Y-5640045D01*
X73409523Y-5640045D02*
X73447619Y-5716236D01*
X73447619Y-5716236D02*
X73447619Y-5830521D01*
X73447619Y-5830521D02*
X73409523Y-5906712D01*
X73409523Y-5906712D02*
X73371428Y-5944807D01*
X73371428Y-5944807D02*
X73295238Y-5982902D01*
X73295238Y-5982902D02*
X72990476Y-5982902D01*
X75523809Y-45944807D02*
X75257143Y-45944807D01*
X75257143Y-46363855D02*
X75257143Y-45563855D01*
X75257143Y-45563855D02*
X75638095Y-45563855D01*
X75904761Y-46135283D02*
X76285714Y-46135283D01*
X75828571Y-46363855D02*
X76095238Y-45563855D01*
X76095238Y-45563855D02*
X76361904Y-46363855D01*
X77085714Y-46287664D02*
X77047618Y-46325760D01*
X77047618Y-46325760D02*
X76933333Y-46363855D01*
X76933333Y-46363855D02*
X76857142Y-46363855D01*
X76857142Y-46363855D02*
X76742856Y-46325760D01*
X76742856Y-46325760D02*
X76666666Y-46249569D01*
X76666666Y-46249569D02*
X76628571Y-46173379D01*
X76628571Y-46173379D02*
X76590475Y-46020998D01*
X76590475Y-46020998D02*
X76590475Y-45906712D01*
X76590475Y-45906712D02*
X76628571Y-45754331D01*
X76628571Y-45754331D02*
X76666666Y-45678140D01*
X76666666Y-45678140D02*
X76742856Y-45601950D01*
X76742856Y-45601950D02*
X76857142Y-45563855D01*
X76857142Y-45563855D02*
X76933333Y-45563855D01*
X76933333Y-45563855D02*
X77047618Y-45601950D01*
X77047618Y-45601950D02*
X77085714Y-45640045D01*
X77314285Y-45563855D02*
X77771428Y-45563855D01*
X77542856Y-46363855D02*
X77542856Y-45563855D01*
X78190476Y-45563855D02*
X78342857Y-45563855D01*
X78342857Y-45563855D02*
X78419047Y-45601950D01*
X78419047Y-45601950D02*
X78495238Y-45678140D01*
X78495238Y-45678140D02*
X78533333Y-45830521D01*
X78533333Y-45830521D02*
X78533333Y-46097188D01*
X78533333Y-46097188D02*
X78495238Y-46249569D01*
X78495238Y-46249569D02*
X78419047Y-46325760D01*
X78419047Y-46325760D02*
X78342857Y-46363855D01*
X78342857Y-46363855D02*
X78190476Y-46363855D01*
X78190476Y-46363855D02*
X78114285Y-46325760D01*
X78114285Y-46325760D02*
X78038095Y-46249569D01*
X78038095Y-46249569D02*
X77999999Y-46097188D01*
X77999999Y-46097188D02*
X77999999Y-45830521D01*
X77999999Y-45830521D02*
X78038095Y-45678140D01*
X78038095Y-45678140D02*
X78114285Y-45601950D01*
X78114285Y-45601950D02*
X78190476Y-45563855D01*
X79333333Y-46363855D02*
X79066666Y-45982902D01*
X78876190Y-46363855D02*
X78876190Y-45563855D01*
X78876190Y-45563855D02*
X79180952Y-45563855D01*
X79180952Y-45563855D02*
X79257142Y-45601950D01*
X79257142Y-45601950D02*
X79295237Y-45640045D01*
X79295237Y-45640045D02*
X79333333Y-45716236D01*
X79333333Y-45716236D02*
X79333333Y-45830521D01*
X79333333Y-45830521D02*
X79295237Y-45906712D01*
X79295237Y-45906712D02*
X79257142Y-45944807D01*
X79257142Y-45944807D02*
X79180952Y-45982902D01*
X79180952Y-45982902D02*
X78876190Y-45982902D01*
X79828571Y-45982902D02*
X79828571Y-46363855D01*
X79561904Y-45563855D02*
X79828571Y-45982902D01*
X79828571Y-45982902D02*
X80095237Y-45563855D01*
X81542856Y-45525760D02*
X80857142Y-46554331D01*
X82304761Y-45563855D02*
X82761904Y-45563855D01*
X82533332Y-46363855D02*
X82533332Y-45563855D01*
X83028571Y-45944807D02*
X83295237Y-45944807D01*
X83409523Y-46363855D02*
X83028571Y-46363855D01*
X83028571Y-46363855D02*
X83028571Y-45563855D01*
X83028571Y-45563855D02*
X83409523Y-45563855D01*
X83714285Y-46325760D02*
X83828571Y-46363855D01*
X83828571Y-46363855D02*
X84019047Y-46363855D01*
X84019047Y-46363855D02*
X84095238Y-46325760D01*
X84095238Y-46325760D02*
X84133333Y-46287664D01*
X84133333Y-46287664D02*
X84171428Y-46211474D01*
X84171428Y-46211474D02*
X84171428Y-46135283D01*
X84171428Y-46135283D02*
X84133333Y-46059093D01*
X84133333Y-46059093D02*
X84095238Y-46020998D01*
X84095238Y-46020998D02*
X84019047Y-45982902D01*
X84019047Y-45982902D02*
X83866666Y-45944807D01*
X83866666Y-45944807D02*
X83790476Y-45906712D01*
X83790476Y-45906712D02*
X83752381Y-45868617D01*
X83752381Y-45868617D02*
X83714285Y-45792426D01*
X83714285Y-45792426D02*
X83714285Y-45716236D01*
X83714285Y-45716236D02*
X83752381Y-45640045D01*
X83752381Y-45640045D02*
X83790476Y-45601950D01*
X83790476Y-45601950D02*
X83866666Y-45563855D01*
X83866666Y-45563855D02*
X84057143Y-45563855D01*
X84057143Y-45563855D02*
X84171428Y-45601950D01*
X84400000Y-45563855D02*
X84857143Y-45563855D01*
X84628571Y-46363855D02*
X84628571Y-45563855D01*
D11*
X81996428Y-25941359D02*
X82117856Y-25981835D01*
X82117856Y-25981835D02*
X82158333Y-26022311D01*
X82158333Y-26022311D02*
X82198809Y-26103263D01*
X82198809Y-26103263D02*
X82198809Y-26224692D01*
X82198809Y-26224692D02*
X82158333Y-26305644D01*
X82158333Y-26305644D02*
X82117856Y-26346121D01*
X82117856Y-26346121D02*
X82036904Y-26386597D01*
X82036904Y-26386597D02*
X81713094Y-26386597D01*
X81713094Y-26386597D02*
X81713094Y-25536597D01*
X81713094Y-25536597D02*
X81996428Y-25536597D01*
X81996428Y-25536597D02*
X82077380Y-25577073D01*
X82077380Y-25577073D02*
X82117856Y-25617549D01*
X82117856Y-25617549D02*
X82158333Y-25698501D01*
X82158333Y-25698501D02*
X82158333Y-25779454D01*
X82158333Y-25779454D02*
X82117856Y-25860406D01*
X82117856Y-25860406D02*
X82077380Y-25900882D01*
X82077380Y-25900882D02*
X81996428Y-25941359D01*
X81996428Y-25941359D02*
X81713094Y-25941359D01*
X82563094Y-25536597D02*
X82563094Y-26224692D01*
X82563094Y-26224692D02*
X82603571Y-26305644D01*
X82603571Y-26305644D02*
X82644047Y-26346121D01*
X82644047Y-26346121D02*
X82724999Y-26386597D01*
X82724999Y-26386597D02*
X82886904Y-26386597D01*
X82886904Y-26386597D02*
X82967856Y-26346121D01*
X82967856Y-26346121D02*
X83008333Y-26305644D01*
X83008333Y-26305644D02*
X83048809Y-26224692D01*
X83048809Y-26224692D02*
X83048809Y-25536597D01*
X83372618Y-25536597D02*
X83939285Y-25536597D01*
X83939285Y-25536597D02*
X83372618Y-26386597D01*
X83372618Y-26386597D02*
X83939285Y-26386597D01*
X84182142Y-25536597D02*
X84748809Y-25536597D01*
X84748809Y-25536597D02*
X84182142Y-26386597D01*
X84182142Y-26386597D02*
X84748809Y-26386597D01*
X85072618Y-25941359D02*
X85355952Y-25941359D01*
X85477380Y-26386597D02*
X85072618Y-26386597D01*
X85072618Y-26386597D02*
X85072618Y-25536597D01*
X85072618Y-25536597D02*
X85477380Y-25536597D01*
X86327381Y-26386597D02*
X86044047Y-25981835D01*
X85841666Y-26386597D02*
X85841666Y-25536597D01*
X85841666Y-25536597D02*
X86165476Y-25536597D01*
X86165476Y-25536597D02*
X86246428Y-25577073D01*
X86246428Y-25577073D02*
X86286905Y-25617549D01*
X86286905Y-25617549D02*
X86327381Y-25698501D01*
X86327381Y-25698501D02*
X86327381Y-25819930D01*
X86327381Y-25819930D02*
X86286905Y-25900882D01*
X86286905Y-25900882D02*
X86246428Y-25941359D01*
X86246428Y-25941359D02*
X86165476Y-25981835D01*
X86165476Y-25981835D02*
X85841666Y-25981835D01*
D12*
X9171428Y-35366480D02*
X9300000Y-35409337D01*
X9300000Y-35409337D02*
X9514285Y-35409337D01*
X9514285Y-35409337D02*
X9600000Y-35366480D01*
X9600000Y-35366480D02*
X9642857Y-35323622D01*
X9642857Y-35323622D02*
X9685714Y-35237908D01*
X9685714Y-35237908D02*
X9685714Y-35152194D01*
X9685714Y-35152194D02*
X9642857Y-35066480D01*
X9642857Y-35066480D02*
X9600000Y-35023622D01*
X9600000Y-35023622D02*
X9514285Y-34980765D01*
X9514285Y-34980765D02*
X9342857Y-34937908D01*
X9342857Y-34937908D02*
X9257142Y-34895051D01*
X9257142Y-34895051D02*
X9214285Y-34852194D01*
X9214285Y-34852194D02*
X9171428Y-34766480D01*
X9171428Y-34766480D02*
X9171428Y-34680765D01*
X9171428Y-34680765D02*
X9214285Y-34595051D01*
X9214285Y-34595051D02*
X9257142Y-34552194D01*
X9257142Y-34552194D02*
X9342857Y-34509337D01*
X9342857Y-34509337D02*
X9557142Y-34509337D01*
X9557142Y-34509337D02*
X9685714Y-34552194D01*
X10071428Y-34937908D02*
X10371428Y-34937908D01*
X10500000Y-35409337D02*
X10071428Y-35409337D01*
X10071428Y-35409337D02*
X10071428Y-34509337D01*
X10071428Y-34509337D02*
X10500000Y-34509337D01*
X10885714Y-35409337D02*
X10885714Y-34509337D01*
X10885714Y-34509337D02*
X11400000Y-35409337D01*
X11400000Y-35409337D02*
X11400000Y-34509337D01*
X11785714Y-35366480D02*
X11914286Y-35409337D01*
X11914286Y-35409337D02*
X12128571Y-35409337D01*
X12128571Y-35409337D02*
X12214286Y-35366480D01*
X12214286Y-35366480D02*
X12257143Y-35323622D01*
X12257143Y-35323622D02*
X12300000Y-35237908D01*
X12300000Y-35237908D02*
X12300000Y-35152194D01*
X12300000Y-35152194D02*
X12257143Y-35066480D01*
X12257143Y-35066480D02*
X12214286Y-35023622D01*
X12214286Y-35023622D02*
X12128571Y-34980765D01*
X12128571Y-34980765D02*
X11957143Y-34937908D01*
X11957143Y-34937908D02*
X11871428Y-34895051D01*
X11871428Y-34895051D02*
X11828571Y-34852194D01*
X11828571Y-34852194D02*
X11785714Y-34766480D01*
X11785714Y-34766480D02*
X11785714Y-34680765D01*
X11785714Y-34680765D02*
X11828571Y-34595051D01*
X11828571Y-34595051D02*
X11871428Y-34552194D01*
X11871428Y-34552194D02*
X11957143Y-34509337D01*
X11957143Y-34509337D02*
X12171428Y-34509337D01*
X12171428Y-34509337D02*
X12300000Y-34552194D01*
X12857143Y-34509337D02*
X13028571Y-34509337D01*
X13028571Y-34509337D02*
X13114286Y-34552194D01*
X13114286Y-34552194D02*
X13200000Y-34637908D01*
X13200000Y-34637908D02*
X13242857Y-34809337D01*
X13242857Y-34809337D02*
X13242857Y-35109337D01*
X13242857Y-35109337D02*
X13200000Y-35280765D01*
X13200000Y-35280765D02*
X13114286Y-35366480D01*
X13114286Y-35366480D02*
X13028571Y-35409337D01*
X13028571Y-35409337D02*
X12857143Y-35409337D01*
X12857143Y-35409337D02*
X12771429Y-35366480D01*
X12771429Y-35366480D02*
X12685714Y-35280765D01*
X12685714Y-35280765D02*
X12642857Y-35109337D01*
X12642857Y-35109337D02*
X12642857Y-34809337D01*
X12642857Y-34809337D02*
X12685714Y-34637908D01*
X12685714Y-34637908D02*
X12771429Y-34552194D01*
X12771429Y-34552194D02*
X12857143Y-34509337D01*
X14142857Y-35409337D02*
X13842857Y-34980765D01*
X13628571Y-35409337D02*
X13628571Y-34509337D01*
X13628571Y-34509337D02*
X13971428Y-34509337D01*
X13971428Y-34509337D02*
X14057143Y-34552194D01*
X14057143Y-34552194D02*
X14100000Y-34595051D01*
X14100000Y-34595051D02*
X14142857Y-34680765D01*
X14142857Y-34680765D02*
X14142857Y-34809337D01*
X14142857Y-34809337D02*
X14100000Y-34895051D01*
X14100000Y-34895051D02*
X14057143Y-34937908D01*
X14057143Y-34937908D02*
X13971428Y-34980765D01*
X13971428Y-34980765D02*
X13628571Y-34980765D01*
X15171428Y-35152194D02*
X15600000Y-35152194D01*
X15085714Y-35409337D02*
X15385714Y-34509337D01*
X15385714Y-34509337D02*
X15685714Y-35409337D01*
X16157143Y-34509337D02*
X16242857Y-34509337D01*
X16242857Y-34509337D02*
X16328571Y-34552194D01*
X16328571Y-34552194D02*
X16371429Y-34595051D01*
X16371429Y-34595051D02*
X16414286Y-34680765D01*
X16414286Y-34680765D02*
X16457143Y-34852194D01*
X16457143Y-34852194D02*
X16457143Y-35066480D01*
X16457143Y-35066480D02*
X16414286Y-35237908D01*
X16414286Y-35237908D02*
X16371429Y-35323622D01*
X16371429Y-35323622D02*
X16328571Y-35366480D01*
X16328571Y-35366480D02*
X16242857Y-35409337D01*
X16242857Y-35409337D02*
X16157143Y-35409337D01*
X16157143Y-35409337D02*
X16071429Y-35366480D01*
X16071429Y-35366480D02*
X16028571Y-35323622D01*
X16028571Y-35323622D02*
X15985714Y-35237908D01*
X15985714Y-35237908D02*
X15942857Y-35066480D01*
X15942857Y-35066480D02*
X15942857Y-34852194D01*
X15942857Y-34852194D02*
X15985714Y-34680765D01*
X15985714Y-34680765D02*
X16028571Y-34595051D01*
X16028571Y-34595051D02*
X16071429Y-34552194D01*
X16071429Y-34552194D02*
X16157143Y-34509337D01*
X16800000Y-34595051D02*
X16842857Y-34552194D01*
X16842857Y-34552194D02*
X16928572Y-34509337D01*
X16928572Y-34509337D02*
X17142857Y-34509337D01*
X17142857Y-34509337D02*
X17228572Y-34552194D01*
X17228572Y-34552194D02*
X17271429Y-34595051D01*
X17271429Y-34595051D02*
X17314286Y-34680765D01*
X17314286Y-34680765D02*
X17314286Y-34766480D01*
X17314286Y-34766480D02*
X17271429Y-34895051D01*
X17271429Y-34895051D02*
X16757143Y-35409337D01*
X16757143Y-35409337D02*
X17314286Y-35409337D01*
X17871429Y-34980765D02*
X17871429Y-35409337D01*
X17571429Y-34509337D02*
X17871429Y-34980765D01*
X17871429Y-34980765D02*
X18171429Y-34509337D01*
X18642858Y-34980765D02*
X18642858Y-35409337D01*
X18342858Y-34509337D02*
X18642858Y-34980765D01*
X18642858Y-34980765D02*
X18942858Y-34509337D01*
X19242858Y-34509337D02*
X19242858Y-35237908D01*
X19242858Y-35237908D02*
X19285715Y-35323622D01*
X19285715Y-35323622D02*
X19328573Y-35366480D01*
X19328573Y-35366480D02*
X19414287Y-35409337D01*
X19414287Y-35409337D02*
X19585715Y-35409337D01*
X19585715Y-35409337D02*
X19671430Y-35366480D01*
X19671430Y-35366480D02*
X19714287Y-35323622D01*
X19714287Y-35323622D02*
X19757144Y-35237908D01*
X19757144Y-35237908D02*
X19757144Y-34509337D01*
X20100001Y-34509337D02*
X20314287Y-35409337D01*
X20314287Y-35409337D02*
X20485715Y-34766480D01*
X20485715Y-34766480D02*
X20657144Y-35409337D01*
X20657144Y-35409337D02*
X20871430Y-34509337D01*
X19628571Y-9109337D02*
X19928571Y-10009337D01*
X19928571Y-10009337D02*
X20228571Y-9109337D01*
X21000000Y-10009337D02*
X20485714Y-10009337D01*
X20742857Y-10009337D02*
X20742857Y-9109337D01*
X20742857Y-9109337D02*
X20657143Y-9237908D01*
X20657143Y-9237908D02*
X20571428Y-9323622D01*
X20571428Y-9323622D02*
X20485714Y-9366480D01*
X21385714Y-9923622D02*
X21428571Y-9966480D01*
X21428571Y-9966480D02*
X21385714Y-10009337D01*
X21385714Y-10009337D02*
X21342857Y-9966480D01*
X21342857Y-9966480D02*
X21385714Y-9923622D01*
X21385714Y-9923622D02*
X21385714Y-10009337D01*
X21985714Y-9109337D02*
X22071428Y-9109337D01*
X22071428Y-9109337D02*
X22157142Y-9152194D01*
X22157142Y-9152194D02*
X22200000Y-9195051D01*
X22200000Y-9195051D02*
X22242857Y-9280765D01*
X22242857Y-9280765D02*
X22285714Y-9452194D01*
X22285714Y-9452194D02*
X22285714Y-9666480D01*
X22285714Y-9666480D02*
X22242857Y-9837908D01*
X22242857Y-9837908D02*
X22200000Y-9923622D01*
X22200000Y-9923622D02*
X22157142Y-9966480D01*
X22157142Y-9966480D02*
X22071428Y-10009337D01*
X22071428Y-10009337D02*
X21985714Y-10009337D01*
X21985714Y-10009337D02*
X21900000Y-9966480D01*
X21900000Y-9966480D02*
X21857142Y-9923622D01*
X21857142Y-9923622D02*
X21814285Y-9837908D01*
X21814285Y-9837908D02*
X21771428Y-9666480D01*
X21771428Y-9666480D02*
X21771428Y-9452194D01*
X21771428Y-9452194D02*
X21814285Y-9280765D01*
X21814285Y-9280765D02*
X21857142Y-9195051D01*
X21857142Y-9195051D02*
X21900000Y-9152194D01*
X21900000Y-9152194D02*
X21985714Y-9109337D01*
D13*
X19684523Y-11386840D02*
X19820237Y-11432078D01*
X19820237Y-11432078D02*
X20046428Y-11432078D01*
X20046428Y-11432078D02*
X20136904Y-11386840D01*
X20136904Y-11386840D02*
X20182142Y-11341601D01*
X20182142Y-11341601D02*
X20227380Y-11251125D01*
X20227380Y-11251125D02*
X20227380Y-11160649D01*
X20227380Y-11160649D02*
X20182142Y-11070173D01*
X20182142Y-11070173D02*
X20136904Y-11024935D01*
X20136904Y-11024935D02*
X20046428Y-10979697D01*
X20046428Y-10979697D02*
X19865475Y-10934459D01*
X19865475Y-10934459D02*
X19774999Y-10889220D01*
X19774999Y-10889220D02*
X19729761Y-10843982D01*
X19729761Y-10843982D02*
X19684523Y-10753506D01*
X19684523Y-10753506D02*
X19684523Y-10663030D01*
X19684523Y-10663030D02*
X19729761Y-10572554D01*
X19729761Y-10572554D02*
X19774999Y-10527316D01*
X19774999Y-10527316D02*
X19865475Y-10482078D01*
X19865475Y-10482078D02*
X20091666Y-10482078D01*
X20091666Y-10482078D02*
X20227380Y-10527316D01*
X20634523Y-10934459D02*
X20951190Y-10934459D01*
X21086904Y-11432078D02*
X20634523Y-11432078D01*
X20634523Y-11432078D02*
X20634523Y-10482078D01*
X20634523Y-10482078D02*
X21086904Y-10482078D01*
X21494047Y-11432078D02*
X21494047Y-10482078D01*
X21494047Y-10482078D02*
X21810714Y-11160649D01*
X21810714Y-11160649D02*
X22127380Y-10482078D01*
X22127380Y-10482078D02*
X22127380Y-11432078D01*
X22534523Y-11160649D02*
X22986904Y-11160649D01*
X22444047Y-11432078D02*
X22760713Y-10482078D01*
X22760713Y-10482078D02*
X23077380Y-11432078D01*
X23710714Y-10934459D02*
X23394047Y-10934459D01*
X23394047Y-11432078D02*
X23394047Y-10482078D01*
X23394047Y-10482078D02*
X23846428Y-10482078D01*
X24389285Y-10482078D02*
X24570238Y-10482078D01*
X24570238Y-10482078D02*
X24660714Y-10527316D01*
X24660714Y-10527316D02*
X24751190Y-10617792D01*
X24751190Y-10617792D02*
X24796428Y-10798744D01*
X24796428Y-10798744D02*
X24796428Y-11115411D01*
X24796428Y-11115411D02*
X24751190Y-11296363D01*
X24751190Y-11296363D02*
X24660714Y-11386840D01*
X24660714Y-11386840D02*
X24570238Y-11432078D01*
X24570238Y-11432078D02*
X24389285Y-11432078D01*
X24389285Y-11432078D02*
X24298809Y-11386840D01*
X24298809Y-11386840D02*
X24208333Y-11296363D01*
X24208333Y-11296363D02*
X24163095Y-11115411D01*
X24163095Y-11115411D02*
X24163095Y-10798744D01*
X24163095Y-10798744D02*
X24208333Y-10617792D01*
X24208333Y-10617792D02*
X24298809Y-10527316D01*
X24298809Y-10527316D02*
X24389285Y-10482078D01*
X25746428Y-11432078D02*
X25429761Y-10979697D01*
X25203571Y-11432078D02*
X25203571Y-10482078D01*
X25203571Y-10482078D02*
X25565476Y-10482078D01*
X25565476Y-10482078D02*
X25655952Y-10527316D01*
X25655952Y-10527316D02*
X25701190Y-10572554D01*
X25701190Y-10572554D02*
X25746428Y-10663030D01*
X25746428Y-10663030D02*
X25746428Y-10798744D01*
X25746428Y-10798744D02*
X25701190Y-10889220D01*
X25701190Y-10889220D02*
X25655952Y-10934459D01*
X25655952Y-10934459D02*
X25565476Y-10979697D01*
X25565476Y-10979697D02*
X25203571Y-10979697D01*
X26334523Y-10482078D02*
X26515476Y-10482078D01*
X26515476Y-10482078D02*
X26605952Y-10527316D01*
X26605952Y-10527316D02*
X26696428Y-10617792D01*
X26696428Y-10617792D02*
X26741666Y-10798744D01*
X26741666Y-10798744D02*
X26741666Y-11115411D01*
X26741666Y-11115411D02*
X26696428Y-11296363D01*
X26696428Y-11296363D02*
X26605952Y-11386840D01*
X26605952Y-11386840D02*
X26515476Y-11432078D01*
X26515476Y-11432078D02*
X26334523Y-11432078D01*
X26334523Y-11432078D02*
X26244047Y-11386840D01*
X26244047Y-11386840D02*
X26153571Y-11296363D01*
X26153571Y-11296363D02*
X26108333Y-11115411D01*
X26108333Y-11115411D02*
X26108333Y-10798744D01*
X26108333Y-10798744D02*
X26153571Y-10617792D01*
X26153571Y-10617792D02*
X26244047Y-10527316D01*
X26244047Y-10527316D02*
X26334523Y-10482078D01*
X28415476Y-11432078D02*
X28098809Y-10979697D01*
X27872619Y-11432078D02*
X27872619Y-10482078D01*
X27872619Y-10482078D02*
X28234524Y-10482078D01*
X28234524Y-10482078D02*
X28325000Y-10527316D01*
X28325000Y-10527316D02*
X28370238Y-10572554D01*
X28370238Y-10572554D02*
X28415476Y-10663030D01*
X28415476Y-10663030D02*
X28415476Y-10798744D01*
X28415476Y-10798744D02*
X28370238Y-10889220D01*
X28370238Y-10889220D02*
X28325000Y-10934459D01*
X28325000Y-10934459D02*
X28234524Y-10979697D01*
X28234524Y-10979697D02*
X27872619Y-10979697D01*
X29320238Y-10527316D02*
X29229762Y-10482078D01*
X29229762Y-10482078D02*
X29094048Y-10482078D01*
X29094048Y-10482078D02*
X28958333Y-10527316D01*
X28958333Y-10527316D02*
X28867857Y-10617792D01*
X28867857Y-10617792D02*
X28822619Y-10708268D01*
X28822619Y-10708268D02*
X28777381Y-10889220D01*
X28777381Y-10889220D02*
X28777381Y-11024935D01*
X28777381Y-11024935D02*
X28822619Y-11205887D01*
X28822619Y-11205887D02*
X28867857Y-11296363D01*
X28867857Y-11296363D02*
X28958333Y-11386840D01*
X28958333Y-11386840D02*
X29094048Y-11432078D01*
X29094048Y-11432078D02*
X29184524Y-11432078D01*
X29184524Y-11432078D02*
X29320238Y-11386840D01*
X29320238Y-11386840D02*
X29365476Y-11341601D01*
X29365476Y-11341601D02*
X29365476Y-11024935D01*
X29365476Y-11024935D02*
X29184524Y-11024935D01*
X30089286Y-10934459D02*
X30225000Y-10979697D01*
X30225000Y-10979697D02*
X30270238Y-11024935D01*
X30270238Y-11024935D02*
X30315476Y-11115411D01*
X30315476Y-11115411D02*
X30315476Y-11251125D01*
X30315476Y-11251125D02*
X30270238Y-11341601D01*
X30270238Y-11341601D02*
X30225000Y-11386840D01*
X30225000Y-11386840D02*
X30134524Y-11432078D01*
X30134524Y-11432078D02*
X29772619Y-11432078D01*
X29772619Y-11432078D02*
X29772619Y-10482078D01*
X29772619Y-10482078D02*
X30089286Y-10482078D01*
X30089286Y-10482078D02*
X30179762Y-10527316D01*
X30179762Y-10527316D02*
X30225000Y-10572554D01*
X30225000Y-10572554D02*
X30270238Y-10663030D01*
X30270238Y-10663030D02*
X30270238Y-10753506D01*
X30270238Y-10753506D02*
X30225000Y-10843982D01*
X30225000Y-10843982D02*
X30179762Y-10889220D01*
X30179762Y-10889220D02*
X30089286Y-10934459D01*
X30089286Y-10934459D02*
X29772619Y-10934459D01*
D14*
X16071429Y-5604388D02*
X15900001Y-5518674D01*
X15900001Y-5518674D02*
X15642858Y-5518674D01*
X15642858Y-5518674D02*
X15385715Y-5604388D01*
X15385715Y-5604388D02*
X15214286Y-5775817D01*
X15214286Y-5775817D02*
X15128572Y-5947245D01*
X15128572Y-5947245D02*
X15042858Y-6290102D01*
X15042858Y-6290102D02*
X15042858Y-6547245D01*
X15042858Y-6547245D02*
X15128572Y-6890102D01*
X15128572Y-6890102D02*
X15214286Y-7061531D01*
X15214286Y-7061531D02*
X15385715Y-7232960D01*
X15385715Y-7232960D02*
X15642858Y-7318674D01*
X15642858Y-7318674D02*
X15814286Y-7318674D01*
X15814286Y-7318674D02*
X16071429Y-7232960D01*
X16071429Y-7232960D02*
X16157143Y-7147245D01*
X16157143Y-7147245D02*
X16157143Y-6547245D01*
X16157143Y-6547245D02*
X15814286Y-6547245D01*
X17614286Y-7232960D02*
X17442858Y-7318674D01*
X17442858Y-7318674D02*
X17100001Y-7318674D01*
X17100001Y-7318674D02*
X16928572Y-7232960D01*
X16928572Y-7232960D02*
X16842858Y-7061531D01*
X16842858Y-7061531D02*
X16842858Y-6375817D01*
X16842858Y-6375817D02*
X16928572Y-6204388D01*
X16928572Y-6204388D02*
X17100001Y-6118674D01*
X17100001Y-6118674D02*
X17442858Y-6118674D01*
X17442858Y-6118674D02*
X17614286Y-6204388D01*
X17614286Y-6204388D02*
X17700001Y-6375817D01*
X17700001Y-6375817D02*
X17700001Y-6547245D01*
X17700001Y-6547245D02*
X16842858Y-6718674D01*
X18728572Y-7318674D02*
X18557143Y-7232960D01*
X18557143Y-7232960D02*
X18471429Y-7147245D01*
X18471429Y-7147245D02*
X18385715Y-6975817D01*
X18385715Y-6975817D02*
X18385715Y-6461531D01*
X18385715Y-6461531D02*
X18471429Y-6290102D01*
X18471429Y-6290102D02*
X18557143Y-6204388D01*
X18557143Y-6204388D02*
X18728572Y-6118674D01*
X18728572Y-6118674D02*
X18985715Y-6118674D01*
X18985715Y-6118674D02*
X19157143Y-6204388D01*
X19157143Y-6204388D02*
X19242858Y-6290102D01*
X19242858Y-6290102D02*
X19328572Y-6461531D01*
X19328572Y-6461531D02*
X19328572Y-6975817D01*
X19328572Y-6975817D02*
X19242858Y-7147245D01*
X19242858Y-7147245D02*
X19157143Y-7232960D01*
X19157143Y-7232960D02*
X18985715Y-7318674D01*
X18985715Y-7318674D02*
X18728572Y-7318674D01*
X21042857Y-5604388D02*
X20871429Y-5518674D01*
X20871429Y-5518674D02*
X20614286Y-5518674D01*
X20614286Y-5518674D02*
X20357143Y-5604388D01*
X20357143Y-5604388D02*
X20185714Y-5775817D01*
X20185714Y-5775817D02*
X20100000Y-5947245D01*
X20100000Y-5947245D02*
X20014286Y-6290102D01*
X20014286Y-6290102D02*
X20014286Y-6547245D01*
X20014286Y-6547245D02*
X20100000Y-6890102D01*
X20100000Y-6890102D02*
X20185714Y-7061531D01*
X20185714Y-7061531D02*
X20357143Y-7232960D01*
X20357143Y-7232960D02*
X20614286Y-7318674D01*
X20614286Y-7318674D02*
X20785714Y-7318674D01*
X20785714Y-7318674D02*
X21042857Y-7232960D01*
X21042857Y-7232960D02*
X21128571Y-7147245D01*
X21128571Y-7147245D02*
X21128571Y-6547245D01*
X21128571Y-6547245D02*
X20785714Y-6547245D01*
X21900000Y-7318674D02*
X21900000Y-6118674D01*
X21900000Y-6461531D02*
X21985714Y-6290102D01*
X21985714Y-6290102D02*
X22071429Y-6204388D01*
X22071429Y-6204388D02*
X22242857Y-6118674D01*
X22242857Y-6118674D02*
X22414286Y-6118674D01*
X23700000Y-7232960D02*
X23528572Y-7318674D01*
X23528572Y-7318674D02*
X23185715Y-7318674D01*
X23185715Y-7318674D02*
X23014286Y-7232960D01*
X23014286Y-7232960D02*
X22928572Y-7061531D01*
X22928572Y-7061531D02*
X22928572Y-6375817D01*
X22928572Y-6375817D02*
X23014286Y-6204388D01*
X23014286Y-6204388D02*
X23185715Y-6118674D01*
X23185715Y-6118674D02*
X23528572Y-6118674D01*
X23528572Y-6118674D02*
X23700000Y-6204388D01*
X23700000Y-6204388D02*
X23785715Y-6375817D01*
X23785715Y-6375817D02*
X23785715Y-6547245D01*
X23785715Y-6547245D02*
X22928572Y-6718674D01*
X25242857Y-7232960D02*
X25071429Y-7318674D01*
X25071429Y-7318674D02*
X24728572Y-7318674D01*
X24728572Y-7318674D02*
X24557143Y-7232960D01*
X24557143Y-7232960D02*
X24471429Y-7061531D01*
X24471429Y-7061531D02*
X24471429Y-6375817D01*
X24471429Y-6375817D02*
X24557143Y-6204388D01*
X24557143Y-6204388D02*
X24728572Y-6118674D01*
X24728572Y-6118674D02*
X25071429Y-6118674D01*
X25071429Y-6118674D02*
X25242857Y-6204388D01*
X25242857Y-6204388D02*
X25328572Y-6375817D01*
X25328572Y-6375817D02*
X25328572Y-6547245D01*
X25328572Y-6547245D02*
X24471429Y-6718674D01*
X26100000Y-6118674D02*
X26100000Y-7318674D01*
X26100000Y-6290102D02*
X26185714Y-6204388D01*
X26185714Y-6204388D02*
X26357143Y-6118674D01*
X26357143Y-6118674D02*
X26614286Y-6118674D01*
X26614286Y-6118674D02*
X26785714Y-6204388D01*
X26785714Y-6204388D02*
X26871429Y-6375817D01*
X26871429Y-6375817D02*
X26871429Y-7318674D01*
D15*
X83609048Y-33533866D02*
X84370953Y-33533866D01*
X83990000Y-33914819D02*
X83990000Y-33152914D01*
%TO.C,J4*%
D10*
X7250000Y-26600000D02*
X7250000Y-27850000D01*
X7250000Y-27850000D02*
X8500000Y-27850000D01*
X9800000Y-14950000D02*
X9800000Y-15700000D01*
X9800000Y-15700000D02*
X12750000Y-15700000D01*
X9800000Y-26800000D02*
X12750000Y-26800000D01*
X9800000Y-27550000D02*
X9800000Y-26800000D01*
X12750000Y-15700000D02*
X12750000Y-21250000D01*
X12750000Y-26800000D02*
X12750000Y-21250000D01*
X7540000Y-14940000D02*
X13510000Y-14940000D01*
X13510000Y-27560000D01*
X7540000Y-27560000D01*
X7540000Y-14940000D01*
X7550000Y-14950000D02*
X8300000Y-14950000D01*
X8300000Y-16750000D01*
X7550000Y-16750000D01*
X7550000Y-14950000D01*
X7550000Y-18250000D02*
X8300000Y-18250000D01*
X8300000Y-24250000D01*
X7550000Y-24250000D01*
X7550000Y-18250000D01*
X7550000Y-25750000D02*
X8300000Y-25750000D01*
X8300000Y-27550000D01*
X7550000Y-27550000D01*
X7550000Y-25750000D01*
%TO.C,U1*%
X53250000Y-24850000D02*
X66750000Y-24850000D01*
X53250000Y-41750000D02*
X53250000Y-24850000D01*
X66750000Y-24850000D02*
X66750000Y-41750000D01*
X66750000Y-41750000D02*
X53250000Y-41750000D01*
X52900000Y-32000000D02*
X52564000Y-32240000D01*
X52564000Y-31760000D01*
X52900000Y-32000000D01*
G36*
X52900000Y-32000000D02*
G01*
X52564000Y-32240000D01*
X52564000Y-31760000D01*
X52900000Y-32000000D01*
G37*
%TO.C,R4*%
X17762742Y-21477500D02*
X18237258Y-21477500D01*
X17762742Y-22522500D02*
X18237258Y-22522500D01*
%TO.C,TP2*%
X80950000Y-42000000D02*
G75*
G02*
X79050000Y-42000000I-950000J0D01*
G01*
X79050000Y-42000000D02*
G75*
G02*
X80950000Y-42000000I950000J0D01*
G01*
%TO.C,R5*%
X24762742Y-21477500D02*
X25237258Y-21477500D01*
X24762742Y-22522500D02*
X25237258Y-22522500D01*
%TO.C,D3*%
X23315000Y-15040000D02*
X23315000Y-16960000D01*
X23315000Y-16960000D02*
X26000000Y-16960000D01*
X26000000Y-15040000D02*
X23315000Y-15040000D01*
%TO.C,BZ1*%
X93900000Y-36000000D02*
G75*
G02*
X81700000Y-36000000I-6100000J0D01*
G01*
X81700000Y-36000000D02*
G75*
G02*
X93900000Y-36000000I6100000J0D01*
G01*
%TO.C,TP1*%
X75950000Y-42000000D02*
G75*
G02*
X74050000Y-42000000I-950000J0D01*
G01*
X74050000Y-42000000D02*
G75*
G02*
X75950000Y-42000000I950000J0D01*
G01*
%TO.C,TP4*%
X75950000Y-50000000D02*
G75*
G02*
X74050000Y-50000000I-950000J0D01*
G01*
X74050000Y-50000000D02*
G75*
G02*
X75950000Y-50000000I950000J0D01*
G01*
%TO.C,R1*%
X33762742Y-44477500D02*
X34237258Y-44477500D01*
X33762742Y-45522500D02*
X34237258Y-45522500D01*
%TO.C,R2*%
X33762742Y-47477500D02*
X34237258Y-47477500D01*
X33762742Y-48522500D02*
X34237258Y-48522500D01*
%TO.C,TP3*%
X90950000Y-44000000D02*
G75*
G02*
X89050000Y-44000000I-950000J0D01*
G01*
X89050000Y-44000000D02*
G75*
G02*
X90950000Y-44000000I950000J0D01*
G01*
%TO.C,J1*%
X21330000Y-54100000D02*
X21330000Y-55800000D01*
X30670000Y-54100000D02*
X30670000Y-55800000D01*
%TO.C,D4*%
X30315000Y-15040000D02*
X30315000Y-16960000D01*
X30315000Y-16960000D02*
X33000000Y-16960000D01*
X33000000Y-15040000D02*
X30315000Y-15040000D01*
%TO.C,TP5*%
X70950000Y-47000000D02*
G75*
G02*
X69050000Y-47000000I-950000J0D01*
G01*
X69050000Y-47000000D02*
G75*
G02*
X70950000Y-47000000I950000J0D01*
G01*
%TO.C,C1*%
X51738748Y-49265000D02*
X52261252Y-49265000D01*
X51738748Y-50735000D02*
X52261252Y-50735000D01*
%TO.C,J2*%
X10640000Y-39890000D02*
X10640000Y-41140000D01*
X10940000Y-41500000D02*
X11550000Y-41500000D01*
X10940000Y-42800000D02*
X11550000Y-42800000D01*
X11550000Y-40800000D02*
X11550000Y-44300000D01*
X11550000Y-44300000D02*
X20450000Y-44300000D01*
X11890000Y-39890000D02*
X10640000Y-39890000D01*
X12400000Y-39990000D02*
X12400000Y-40190000D01*
X12700000Y-39990000D02*
X12400000Y-39990000D01*
X12700000Y-40090000D02*
X12400000Y-40090000D01*
X12700000Y-40190000D02*
X12700000Y-39990000D01*
X13500000Y-40190000D02*
X13500000Y-40800000D01*
X13500000Y-40800000D02*
X11550000Y-40800000D01*
X13900000Y-43800000D02*
X14100000Y-43800000D01*
X13900000Y-44300000D02*
X13900000Y-43800000D01*
X14000000Y-44300000D02*
X14000000Y-43800000D01*
X14100000Y-43800000D02*
X14100000Y-44300000D01*
X15900000Y-43800000D02*
X16100000Y-43800000D01*
X15900000Y-44300000D02*
X15900000Y-43800000D01*
X16000000Y-44300000D02*
X16000000Y-43800000D01*
X16100000Y-43800000D02*
X16100000Y-44300000D01*
X17900000Y-43800000D02*
X18100000Y-43800000D01*
X17900000Y-44300000D02*
X17900000Y-43800000D01*
X18000000Y-44300000D02*
X18000000Y-43800000D01*
X18100000Y-43800000D02*
X18100000Y-44300000D01*
X18500000Y-40800000D02*
X18500000Y-40190000D01*
X20450000Y-40800000D02*
X18500000Y-40800000D01*
X20450000Y-44300000D02*
X20450000Y-40800000D01*
X21060000Y-41500000D02*
X20450000Y-41500000D01*
X21060000Y-42800000D02*
X20450000Y-42800000D01*
X10940000Y-40190000D02*
X21060000Y-40190000D01*
X21060000Y-44910000D01*
X10940000Y-44910000D01*
X10940000Y-40190000D01*
%TO.C,C2*%
X67738748Y-51265000D02*
X68261252Y-51265000D01*
X67738748Y-52735000D02*
X68261252Y-52735000D01*
%TO.C,D2*%
X16315000Y-15040000D02*
X16315000Y-16960000D01*
X16315000Y-16960000D02*
X19000000Y-16960000D01*
X19000000Y-15040000D02*
X16315000Y-15040000D01*
%TO.C,U2*%
X59090000Y-50440000D02*
X60910000Y-50440000D01*
X59090000Y-50490000D02*
X59090000Y-50440000D01*
X59090000Y-53560000D02*
X59090000Y-53510000D01*
X60910000Y-50440000D02*
X60910000Y-50490000D01*
X60910000Y-51610000D02*
X60910000Y-52390000D01*
X60910000Y-53510000D02*
X60910000Y-53560000D01*
X60910000Y-53560000D02*
X59090000Y-53560000D01*
X58550000Y-50490000D02*
X58310000Y-50160000D01*
X58790000Y-50160000D01*
X58550000Y-50490000D01*
G36*
X58550000Y-50490000D02*
G01*
X58310000Y-50160000D01*
X58790000Y-50160000D01*
X58550000Y-50490000D01*
G37*
%TO.C,R6*%
X31762742Y-21477500D02*
X32237258Y-21477500D01*
X31762742Y-22522500D02*
X32237258Y-22522500D01*
%TO.C,D1*%
X44390000Y-49150000D02*
X44390000Y-50850000D01*
X44390000Y-49150000D02*
X47050000Y-49150000D01*
X44390000Y-50850000D02*
X47050000Y-50850000D01*
%TO.C,R3*%
X23762742Y-44477500D02*
X24237258Y-44477500D01*
X23762742Y-45522500D02*
X24237258Y-45522500D01*
%TO.C,F1*%
X39397936Y-49090000D02*
X40602064Y-49090000D01*
X39397936Y-50910000D02*
X40602064Y-50910000D01*
%TD*%
%LPC*%
D16*
%TO.C,J4*%
X10000000Y-25000000D03*
D17*
X10000000Y-22500000D03*
X10000000Y-20000000D03*
X10000000Y-17500000D03*
%TD*%
D18*
%TO.C,U1*%
X54100000Y-32000000D03*
X54100000Y-32800000D03*
X54100000Y-33600000D03*
X54100000Y-34400000D03*
X54100000Y-35200000D03*
X54100000Y-36000000D03*
X54100000Y-36800000D03*
X54100000Y-37600000D03*
X54100000Y-38400000D03*
X54100000Y-39200000D03*
X54100000Y-40000000D03*
D19*
X55200000Y-40900000D03*
X56000000Y-40900000D03*
X56800000Y-40900000D03*
X57600000Y-40900000D03*
X58400000Y-40900000D03*
X59200000Y-40900000D03*
X60000000Y-40900000D03*
X60800000Y-40900000D03*
X61600000Y-40900000D03*
X62400000Y-40900000D03*
X63200000Y-40900000D03*
X64000000Y-40900000D03*
X64800000Y-40900000D03*
D18*
X65900000Y-40000000D03*
X65900000Y-39200000D03*
X65900000Y-38400000D03*
X65900000Y-37600000D03*
X65900000Y-36800000D03*
X65900000Y-36000000D03*
X65900000Y-35200000D03*
X65900000Y-34400000D03*
X65900000Y-33600000D03*
X65900000Y-32800000D03*
X65900000Y-32000000D03*
D19*
X64800000Y-31100000D03*
X64000000Y-31100000D03*
X63200000Y-31100000D03*
X62400000Y-31100000D03*
X61600000Y-31100000D03*
X60800000Y-31100000D03*
X60000000Y-31100000D03*
X59200000Y-31100000D03*
X58400000Y-31100000D03*
X57600000Y-31100000D03*
X56800000Y-31100000D03*
X56000000Y-31100000D03*
X55200000Y-31100000D03*
D20*
X58025000Y-34025000D03*
D21*
X58025000Y-36000000D03*
X58025000Y-37975000D03*
X60000000Y-34025000D03*
X60000000Y-36000000D03*
X60000000Y-37975000D03*
X61975000Y-34025000D03*
X61975000Y-36000000D03*
X61975000Y-37975000D03*
D22*
X65950000Y-31050000D03*
X65950000Y-40950000D03*
X54050000Y-40950000D03*
X54050000Y-31050000D03*
%TD*%
D23*
%TO.C,R4*%
X17175000Y-22000000D03*
X18825000Y-22000000D03*
%TD*%
D24*
%TO.C,TP2*%
X80000000Y-42000000D03*
%TD*%
D23*
%TO.C,R5*%
X24175000Y-22000000D03*
X25825000Y-22000000D03*
%TD*%
D25*
%TO.C,D3*%
X24062500Y-16000000D03*
X25937500Y-16000000D03*
%TD*%
D26*
%TO.C,BZ1*%
X84000000Y-36000000D03*
D27*
X91600000Y-36000000D03*
%TD*%
D28*
%TO.C,H3*%
X9000000Y-55000000D03*
%TD*%
D24*
%TO.C,TP1*%
X75000000Y-42000000D03*
%TD*%
%TO.C,TP4*%
X75000000Y-50000000D03*
%TD*%
D23*
%TO.C,R1*%
X33175000Y-45000000D03*
X34825000Y-45000000D03*
%TD*%
%TO.C,R2*%
X33175000Y-48000000D03*
X34825000Y-48000000D03*
%TD*%
D28*
%TO.C,H2*%
X91000000Y-9000000D03*
%TD*%
D24*
%TO.C,TP3*%
X90000000Y-44000000D03*
%TD*%
D29*
%TO.C,J1*%
X28890000Y-56605000D03*
X23110000Y-56605000D03*
D30*
X29200000Y-57680000D03*
X28400000Y-57680000D03*
D31*
X27250000Y-57680000D03*
X26250000Y-57680000D03*
X25750000Y-57680000D03*
X24750000Y-57680000D03*
D30*
X23600000Y-57680000D03*
X22800000Y-57680000D03*
X22800000Y-57680000D03*
X23600000Y-57680000D03*
D31*
X24250000Y-57680000D03*
X25250000Y-57680000D03*
X26750000Y-57680000D03*
X27750000Y-57680000D03*
D30*
X28400000Y-57680000D03*
X29200000Y-57680000D03*
D32*
X30320000Y-57105000D03*
D33*
X30320000Y-52925000D03*
D32*
X21680000Y-57105000D03*
D33*
X21680000Y-52925000D03*
%TD*%
D25*
%TO.C,D4*%
X31062500Y-16000000D03*
X32937500Y-16000000D03*
%TD*%
D24*
%TO.C,TP5*%
X70000000Y-47000000D03*
%TD*%
D28*
%TO.C,H1*%
X9000000Y-9000000D03*
%TD*%
%TO.C,H4*%
X91000000Y-55000000D03*
%TD*%
D34*
%TO.C,C1*%
X51050000Y-50000000D03*
X52950000Y-50000000D03*
%TD*%
D35*
%TO.C,J2*%
X13000000Y-42000000D03*
D36*
X15000000Y-42000000D03*
X17000000Y-42000000D03*
X19000000Y-42000000D03*
%TD*%
D34*
%TO.C,C2*%
X67050000Y-52000000D03*
X68950000Y-52000000D03*
%TD*%
D25*
%TO.C,D2*%
X17062500Y-16000000D03*
X18937500Y-16000000D03*
%TD*%
D37*
%TO.C,U2*%
X58862500Y-51050000D03*
X58862500Y-52000000D03*
X58862500Y-52950000D03*
X61137500Y-52950000D03*
X61137500Y-51050000D03*
%TD*%
D23*
%TO.C,R6*%
X31175000Y-22000000D03*
X32825000Y-22000000D03*
%TD*%
D38*
%TO.C,D1*%
X44950000Y-50000000D03*
X47050000Y-50000000D03*
%TD*%
D23*
%TO.C,R3*%
X23175000Y-45000000D03*
X24825000Y-45000000D03*
%TD*%
D39*
%TO.C,F1*%
X38600000Y-50000000D03*
X41400000Y-50000000D03*
%TD*%
%LPD*%
M02*
