<?xml version="1.0" encoding="UTF-8"?>
<svg id="Capa_1" xmlns="http://www.w3.org/2000/svg" version="1.1" viewBox="0 0 210 58">
  <!-- Generator: Adobe Illustrator 29.0.0, SVG Export Plug-In . SVG Version: 2.1.0 Build 186)  -->
  <defs>
    <style>
      .st0, .st1 {
        fill: #fff;
      }

      .st1 {
        fill-rule: evenodd;
      }

      .st2 {
        fill: #a00;
      }

      .st3 {
        fill: none;
        stroke: #a00;
        stroke-miterlimit: 10;
        stroke-width: 1.2px;
      }
    </style>
  </defs>
  <g id="Layer_1-2">
    <g>
      <g>
        <path class="st0" d="M172.9,45.8c.4,0,.7,0,1,.1.3.1.5.2.7.4.2.2.3.4.4.7,0,.3.1.5.1.8v3.4c0,0-.2,0-.4,0s-.3,0-.5,0-.4,0-.6,0-.4,0-.7,0c-.3,0-.6,0-.8,0-.3,0-.5-.2-.7-.3-.2-.1-.3-.3-.4-.5-.1-.2-.2-.5-.2-.8s0-.6.2-.8c.1-.2.3-.4.5-.5s.5-.2.7-.3.6,0,.9,0,.2,0,.3,0c.1,0,.2,0,.3,0s.2,0,.2,0c0,0,.1,0,.1,0v-.3c0-.2,0-.3,0-.5,0-.2,0-.3-.2-.4s-.2-.2-.4-.3c-.2,0-.4-.1-.6-.1s-.6,0-.8,0c-.2,0-.4,0-.5.1v-.8c0,0,.2-.1.5-.2s.6,0,1,0h0ZM173,50.7c.2,0,.4,0,.6,0,.2,0,.3,0,.4,0v-1.6c0,0-.2,0-.3,0s-.3,0-.6,0-.3,0-.5,0c-.2,0-.3,0-.4.1-.1,0-.3.2-.3.3,0,.1-.1.3-.1.5,0,.3.1.6.3.7s.5.2.9.2h0Z"/>
        <path class="st0" d="M176,46.1c.2,0,.5-.1.9-.2s.8,0,1.3,0,.8,0,1.1.2c.3.1.5.3.7.5.2.2.3.5.4.8s.1.6.1,1v3.1h-1v-2.8c0-.3,0-.6,0-.9,0-.2-.1-.4-.2-.6s-.2-.3-.4-.3-.4-.1-.7-.1-.2,0-.3,0c-.1,0-.2,0-.3,0-.1,0-.2,0-.3,0,0,0-.1,0-.2,0v4.6h-1v-5.3h0ZM179.9,44c0,0,0,.2-.1.3,0,.1-.1.2-.2.3,0,0-.2.2-.3.2-.1,0-.3.1-.4.1s-.3,0-.4,0-.2-.1-.4-.2c-.1,0-.2,0-.3-.1,0,0-.2,0-.2,0-.1,0-.2,0-.3.1-.1,0-.2.2-.2.3l-.5-.3c0,0,0-.2.1-.3,0-.1.1-.2.2-.3,0,0,.2-.2.3-.2.1,0,.3-.1.4-.1s.3,0,.4,0c.1,0,.2.1.4.2.1,0,.2,0,.3.1,0,0,.2,0,.2,0,.1,0,.2,0,.3-.1.1,0,.2-.2.2-.3l.5.3h0Z"/>
        <path class="st0" d="M186.3,48.7c0,.4,0,.8-.2,1.2-.1.3-.3.6-.5.9s-.5.4-.8.6c-.3.1-.7.2-1,.2s-.7,0-1-.2c-.3-.1-.6-.3-.8-.6-.2-.3-.4-.6-.5-.9s-.2-.7-.2-1.2,0-.8.2-1.2c.1-.4.3-.7.5-.9.2-.3.5-.4.8-.6s.7-.2,1-.2.7,0,1,.2c.3.1.6.3.8.6s.4.6.5.9c.1.4.2.7.2,1.2ZM185.2,48.7c0-.6-.1-1.1-.4-1.5-.3-.4-.7-.5-1.1-.5s-.8.2-1.1.5-.4.8-.4,1.5.1,1.1.4,1.5c.3.4.7.5,1.1.5s.8-.2,1.1-.5.4-.8.4-1.5Z"/>
        <path class="st0" d="M188.3,50.7c.4,0,.7,0,.9-.2.2-.1.3-.3.3-.5s0-.4-.3-.6c-.2-.1-.5-.3-.9-.5-.2,0-.4-.2-.6-.3s-.4-.2-.5-.3c-.1-.1-.3-.3-.3-.4,0-.2-.1-.4-.1-.6,0-.5.2-.9.5-1.1.4-.3.8-.4,1.5-.4s.3,0,.5,0c.2,0,.3,0,.4,0,.1,0,.3,0,.4,0,.1,0,.2,0,.2,0l-.2.8c-.1,0-.3-.1-.5-.2s-.5,0-.8,0-.5,0-.7.2-.3.3-.3.5,0,.2,0,.3c0,0,.1.2.2.2s.2.1.4.2c.1,0,.3.1.5.2.3,0,.5.2.7.3.2,0,.4.2.5.3.1.1.3.3.3.5,0,.2.1.4.1.7,0,.5-.2.9-.6,1.1-.4.3-.9.4-1.6.4s-.9,0-1.1-.1-.5-.1-.6-.2l.2-.8c.1,0,.3.1.5.2s.6.1,1,.1h0Z"/>
      </g>
      <g>
        <g>
          <path class="st0" d="M69.9,29.4h-5.3l2.6-7.8h0l2.6,7.8h0ZM71.6,34.2l1.6,4.3h6.8l-9.2-24.5h-6.9l-9.4,24.5h6.8l1.7-4.3h8.8Z"/>
          <rect class="st0" x="81.5" y="14" width="6.4" height="24.5"/>
          <polygon class="st0" points="104.1 19.4 104.1 14 90.2 14 90.2 38.5 104.1 38.5 104.1 33.1 96.5 33.1 96.5 28.9 103.7 28.9 103.7 23.5 96.5 23.5 96.5 19.4 104.1 19.4"/>
          <path class="st0" d="M112.7,19.1h1.1c2.5,0,4.6,0,4.6,3.1s-2.3,3-4.6,3h-1.1v-6.1ZM106.3,38.5h6.4v-8.1h3.6c5.6,0,8.7-2.5,8.7-8.3s-3.6-8.1-8.9-8.1h-9.7v24.5h0Z"/>
        </g>
        <rect class="st2" x=".2" y="13.7" width="14.3" height="24.8"/>
        <rect class="st2" x="37.8" y="13.7" width="14.1" height="24.8"/>
        <polygon class="st2" points="26.1 6 18.4 13.7 18.4 38.5 33.9 38.5 33.9 13.7 26.1 6"/>
        <g>
          <g>
            <path class="st0" d="M9.7,47.8h-3c0,.5.1.8.3,1s.6.3,1.1.3.5,0,.8-.1c.3,0,.5-.2.6-.2v.8c-.1,0-.3.1-.7.2-.3,0-.7.1-1.1.1-.8,0-1.4-.2-1.7-.6-.3-.4-.5-1-.5-1.8s.2-1.2.6-1.6c.4-.4.9-.6,1.5-.6s1.2.2,1.5.6c.4.4.6.9.6,1.6v.3h0ZM8.6,47.1c0-.4,0-.6-.3-.8s-.4-.3-.7-.3c-.6,0-.9.4-.9,1.2h1.9Z"/>
            <path class="st0" d="M3.4,45.5c-.3-.2-.8-.3-1.3-.3s-1,.2-1.4.6c-.4.4-.5.9-.5,1.6s.2,1.4.5,1.8c.4.4.9.6,1.7.6s1.5-.1,2.1-.4v-5.8l-1.2.3v1.6h0ZM3.4,48.9c-.3.1-.6.2-.9.2s-.6-.1-.8-.4-.2-.7-.2-1.2c0-.9.3-1.4,1-1.4s.2,0,.3,0,.2,0,.4.1.2,0,.2,0v2.6h0Z"/>
          </g>
          <g>
            <path class="st0" d="M19.4,49.5c-.2,0-.4.1-.8.2-.4,0-.9,0-1.4,0-1.3,0-2-.5-2-1.4s.2-.8.6-1,.9-.4,1.5-.4h1v-.3c0-.5-.4-.7-1.2-.7s-.9.1-1.5.3v-.7s0,0,.2,0,.2,0,.3,0,.2,0,.4,0,.3,0,.5,0c.2,0,.3,0,.5,0,.7,0,1.2.1,1.6.3s.5.6.5,1.1v2.7h0ZM18.3,49v-1.4h-.6c-.4,0-.8,0-1,.2-.2.1-.3.3-.3.6s0,.4.3.6.4.2.7.2c.4,0,.8,0,1-.1Z"/>
            <polygon class="st0" points="13.2 49.7 14.3 49.7 14.3 43.6 13.2 44 13.2 49.7"/>
          </g>
          <g>
            <path class="st0" d="M27.5,47.6c0,.7-.2,1.2-.6,1.6s-1,.6-1.7.6-1.4-.2-1.8-.6c-.4-.4-.5-.9-.5-1.6v-3.7h1.2v3.5c0,.5,0,.9.2,1.1s.4.4.9.4.7-.1.8-.4.3-.6.3-1.1v-3.5h1.2v3.7h0Z"/>
            <path class="st0" d="M32.8,49.7h-1.2v-2.6c0-.4,0-.6-.2-.8-.1-.2-.4-.2-.7-.2s-.3,0-.5,0-.3,0-.4.1v3.5h-1.2v-4c.7-.2,1.4-.4,2.1-.4s1.2.1,1.5.4c.3.2.5.6.5,1.1v3h0Z"/>
            <path class="st0" d="M35.1,49.7h-1.2v-4.3h1.2v4.3ZM34,44.6h1.2v-.9l-1.2.4v.5Z"/>
            <path class="st0" d="M40.3,45.4l-1.5,4.3h-1.6l-1.5-4.3h1.2l1.1,3.5,1-3.5h1.2Z"/>
            <path class="st0" d="M44.9,47.8h-3c0,.5.1.8.3,1s.6.3,1.1.3.5,0,.8-.1c.3,0,.5-.2.6-.2v.8c-.1,0-.3.1-.7.2s-.7.1-1.1.1c-.8,0-1.4-.2-1.7-.6-.3-.4-.5-1-.5-1.8s.2-1.2.6-1.6c.4-.4.9-.6,1.5-.6s1.2.2,1.5.6c.4.4.6.9.6,1.6v.3h0ZM43.8,47.1c0-.4,0-.6-.3-.8s-.4-.3-.7-.3c-.6,0-.9.4-.9,1.2h1.9Z"/>
            <path class="st0" d="M48.5,46.1c-.1,0-.3,0-.5,0s-.2,0-.3,0c-.1,0-.2,0-.3,0,0,0-.2,0-.3,0,0,0-.1,0-.1,0v3.5h-1.2v-4c.2,0,.4-.1.8-.2.4,0,.8-.1,1.2-.1s.5,0,.6,0v.7h0Z"/>
            <path class="st0" d="M52.6,48.4c0,.4-.2.8-.5,1-.3.2-.8.4-1.4.4s-.8,0-1.1-.1c-.3,0-.6-.1-.7-.2v-.7c.5.2,1,.4,1.4.4s.6,0,.8-.1c.2,0,.3-.2.3-.4s0-.3-.3-.4-.4-.2-.6-.3-.5-.2-.7-.3-.5-.2-.6-.4-.3-.4-.3-.7c0-.4.2-.7.5-.9.3-.2.8-.3,1.3-.3s1.2.1,1.7.3v.7c-.5-.2-.9-.3-1.3-.3-.7,0-1,.2-1,.5s.1.3.4.4c.3.1.6.2.9.3s.6.2.9.4c.3.2.4.4.4.7h0Z"/>
            <path class="st0" d="M54.6,49.7h-1.2v-4.3h1.2v4.3Z"/>
            <path class="st0" d="M65,49.5c-.2,0-.4.1-.8.2-.4,0-.9,0-1.4,0-1.3,0-2-.5-2-1.4s.2-.8.6-1,.9-.4,1.5-.4h1v-.3c0-.5-.4-.7-1.2-.7s-.9.1-1.5.3v-.7s0,0,.2,0,.2,0,.3,0,.2,0,.4,0,.3,0,.5,0c.2,0,.3,0,.5,0,.7,0,1.2.1,1.6.3.3.2.5.6.5,1.1v2.7h0ZM63.9,49v-1.4h-.6c-.4,0-.8,0-1,.2-.2.1-.3.3-.3.6s0,.4.3.6.4.2.7.2c.4,0,.8,0,1-.1Z"/>
            <path class="st0" d="M58.8,45.5c-.3-.2-.8-.3-1.3-.3s-1,.2-1.4.6c-.4.4-.5.9-.5,1.6s.2,1.4.5,1.8.9.6,1.7.6,1.5-.1,2.1-.4v-5.8l-1.2.3v1.6h0ZM58.8,48.9c-.3.1-.6.2-.9.2s-.6-.1-.8-.4c-.2-.3-.2-.7-.2-1.2,0-.9.3-1.4,1-1.4s.2,0,.3,0c.1,0,.2,0,.4.1s.2,0,.2,0v2.6h0Z"/>
            <path class="st0" d="M69.1,45.5c-.3-.2-.8-.3-1.3-.3s-1,.2-1.4.6c-.4.4-.5.9-.5,1.6s.2,1.4.5,1.8.9.6,1.7.6,1.5-.1,2.1-.4v-5.8l-1.2.3v1.6h0ZM69.1,48.9c-.3.1-.6.2-.9.2s-.6-.1-.8-.4c-.2-.3-.2-.7-.2-1.2,0-.9.3-1.4,1-1.4s.2,0,.3,0,.2,0,.4.1.2,0,.2,0v2.6h0Z"/>
            <polygon class="st0" points="53.5 44.6 54.7 44.6 54.7 43.8 53.5 44.1 53.5 44.6"/>
          </g>
          <g>
            <g>
              <path class="st0" d="M108.8,46.7c.3,0,.6-.2.8-.4s.3-.5.3-.9-.2-.8-.6-1.1c-.4-.2-.9-.4-1.6-.4h-2.2v5.7h2.3c1.5,0,2.2-.5,2.2-1.6s-.1-.8-.3-1c-.2-.2-.6-.4-1-.4h0ZM106.9,44.8h.9c.7,0,1,.3,1,.8s0,.5-.3.6c-.2.1-.4.2-.7.2h-.9v-1.6h0ZM107.8,48.9h-.9v-1.8h.9c.7,0,1.1.3,1.1.9s-.4.9-1.1.9Z"/>
              <path class="st0" d="M113.1,45.3c-.7,0-1.2.2-1.5.6s-.6.9-.6,1.6.2,1.4.5,1.8c.3.4.9.6,1.7.6s.8,0,1.1-.1c.3,0,.6-.1.7-.2v-.8c-.1,0-.3.2-.6.2-.3,0-.6.1-.8.1-.5,0-.8-.1-1.1-.3-.2-.2-.3-.6-.3-1h3v-.3c0-.7-.2-1.2-.6-1.6s-.9-.6-1.5-.6h0ZM112.1,47.1c0-.8.3-1.2.9-1.2s.5.1.7.3c.2.2.2.5.3.8h-1.9Z"/>
              <path class="st0" d="M124.4,45.8c-.4-.3-.9-.5-1.7-.5-1.5,0-2.3.7-2.3,2.1s.2,1.4.5,1.8.9.6,1.8.6,1.3-.2,1.7-.5.6-1,.6-1.8-.2-1.3-.6-1.6ZM123.5,48.7c-.2.3-.4.4-.8.4s-.6-.1-.8-.4c-.2-.2-.2-.7-.2-1.3s0-.8.2-1.1.4-.3.8-.3.6.1.8.3c.2.2.2.6.2,1.1s0,1-.2,1.3h0Z"/>
              <polygon class="st0" points="116 49.7 117.2 49.7 117.2 43.6 116 44 116 49.7"/>
              <polygon class="st0" points="118.3 49.7 119.5 49.7 119.5 43.6 118.3 44 118.3 49.7"/>
            </g>
            <g>
              <path class="st0" d="M75.6,44l-1.9,5.7h1.2l.4-1.6h1.9l.4,1.6h1.3l-1.9-5.7s-1.6,0-1.6,0ZM75.7,47.3l.7-2.5.7,2.5h-1.4Z"/>
              <path class="st0" d="M83.4,45.6c-.3-.2-.8-.4-1.5-.4s-1.4.1-2.1.4v4h1.2v-3.5c0,0,.2,0,.4-.1.2,0,.4,0,.5,0,.3,0,.5,0,.7.2.1.2.2.4.2.8v2.6h1.2v-3c0-.5-.2-.8-.5-1.1h0Z"/>
              <path class="st0" d="M91.1,45.4c-.4,0-.7.2-.8.2v4h1.2v-3.5s0,0,.1,0c0,0,.2,0,.3,0,0,0,.2,0,.3,0,.1,0,.2,0,.3,0,.2,0,.3,0,.5,0v-.7c-.1,0-.3,0-.6,0s-.8,0-1.2.1h0Z"/>
              <polygon class="st0" points="96.7 43.6 95.7 43.6 95 44.8 95.8 44.8 96.7 43.6"/>
              <path class="st0" d="M95.5,45.3c-.7,0-1.2.2-1.5.6s-.6.9-.6,1.6.2,1.4.5,1.8c.3.4.9.6,1.7.6s.8,0,1.1-.1c.3,0,.6-.1.7-.2v-.8c-.1,0-.3.2-.6.2-.3,0-.6.1-.8.1-.5,0-.8-.1-1.1-.3-.2-.2-.3-.6-.3-1h3v-.3c0-.7-.2-1.2-.6-1.6s-.9-.6-1.5-.6h0ZM94.5,47.1c0-.8.3-1.2.9-1.2s.5.1.7.3c.2.2.2.5.3.8h-1.9Z"/>
              <path class="st0" d="M101.6,47.7c-.3-.2-.6-.4-.9-.4-.3,0-.6-.2-.9-.3-.3-.1-.4-.3-.4-.4,0-.3.3-.5,1-.5s.9.1,1.3.3v-.7c-.5-.2-1-.3-1.7-.3s-1,.1-1.3.3-.5.5-.5.9,0,.5.3.7.4.3.6.4c.2,0,.5.2.7.3.2,0,.5.2.6.3.2.1.3.2.3.4s0,.3-.3.4c-.2,0-.5.1-.8.1s-.9-.1-1.4-.4v.7c.1,0,.3.1.7.2.3,0,.7.1,1.1.1.6,0,1.1-.1,1.4-.4.3-.2.5-.6.5-1s-.1-.5-.4-.7h0Z"/>
              <path class="st0" d="M88,45.5c-.3-.2-.8-.3-1.3-.3s-1,.2-1.4.6c-.4.4-.5.9-.5,1.6s.2,1.4.5,1.8c.4.4.9.6,1.7.6s1.5-.1,2.1-.4v-5.8l-1.2.3v1.6h0ZM88,48.9c-.3.1-.6.2-.9.2s-.6-.1-.8-.4c-.2-.3-.2-.7-.2-1.2,0-.9.3-1.4,1-1.4s.2,0,.3,0,.2,0,.4.1c.1,0,.2,0,.2,0v2.6h0Z"/>
            </g>
          </g>
        </g>
      </g>
      <line class="st3" x1="139.5" y1=".6" x2="139.5" y2="57.4"/>
      <path class="st1" d="M164.9,16.1c2.8,0,5.6.7,8,2.3h0s0,0,0,0h0s0,0,0,0h0s0,0,0,0h0c.7.5,1.3,1,1.8,1.6,1.8,1.8,3.1,4.1,3.6,6.5.4,2.5,1.6,4.8,3.4,6.7,2.3,2.3,5.4,3.6,8.7,3.6s6.4-1.3,8.7-3.6c2.3-2.3,3.6-5.4,3.6-8.7s-1.3-6.4-3.6-8.7c-2.3-2.3-5.4-3.6-8.7-3.6s-6.4,1.3-8.7,3.6c-1.6,1.6-2.8,3.7-3.3,5.9-1.2-2.2-3-4-5.2-5.2.9-2,2.2-3.8,3.8-5.4,3.6-3.6,8.3-5.5,13.4-5.5s9.8,2,13.4,5.5c3.6,3.6,5.5,8.3,5.5,13.4s-2,9.8-5.5,13.4c-3.6,3.6-8.3,5.5-13.4,5.5s-9.8-2-13.4-5.5c-2.7-2.7-4.5-6-5.2-9.7h0c-.3-1.3-.9-2.5-1.9-3.5-2.8-2.8-7.4-2.8-10.2,0-.3.3-.5.5-.7.8-.1.2-.3.4-.4.6h0c-.6,1.2-.9,2.5-.9,3.7,0,1.8.8,3.6,2.1,4.9,2.8,2.8,7.4,2.8,10.2,0,.6-.6,1.1-1.3,1.5-2.1.8,2.4,2.1,4.5,3.9,6.1-.2.3-.4.5-.7.7-5.4,5.4-14.2,5.4-19.6,0-2.5-2.5-4-6-4-9.5,0-2.4.6-4.8,1.8-7l10-17.3h7.7l-6,10.4h0Z"/>
    </g>
  </g>
</svg>